<?xml version="1.0" standalone="no"?>
<!DOCTYPE svg PUBLIC "-//W3C//DTD SVG 1.1//EN" "http://www.w3.org/Graphics/SVG/1.1/DTD/svg11.dtd" >
<svg>
<metadata>
Created by FontForge 20120731 at Tue Apr 12 10:48:05 2022
 By ffonts
</metadata>
<defs>
<font id="HelloPrawitaRegular" horiz-adv-x="0" >
  <font-face 
    font-family="Hello Prawita"
    font-weight="400"
    font-stretch="normal"
    units-per-em="1000"
    panose-1="0 0 0 0 0 0 0 0 0 0"
    ascent="800"
    descent="-200"
    x-height="660.788"
    cap-height="708.411"
    bbox="-51.0014 -189.944 1130.08 988.819"
    underline-thickness="0"
    underline-position="0"
    unicode-range="U+000A-20AC"
  />
<missing-glyph horiz-adv-x="527" 
d="M50 700h427v-700h-427v700zM78 680l185 -309l186 309h-371zM251 350l-180 300v-601zM264 329l-185 -308h370zM276 350l181 -303v605z" />
    <glyph glyph-name=".notdef" horiz-adv-x="527" 
d="M50 700h427v-700h-427v700zM78 680l185 -309l186 309h-371zM251 350l-180 300v-601zM264 329l-185 -308h370zM276 350l181 -303v605z" />
    <glyph glyph-name=".null" 
 />
    <glyph glyph-name=".null" 
 />
    <glyph glyph-name="LF" unicode="&#xa;" 
 />
    <glyph glyph-name="controlCR" unicode="&#xd;" 
 />
    <glyph glyph-name="space" unicode=" " horiz-adv-x="296" 
 />
    <glyph glyph-name="exclam" unicode="!" horiz-adv-x="219" 
d="M109.019 240.052c-34.0117 -0.165039 -62.6992 24.8887 -68.4385 54.3457c-1.93164 9.91211 -3.67871 20.0215 -3.91504 30.0791c-3.01074 127.881 -5.68945 255.77 -8.5625 383.653c-0.478516 21.3057 -1.80762 42.5967 -2.08984 63.9023
c-0.119141 9.06152 0.600586 18.3174 2.39941 27.1875c6.08789 30.0293 31.0869 52.6289 60.7168 55.7402c30.9756 3.25195 61.9326 -14.5654 72.9141 -43.7793c4.18945 -11.1445 6.17188 -23.6562 6.52344 -35.6211c2.23633 -76.1025 3.7373 -152.227 5.47949 -228.343
h0.101562c1.86621 -73.0693 3.83008 -146.136 5.48438 -219.209c0.227539 -10.0742 -0.232422 -20.3242 -1.84668 -30.252c-5.32715 -32.75 -34.7461 -57.541 -68.7666 -57.7041zM121.011 183.658c39.4854 -0.303711 73.3486 -34.9287 72.8994 -74.541
c-0.428711 -37.7949 -32.2275 -70.5723 -70.166 -69.6357c-41.4688 1.02344 -73.1982 29.6416 -74.5244 72.834c-1.19238 38.8115 32.8965 71.6426 71.791 71.3428z" />
    <glyph glyph-name="numbersign" unicode="#" horiz-adv-x="640" 
d="M559.594 394.779c38.5596 -6.1582 64.1768 -34.4785 64.5498 -69.7305c0.373047 -35.0664 -25.209 -63.9326 -63.5332 -70.584c-10.9336 -1.89648 -22.252 -1.75098 -33.4092 -2.13574c-13.0908 -0.452148 -26.1953 -0.459961 -40.7441 -0.682617
c-2.23633 -11.1396 -4.82617 -20.7832 -6.01758 -30.5977c-3.0625 -25.2324 -5.32324 -50.5625 -8.27246 -75.8115c-1.41406 -12.1133 -2.85547 -24.3213 -5.68066 -36.1533c-8.59082 -35.9785 -39.7373 -57.2754 -77.5488 -53.7793
c-34.0195 3.14453 -61.9785 32.1025 -61.4375 68.1113c0.441406 29.3594 5.41895 58.6504 8.41699 87.9688c1.22754 12.0029 2.54102 23.9971 3.91211 36.918c-21.7607 5.35742 -41.8096 2.69043 -63.3857 2.03809c-1.7334 -5.71484 -4.00879 -11.1582 -4.99512 -16.8242
c-4.52832 -26.0361 -8.59277 -52.1543 -13.0557 -78.2021c-1.5459 -9.0127 -3.14062 -18.1006 -5.77832 -26.8311c-10.3213 -34.1641 -43.502 -55.6543 -77.2539 -50.4922c-36.6709 5.6084 -62.7373 34.8115 -61.3018 71.7617c0.783203 20.1709 5.28418 40.2441 8.75 60.25
c2.08008 12.0137 3.49316 23.9355 4.26855 39.415c-16.3096 0.365234 -28.418 0.174805 -40.4482 1.0498c-10.0391 0.730469 -20.5381 1.1416 -29.873 4.4248c-31.2881 11.0039 -50.3486 42.6094 -46.1855 74.3486c4.21094 32.0889 30.1826 58.0986 62.5947 61.6006
c12.084 1.30566 24.3789 0.740234 36.5771 0.850586c13.126 0.117188 26.2529 0.0253906 37.4521 0.0253906c10.3066 10.2773 9.3584 20.376 8.20508 32.4658c-5.47363 0.597656 -11.0879 1.54199 -16.7285 1.76172c-15.1494 0.589844 -30.667 -1.05957 -45.3945 1.66699
c-33.21 6.15039 -55.4873 33.6904 -56.3779 66.5752c-0.850586 31.4531 18.8916 59.1738 50.1768 68.5762c10.5381 3.16797 21.8643 4.28027 32.9189 5.02148c17.2344 1.1543 34.5449 1.15234 51.8203 1.74609c1.99023 0.0673828 3.95703 0.814453 8.05371 1.70801
c1.85156 5.37891 5.00098 11.6455 6.12695 18.2568c8.69531 51.1045 16.9492 102.284 25.4766 153.418c1.16797 7.00098 2.7002 13.9932 4.72363 20.791c11.1113 37.3252 46.6514 60.415 81.1807 52.9541c39.0635 -8.44141 63.0059 -43.5811 56.9209 -84.5244
c-3.88281 -26.1348 -8.81152 -52.1123 -13.0791 -78.1914c-3.44824 -21.0664 -6.69727 -42.168 -9.81738 -63.2842c-0.5625 -3.81348 -0.0800781 -7.7832 -0.0800781 -12.7559c15.0439 -4.19434 28.7832 0.241211 41.5957 1.21582
c8.77734 6.3125 7.60254 15.0283 8.54004 22.9033c6.00977 50.4834 11.6719 101.01 18.041 151.447c1.25391 9.93066 3.72949 20.1807 7.99023 29.1689c13.5977 28.6797 45.3027 43.9629 75.9814 37.8643c32.8701 -6.53418 55.9062 -32.6143 56.8955 -66.0146
c0.419922 -14.1631 -0.966797 -28.459 -2.52637 -42.585c-4.45996 -40.4014 -9.43262 -80.7461 -14.415 -122.904c6.1582 -1.37793 11.6699 -2.89648 17.2793 -3.80078c8.99316 -1.44922 18.2666 -1.6416 27.0439 -3.85938
c31.7881 -8.03516 52.3164 -34.1523 52.8203 -66.2031c0.511719 -32.4746 -18.6162 -59.3516 -49.9766 -68.4639c-10.6045 -3.08105 -21.9141 -3.95605 -32.9746 -5.16992c-9.02441 -0.989258 -18.1592 -0.984375 -27.4131 -1.42871
c-9.25977 -12.1621 -6.16895 -25.6172 -7.19531 -40.1309c5.88574 -1.21289 11.4316 -3.01172 17.0723 -3.38574c13.1611 -0.87207 26.583 0.287109 39.5146 -1.77734zM359.412 417.309c0.677734 4.74805 0.583984 9.60645 0.889648 15.5107
c-19.2314 2.33691 -36.9648 2.5293 -54.1377 -1.89062c-6.13184 -20.0264 -5.8916 -20.0596 -1.83691 -36.9209c9.52539 0 19.4697 -0.260742 29.3926 0.0888672c6.95801 0.244141 13.8857 1.32129 21.7451 2.12012c1.42969 7.47461 2.96875 14.2432 3.94727 21.0918z" />
    <glyph glyph-name="dollar" unicode="$" horiz-adv-x="433" 
d="M415.734 217.605c2.23242 -74.4834 -29.6562 -131.114 -90.3818 -172.512c-7.4834 -5.10254 -15.6621 -9.18359 -23.6484 -13.8125c-3.61621 -14.7979 0.210938 -28.793 1.48047 -42.751c1.30762 -14.3867 0.896484 -28.3799 -4.00293 -42.1123
c-10.207 -28.6064 -38.3076 -49.2676 -67.5186 -48.1162c-28.2002 1.11035 -56.3516 17.5605 -66.209 49.6855c-3.24219 10.5645 -4.5127 21.8633 -5.58789 32.9336c-1.4707 15.1494 -1.89551 30.4014 -2.85449 47.1035c-6.48047 4.01855 -13.1338 8.30371 -19.9346 12.3389
c-40.7715 24.1904 -75.7725 54.6904 -101.812 94.6172c-6.60254 10.123 -12.1387 21.1592 -16.6611 32.3818c-14.0664 34.8975 6.39355 70.5527 30.54 84.376c30.2715 17.332 67.7529 10.8076 90.6934 -16.8291c5.15918 -6.21582 9.19629 -13.3848 13.5762 -20.2275
c12.8721 -20.1064 30.21 -35.6777 50.3701 -47.9053c18.4131 -11.168 35.3916 -9.625 50.9033 2.97949c15.1875 12.3418 22.8076 34.0205 15.5576 51.7275c-6.09277 14.8809 -13.7949 29.54 -23.2305 42.5186c-19.8506 27.3047 -44.4844 49.8887 -72.6172 68.8867
c-21.8574 14.7617 -43.3584 30.2578 -63.6895 47.0371c-71.4209 58.9414 -78.2051 151.152 -39.2422 220.602c15.6592 27.916 35.5234 52.2764 61.7334 70.5234c13.1611 9.16113 18.5508 19.8662 18.6123 35.5312c0.102539 26.418 1.52148 52.8369 2.76758 79.2393
c0.478516 10.1289 1.34473 20.3301 3.16211 30.293c6.86328 37.6357 36.2168 61.5918 72.7852 59.9502c36.3379 -1.63086 64.834 -28.5801 67.1582 -66.2598c1.30762 -21.1943 -1.23047 -42.6211 -1.9082 -63.9463
c-0.219727 -6.91406 -0.0351562 -13.8408 -0.0351562 -21.1562c11.6699 -3.91016 22.4482 -6.66113 32.5098 -11.0537c30.709 -13.4082 55.416 -42.0264 51.2188 -81.7373c-4.38477 -41.4922 -45.6602 -70.3701 -86.002 -59.6045
c-0.980469 0.262695 -1.96875 0.551758 -2.8916 0.96582c-15.3037 6.85449 -30.1465 10.3613 -46.1924 0.594727c-21.0264 -12.7988 -41.9395 -25.0342 -51.1768 -49.915c-4.37891 -11.7939 -2.78711 -22.1719 5.66309 -31.0068
c6.28906 -6.5752 13.2246 -12.6982 20.5752 -18.0547c13.9502 -10.1641 28.5527 -19.4258 42.624 -29.4297c54.6514 -38.8545 99.9834 -86.1133 130.586 -146.423c12.9863 -25.5947 22.208 -52.3438 23.0801 -81.4326z" />
    <glyph glyph-name="percent" unicode="%" horiz-adv-x="853" 
d="M613.773 762.717c-31.0771 -83.2559 -62.3799 -166.427 -93.7441 -249.574c-66.4346 -176.133 -132.937 -352.241 -199.475 -528.334c-3.37109 -8.91797 -6.54492 -18.0635 -11.2012 -26.3174c-16.7422 -29.6709 -50.2539 -41.9424 -81.0684 -30.333
c-32.4189 12.2119 -49.541 44.209 -41.4756 78.4219c2.18262 9.25684 5.46484 18.3027 8.8291 27.2256c96.7578 256.604 193.554 513.195 290.523 769.719c4.70215 12.4395 9.60645 25.2119 16.8936 36.1826c16.9238 25.4795 47.2617 34.8447 75.6113 25.1445
c27.1191 -9.28027 45.21 -34.8408 44.875 -70.5898c-1.89551 -6.19336 -5.13477 -19.1299 -9.76855 -31.5449zM397.106 677.099c-0.435547 -104.379 -84.7061 -173.626 -173.232 -173.469c-102.887 0.183594 -174.917 84.959 -173.796 172.686
c-2.56934 78.1963 57.5234 174.92 174.525 174.781c101.132 -0.121094 172.896 -79.4609 172.503 -173.998zM184.196 679.76c-1.99805 -21.5303 16.3877 -40.6865 38.5264 -41.126c21.6689 -0.430664 38.7412 15.2363 39.8359 36.5586
c1.10254 21.4766 -14.4121 39.0303 -35.3174 41.0215c-23.1963 2.20801 -40.9941 -14.3604 -43.0449 -36.4541zM630.093 366.341c112.964 -2.38867 174.281 -92.1846 172.638 -172.818c0.363281 -93.8252 -76.1387 -172.983 -173.828 -171.922
c-104.954 1.13965 -172.762 88.2705 -171.429 174.608c1.4834 96.082 81.502 172.058 172.619 170.132zM668.646 193.117c0.704102 20.1172 -17.4131 39.6709 -37.0098 39.9473c-20.8506 0.291992 -38.8877 -16.6689 -39.6982 -37.333
c-0.826172 -21.0381 15.8428 -38.7256 37.04 -39.3027c21.4707 -0.586914 38.9307 15.5615 39.668 36.6885z" />
    <glyph glyph-name="ampersand" unicode="&#x26;" horiz-adv-x="503" 
d="M475.402 152.146c14.2744 -18.4209 20.2217 -39.4502 14.0547 -63.0527c-12.374 -47.3311 -65.5352 -68.6631 -106.29 -41.5898c-9.91211 6.58301 -18.0039 16.2598 -25.9707 25.3564c-17.3564 19.8184 -34.0938 40.1787 -52.082 61.5
c-8.16016 -3.31445 -15.5342 -5.95215 -22.6055 -9.2373c-60.3867 -28.0518 -120.5 -24.8945 -179.116 4.01758c-80.3516 39.6338 -105.648 120.99 -81.7812 198.068c12.6182 40.7529 36.5811 74.499 65.4717 105.091c6.94727 7.35742 14.623 14.0244 22.125 21.1631
c-4.95801 31.4424 -10.5391 59.2969 -13.5479 87.4268c-6.89746 64.4951 6.54004 125.522 36.916 182.361c23.749 44.4414 60.7539 75.9082 105.995 97.2188c28.9961 13.6582 59.8936 17.7119 92.0186 14.7842c56.0518 -5.10742 98.0459 -47.6475 108.792 -103.404
c5.50879 -28.5869 2.86914 -56.625 -4.11816 -84.498c-11.5283 -45.9883 -32.5898 -87.6992 -60.6826 -125.364c-21.1973 -28.418 -45.2432 -54.75 -68.6504 -81.458c-7.29102 -8.31934 -16.6396 -14.835 -25.6172 -22.6729
c4.31348 -9.65234 7.20508 -16.9512 10.7861 -23.8945c3.16797 -6.14258 7.10254 -11.8896 11.668 -19.4072c7.62109 7.30176 13.6328 13.9834 20.5596 19.5195c19.3418 15.4619 41.1543 21.8828 65.541 14.8711c41.2734 -11.8682 62.5596 -53.7617 46.9199 -94.1572
c-9.49707 -24.5312 -21.251 -48.1895 -32.7412 -73.9209c5.0752 -6.49414 10.4326 -13.6689 16.125 -20.5693c18.7412 -22.7217 38.1992 -44.8828 56.2305 -68.1514zM165.81 257.746c12.7393 -6.01562 25.5176 -12.1514 42.165 -6.90332
c-8.27148 21.7197 -22.0137 38.7598 -34.8584 57.7412c-11.8486 -10.2881 -16.2168 -22.1504 -16.0137 -35.8994c0.0947266 -6.3916 2.5127 -12.0137 8.70703 -14.9385zM240.262 586.729c26.4014 24.7529 43.6729 54.9766 54.417 89.04
c0.942383 2.99023 -0.0507812 6.59277 -0.21582 12.4473c-42.8945 -22.8359 -50.0625 -61.2812 -54.2012 -101.487z" />
    <glyph glyph-name="quotesingle" unicode="'" horiz-adv-x="185" 
d="M167.944 634.015c-0.59082 -0.0410156 -1.18164 -0.0849609 -1.77246 -0.125c0 -16.2441 1.15723 -32.5889 -0.243164 -48.7109c-2.86523 -32.9834 -29.0557 -59.6406 -60.2969 -63.1201c-34.998 -3.89941 -65.6924 14.4844 -76.3564 46.9805
c-3.09766 9.44043 -3.60059 19.8965 -4.22949 29.9541c-1.58496 25.3291 -2.75 50.6865 -3.7334 76.0469c-0.90918 23.4375 -4.02832 46.4219 -10.5908 69.0332c-4.89648 16.8701 -5.49023 34.0869 1.42871 50.7686c10.6328 25.6406 29.9258 40.8037 57.3486 43.9287
c27.4502 3.12793 49.6035 -7.52637 65.8467 -29.9072c10.3701 -14.291 14.6104 -31.1367 18.5664 -47.9277c2.55469 -10.8438 4.79785 -21.8633 5.88379 -32.9316c3.07324 -31.2939 5.48047 -62.6553 8.14844 -93.9893z" />
    <glyph glyph-name="quotesingle" unicode="&#x2019;" horiz-adv-x="185" 
d="M167.944 634.015c-0.59082 -0.0410156 -1.18164 -0.0849609 -1.77246 -0.125c0 -16.2441 1.15723 -32.5889 -0.243164 -48.7109c-2.86523 -32.9834 -29.0557 -59.6406 -60.2969 -63.1201c-34.998 -3.89941 -65.6924 14.4844 -76.3564 46.9805
c-3.09766 9.44043 -3.60059 19.8965 -4.22949 29.9541c-1.58496 25.3291 -2.75 50.6865 -3.7334 76.0469c-0.90918 23.4375 -4.02832 46.4219 -10.5908 69.0332c-4.89648 16.8701 -5.49023 34.0869 1.42871 50.7686c10.6328 25.6406 29.9258 40.8037 57.3486 43.9287
c27.4502 3.12793 49.6035 -7.52637 65.8467 -29.9072c10.3701 -14.291 14.6104 -31.1367 18.5664 -47.9277c2.55469 -10.8438 4.79785 -21.8633 5.88379 -32.9316c3.07324 -31.2939 5.48047 -62.6553 8.14844 -93.9893z" />
    <glyph glyph-name="quotesingle" unicode="&#x2018;" horiz-adv-x="185" 
d="M167.944 634.015c-0.59082 -0.0410156 -1.18164 -0.0849609 -1.77246 -0.125c0 -16.2441 1.15723 -32.5889 -0.243164 -48.7109c-2.86523 -32.9834 -29.0557 -59.6406 -60.2969 -63.1201c-34.998 -3.89941 -65.6924 14.4844 -76.3564 46.9805
c-3.09766 9.44043 -3.60059 19.8965 -4.22949 29.9541c-1.58496 25.3291 -2.75 50.6865 -3.7334 76.0469c-0.90918 23.4375 -4.02832 46.4219 -10.5908 69.0332c-4.89648 16.8701 -5.49023 34.0869 1.42871 50.7686c10.6328 25.6406 29.9258 40.8037 57.3486 43.9287
c27.4502 3.12793 49.6035 -7.52637 65.8467 -29.9072c10.3701 -14.291 14.6104 -31.1367 18.5664 -47.9277c2.55469 -10.8438 4.79785 -21.8633 5.88379 -32.9316c3.07324 -31.2939 5.48047 -62.6553 8.14844 -93.9893z" />
    <glyph glyph-name="parenleft" unicode="(" horiz-adv-x="413" 
d="M340.076 53.9785c16.5176 -16.8203 25.0049 -36.9434 22.1348 -60.7979c-5.7666 -47.9082 -59.8057 -79.5859 -105.932 -51.6943c-11.1748 6.75684 -21.3281 15.6016 -30.8398 24.6553c-99.2773 94.502 -164.439 208.282 -191.021 343.167
c-27.2803 138.43 -10.0039 270.945 55.7783 396.375c32.4766 61.9229 75.7588 115.383 128.536 161.122c7.62402 6.60742 15.7979 13.042 24.7109 17.6143c50.1904 25.7471 102.746 -14.8398 102.752 -55.874c0.308594 -25.084 -6.38574 -41.7334 -19.4902 -55.5859
c-6.96582 -7.36328 -14.8789 -13.8301 -22.335 -20.7305c-77.7139 -71.9111 -123.35 -160.528 -135.498 -265.604c-17.9775 -155.499 32.4062 -287.945 138.354 -400.845c10.416 -11.1006 22.1729 -20.9316 32.8486 -31.8018z" />
    <glyph glyph-name="parenright" unicode=")" horiz-adv-x="441" 
d="M384.3 618.633c28.3574 -97.7871 37.0312 -197.309 26.3496 -298.784c-8.05078 -76.4639 -25.9199 -150.095 -56.9912 -220.384c-21.9336 -49.6201 -50.2236 -95.3027 -87.4746 -135.019c-7.61035 -8.11328 -15.6699 -16.1533 -24.7324 -22.4961
c-41.6162 -29.1221 -95.8633 -9.34668 -109.613 39.3037c-5.33301 18.874 -1.66113 36.2871 7.66016 52.7744c3.4668 6.13379 7.75391 12.0537 12.6836 17.0723c51.4092 52.3438 80.2676 116.583 99.1133 186.268c14.4326 53.3682 20.3643 107.763 20.7051 179.795
c0.00292969 59.0381 -11.2285 132.969 -39.2715 203.907c-12.7686 32.3008 -28.8877 62.7383 -50.0205 90.4189c-21.9775 28.7861 -48.2148 52.334 -82.2109 65.9756c-20.7881 8.3418 -36.25 21.6172 -45.2764 42.5488c-19.3398 44.8477 17.1475 102.224 74.8105 95.1006
c12.834 -1.58496 25.6328 -6.44043 37.5762 -11.751c49.3438 -21.9395 89.2295 -56.1084 122.725 -98.002c44.4492 -55.5938 74.2549 -118.755 93.9678 -186.729z" />
    <glyph glyph-name="plus" unicode="+" horiz-adv-x="447" 
d="M397.883 494.48c28.1143 -13.0176 44.5391 -41.4199 41.0352 -71.7246c-3.66699 -31.6758 -27.0059 -57.0898 -58.4805 -61.6729c-22.9736 -3.34473 -46.2207 -4.80469 -70.8525 -7.25586c-0.688477 -7.5918 -1.83203 -14.4326 -1.83203 -21.2754
c-0.00292969 -21.3652 0.380859 -42.7295 0.705078 -64.0938c0.203125 -13.3711 -1.39258 -26.3184 -7.10156 -38.6514c-13.459 -29.0732 -41.5342 -44.2666 -74.9531 -40.2754c-28.0117 3.34473 -52.667 25.8193 -57.9697 54.917
c-2.7168 14.9092 -2.82031 30.3291 -3.61621 45.543c-0.947266 18.0996 0.0302734 36.3535 -3.5166 55.7607c-10.4326 -0.547852 -19.3125 -1.15723 -28.2041 -1.45215c-20.3193 -0.673828 -40.6953 -2.39844 -60.9531 -1.51074
c-36.0703 1.5791 -64.4814 31.458 -66.0771 67.5713c-1.56543 35.3984 25.1621 67.5938 61.1602 72.1299c22.1641 2.79199 44.5605 3.72363 66.8486 5.55664c7.88965 0.649414 15.7656 1.49121 24.1367 2.29004c4.45508 12.002 2.49707 23.2324 2.34473 34.1797
c-0.240234 17.2871 -1.56934 34.5635 -1.65039 51.8477c-0.0439453 9.07715 0.725586 18.3467 2.61523 27.2109c6.41797 30.1123 31.5605 52.6045 61.1699 55.5869c31.1338 3.13574 61.4717 -14.6592 72.7676 -44.2373c3.90039 -10.2148 5.52051 -21.6562 6.21582 -32.6602
c1.15137 -18.2539 0.599609 -36.6104 0.989258 -54.9199c0.169922 -7.98633 0.890625 -15.96 1.5127 -26.5195c21.6357 0 39.8535 -0.186523 58.0664 0.0634766c12.3486 0.169922 24.2188 -1.12109 35.6396 -6.4082z" />
    <glyph glyph-name="comma" unicode="," horiz-adv-x="212" 
d="M197.05 106.526c0.954102 -9.75781 -0.986328 -20.3096 -3.86719 -29.8125c-4.69824 -15.5049 -11.1729 -30.4785 -17.042 -45.6221c-12.8447 -33.1377 -25.6572 -66.291 -38.7617 -99.3262c-3.73242 -9.41309 -7.58691 -18.957 -12.8379 -27.5537
c-13.5488 -22.1807 -35.3311 -33.5234 -61.2832 -33.1445c-51.627 0.376953 -75.6953 49.6289 -67.7822 82.417c1.90039 7.87207 3.98047 15.7725 6.87305 23.3174c17.8086 46.457 35.666 92.8975 54.0244 139.138c3.70215 9.3252 8.30273 18.9121 14.7705 26.4062
c19.3398 22.4043 43.5996 32.6006 73.3945 24.5186c29.3193 -7.9541 49.5957 -30.5049 52.5117 -60.3379z" />
    <glyph glyph-name="hyphen" unicode="-" horiz-adv-x="459" 
d="M384.712 493.896c36.2412 -6.20801 61 -37.1328 59.5996 -73.5391c-1.31055 -34.1309 -31.7773 -63.9229 -68.2246 -66.1143c-12.1494 -0.730469 -24.3906 -0.508789 -36.5664 -0.078125c-63.9355 2.26074 -127.863 4.79102 -191.798 7.08984
c-20.292 0.728516 -40.6006 1.03418 -56.585 1.42773c-7.35547 1.05957 -10.3594 1.68848 -13.3906 1.89746c-34.2754 2.3623 -67.0547 32.1738 -63.4775 75.6543c2.98438 36.2705 30.6973 63.498 72.1875 64.9229c15.207 0.522461 30.4697 -0.194336 45.6953 -0.673828
c72.0605 -2.2666 144.121 -4.54199 216.172 -7.08984c12.1621 -0.430664 24.4062 -1.44434 36.3877 -3.49707z" />
    <glyph glyph-name="period" unicode="." horiz-adv-x="168" 
d="M85.9883 90.6992c39.2793 -1.86523 71.9346 -36.167 70.957 -76.335c-0.94043 -38.7998 -35.0361 -71.4873 -73.6064 -69.4209c-40.4639 2.16699 -73.8857 34.873 -72.2822 74.8496c-0.611328 40.3955 36.1201 72.748 74.9316 70.9062z" />
    <glyph glyph-name="slash" unicode="/" horiz-adv-x="507" 
d="M456.506 854.156c0.425781 -16.7637 -4.57129 -32.0615 -9.59961 -47.4951c-33.9746 -104.298 -67.9893 -208.582 -102.054 -312.85c-50.1523 -153.511 -100.344 -307.006 -150.557 -460.496c-2.83887 -8.68262 -5.3418 -17.5674 -9.1582 -25.8223
c-15.9736 -34.5449 -51.2529 -50.8506 -85.4473 -39.9639c-36.5117 11.624 -55.8057 44.9111 -47.96 83.7119c2.20703 10.9111 5.62402 21.6201 9.08203 32.2275c83.0742 254.936 166.213 509.851 249.434 764.737c3.77734 11.5664 7.3418 23.415 12.9092 34.1445
c13.3027 25.6445 35.0605 38.5215 73.6709 39.3418c22.6533 1.27832 58.6699 -27.7373 59.6797 -67.5361z" />
    <glyph glyph-name="zero" unicode="0" horiz-adv-x="604" 
d="M521.463 621.232c42.5586 -68.2227 61.835 -143.02 61.6133 -218.107c0.116211 -88.4658 -20.2793 -165.868 -67.6787 -235.293c-16.1465 -23.6484 -35.3994 -44.4238 -57.6074 -62.583c-88.8555 -72.6611 -208.46 -74.666 -301.001 -3.6709
c-30.1777 23.1523 -55.0605 51.1338 -75.0742 83.3916c-44.1436 71.1445 -63.0557 149.044 -61.6426 232.334c1.08594 64 15.0352 124.905 44.3428 181.94c23.1064 44.9678 54.1807 83.2754 95.748 112.755c39.2168 27.8135 82.9941 43.2256 130.583 45.1865
c40.1055 1.65234 78.4678 -8.25684 114.43 -26.6777c49.292 -25.248 87.21 -62.665 116.287 -109.275z" />
    <glyph glyph-name="one" unicode="1" horiz-adv-x="456" 
d="M232.319 539.922c-0.230469 1.86816 -1.41309 3.61719 -4.16211 10.3496c-6.42578 -7.98633 -10.9844 -13.0752 -14.8955 -18.624c-11.7051 -16.6035 -22.6328 -33.7793 -34.8408 -49.9961c-14.9551 -19.8682 -34.9932 -29.3057 -60.4424 -29.4326
c-40.3799 -0.201172 -80.5342 41.0127 -64.2764 92.2979c3.00879 9.49219 8.48828 18.4756 14.127 26.8164c50.0635 74.0498 100.365 147.939 150.716 221.794c17.8164 26.1318 42.8164 36.8994 73.7812 31.4824c28.9072 -5.05664 51.542 -29.625 56.2764 -60.9395
c4.70605 -31.125 8.15332 -62.4424 11.958 -93.7002c9.93848 -81.668 19.8701 -163.337 29.6162 -245.027c9.02441 -75.6406 17.6953 -151.324 26.7354 -226.964c4.94043 -41.3467 10.5986 -82.6094 15.373 -123.977c1.97656 -17.127 3.79883 -34.457 3.38477 -51.6377
c-0.842773 -34.8818 -24.5098 -60.9395 -59.1738 -67.3389c-30.082 -5.55469 -63.4121 13.5439 -75.6133 44.1387c-3.33398 8.3623 -5.28125 17.5195 -6.37891 26.4941c-10.6191 86.7031 -20.877 173.45 -31.3301 260.173c-10.208 84.7051 -20.5127 169.4 -30.8545 254.091z
" />
    <glyph glyph-name="two" unicode="2" horiz-adv-x="634" 
d="M245.275 195.727c-4.43359 -6.55469 -8.38477 -13.4287 -16.4951 -26.501c26.3857 4.67188 45.2803 7.6748 64.0293 11.4014c64.6875 12.8564 129.294 26.1328 194.018 38.8047c9.87207 1.93359 20.2393 2.42969 30.3164 2.02832
c30.4053 -1.21289 56.3955 -22.6621 64.1357 -51.9893c7.36035 -27.8857 -3.58008 -59.0898 -28.2334 -74.9482c-9.95996 -6.40723 -21.9004 -10.791 -33.541 -13.334c-47.585 -10.3975 -95.3555 -19.9521 -143.142 -29.4033
c-88.6094 -17.5244 -177.262 -34.8271 -265.937 -52.0127c-9.90625 -1.91992 -20.0938 -3.64746 -30.1143 -3.46387c-29.541 0.539062 -55.1787 19.4912 -64.5322 47.3945c-11.0654 33.0107 -6.20898 62.5146 14.2549 92.0889
c86.7686 125.396 172.079 251.807 257.802 377.93c22.9473 33.7637 42.126 69.6152 55.5283 108.227c4.61523 13.2979 7.76465 27.4268 9.20508 41.4219c1.62793 15.8086 -4.91504 24.0449 -19.8564 30.5342c-15.6826 6.81152 -32.1621 5.80371 -47.9961 2.49512
c-28.5527 -5.9668 -53.0811 -19.749 -72.2607 -42.3945c-12.8604 -15.1846 -20.8828 -32.3652 -23.293 -52.1074c-0.615234 -5.03809 -0.865234 -10.1348 -1.03613 -15.2129c-1.34277 -40.0791 -38.2852 -65.6445 -67.6152 -65.7773
c-36.7422 -0.167969 -68.6123 26.2715 -73.3223 64.0947c-1.7334 13.9199 -1.06445 28.5908 1.19434 42.4814c10.8193 66.54 45.0078 119.564 98.457 159.38c57.7744 43.0361 123.061 61.6963 195.146 51.3643c111.597 -15.9951 169.969 -115.147 151.713 -205.39
c-11.249 -55.6074 -32.4707 -106.937 -60.875 -155.324c-20.5635 -35.0303 -43.5264 -68.6846 -66.1562 -102.458c-40.1816 -59.9668 -80.9473 -119.541 -121.395 -179.329z" />
    <glyph glyph-name="three" unicode="3" horiz-adv-x="491" 
d="M350.42 451.604c-4.17871 -5.45996 -7.89551 -11.2754 -12.6699 -18.1455c9.96973 -5.75781 18.7471 -10.6592 27.3623 -15.834c29.042 -17.4404 54.7637 -38.7275 74.7061 -66.3564c46.9854 -65.0977 50.4131 -142.211 6.27441 -211.246
c-21.7959 -34.0908 -51.4883 -60.0352 -86.2588 -80.2109c-51 -29.5918 -106.459 -44.6172 -164.961 -48.6367c-17.1924 -1.18164 -34.5459 -0.764648 -51.792 -0.139648c-10.0635 0.365234 -20.2734 1.72266 -30.0469 4.13379
c-39.2305 9.68262 -60.542 39.8555 -56.1133 78.4717c3.98047 34.6982 34.4023 60.8262 72.1797 61.4951c8.08105 0.143555 16.1777 -1.52734 24.2891 -1.92773c41.1787 -2.03418 80.9316 4.21094 118.671 21.2949c17.7305 8.02637 33.9873 18.3584 46.8867 33.208
c20.0156 23.0439 20.2783 46.4941 -1.63672 67.4697c-11.5234 11.0303 -25.5488 20.2783 -39.9189 27.3145c-25.7119 12.5898 -53.4443 19.209 -82.2832 19.6855c-16.2461 0.268555 -32.5225 0.238281 -48.7549 -0.415039
c-16.6738 -0.671875 -32.416 2.94922 -47.2061 9.89355c-26.0664 12.2402 -40.9346 32.7676 -41.7061 62.0918c-0.806641 30.6943 13.9697 52.4658 40.833 65.7979c8.92285 4.42773 19.2295 6.19824 29.0254 8.70117c36.1807 9.24512 68.1504 26.1475 94.7178 52.5342
c14.54 14.4404 25.8691 30.9062 32.2734 50.9199c6.70312 20.9502 1.75 42.4404 -26.6318 53.3633c-18.1367 6.97949 -37.5742 10.0967 -56.9072 5.88867c-18.7578 -4.08398 -37.082 -10.1338 -55.6797 -15.0029c-10.709 -2.80371 -21.4688 -6.17285 -32.4023 -7.20703
c-31.8613 -3.01367 -61.002 20.6338 -69.4922 48.4775c-8.7959 28.8477 0.917969 59.8193 26.0742 78.3779c3.25879 2.4043 6.64453 4.79297 10.2959 6.48535c72.7471 33.7148 147.936 44.4561 224.754 17.4688c64.7637 -22.752 107.716 -67.7656 122.05 -136.521
c7.88867 -37.834 2.60547 -74.9014 -11.4346 -110.652c-8.5791 -21.8438 -20.2002 -42.0938 -34.4971 -60.7773z" />
    <glyph glyph-name="four" unicode="4" horiz-adv-x="547" 
d="M364.948 218.089c-0.449219 4.90723 -1.32129 9.77539 -2.48926 18.2197c-15.4092 -0.972656 -27.5693 -1.25781 -39.6152 -2.58398c-60.5527 -6.65918 -121.143 -13.0615 -181.595 -20.5664c-67.8477 -8.42285 -108.98 43.9189 -83.7637 107.729
c2.9707 7.51562 6.88867 14.7275 10.9912 21.7139c79.25 134.946 158.646 269.809 237.862 404.774c12.2334 20.8428 27.1338 37.7197 52.1201 43.333c24.8936 5.5918 46.5762 -0.393555 64.6562 -17.6045c10.2373 -9.74707 19.0723 -21.0996 27.6904 -32.3789
c7.52832 -9.85254 11.0352 -21.5635 12.2676 -33.9912c2.90918 -29.3291 6.35156 -58.6055 9.03613 -87.9541c5 -54.6592 9.46094 -109.367 14.4326 -164.029c4.97168 -54.6602 10.3779 -109.281 15.4336 -163.935c4.96191 -53.6436 9.69824 -107.307 14.5762 -160.958
c1.84082 -20.2441 4.24805 -40.4502 5.52344 -60.7295c0.696289 -11.0869 1.14844 -22.6084 -1.03516 -33.376c-6.45605 -31.8232 -35.585 -56.2559 -67.4951 -56.0205c-39.6758 0.292969 -64.1475 27.2363 -70.3066 56.3516
c-2.93652 13.8799 -4.2207 28.1553 -5.56055 42.3164c-4.4043 46.5479 -8.46875 93.127 -12.7295 139.688z" />
    <glyph glyph-name="five" unicode="5" horiz-adv-x="481" 
d="M177.564 591.477c-2.86035 -0.34668 -5.58203 -1.83691 -9.61426 -3.21875c-0.617188 -4.70215 -1.74121 -9.58691 -1.81348 -14.4863c-0.235352 -16.1709 -0.0888672 -32.3467 -0.0888672 -48.4199c16.2852 -6.64551 31.7109 -5.66992 46.6787 -6.93262
c48.4219 -4.08887 93.4082 -18.5615 134.937 -43.6611c29.9521 -18.1045 55.6807 -41.0566 75.3281 -70.1396c45.7773 -67.7646 52.2793 -139.43 19.3965 -214.319c-14.9492 -34.0469 -37.0615 -63.2227 -65.3164 -87.2041
c-77.8584 -66.083 -168.039 -91.583 -269.131 -80.2383c-17.9775 2.01758 -33.5312 9.11328 -45.4277 22.3828c-19.1895 21.4023 -25.1182 46.1289 -14.0986 73.4922c10.8975 27.0654 31.5537 42.0615 60.3037 44.3174c17.1611 1.34668 34.5391 -0.316406 51.8115 -0.107422
c33.2168 0.40332 64.0391 9.91211 92.9482 25.8438c17.0723 9.4082 32 21.6299 44.3418 36.7803c34.0068 41.7412 27.5957 90.1748 -16.0547 122.072c-23.6123 17.2539 -50.6562 26.0234 -79.1836 29.0898c-21.124 2.27148 -42.5352 2.36914 -63.7344 -2.29395
c-10.8252 -2.38086 -22.1084 -3.52441 -33.2041 -3.66504c-26.7969 -0.338867 -46.873 12.3213 -60.0107 35.1465c-14.3203 24.8809 -23.877 50.7607 -22.501 80.8457c1.99805 43.6562 1.33203 87.4609 0.863281 131.193c-0.348633 32.4443 15.0527 58.6484 32.2559 83.7178
c10.0312 14.6182 26.2725 21.9199 44.2549 24.1836c28.2109 3.55273 56.377 7.47949 84.6094 10.8643c49.4004 5.92285 98.8223 11.6826 148.269 17.2129c11.084 1.24023 22.3008 1.33789 33.4619 1.81445c28.3389 1.21094 64.4141 -24.3037 67.8887 -62.0703
c3.84766 -41.8252 -23.4707 -70.126 -54.6211 -77.1162c-14.8145 -3.3252 -30.1016 -4.66895 -45.2246 -6.47852c-52.4326 -6.27734 -104.891 -12.3379 -157.323 -18.6055z" />
    <glyph glyph-name="six" unicode="6" horiz-adv-x="494" 
d="M203.955 522.181c-6.42383 -11.3018 -13.1855 -22.623 -15.666 -38.5332c11.1631 2.41504 20.7803 4.24316 30.2705 6.59082c43.9238 10.8623 88.0156 14.6055 132.604 4.07031c26.0342 -6.15039 50.3584 -16.3145 71.2656 -33.0166
c44.9941 -35.9453 65.6055 -83.2715 55.4287 -139.986c-17.4082 -97.0342 -72.7158 -168.189 -157.432 -216.958c-24.082 -13.8633 -50.9424 -20.2148 -78.2891 -23.459c-27.9111 -3.31152 -54.6436 2.99805 -80.043 14.2432
c-40.1211 17.7656 -71.6885 45.6729 -95.1055 82.8125c-24.877 39.458 -38.1201 83.0146 -43.4141 128.889c-18.4639 160.011 35.0635 293.477 150.532 403.532c34.0645 32.4688 72.5918 58.6143 115.179 78.8223c23.7617 11.2744 48.3975 14.9648 74.1201 10.0352
c31.6504 -6.06641 55.0391 -31.6621 57.8184 -62.4863c3.45898 -38.3535 -20.2627 -70.96 -58.4883 -76.3135c-15.8916 -2.22559 -28.9697 -8.02148 -41.8477 -16.2598c-48.8213 -31.2275 -88.2314 -71.5039 -116.933 -121.982z" />
    <glyph glyph-name="seven" unicode="7" horiz-adv-x="492" 
d="M317.715 594.633c0.989258 6.68945 0.136719 13.6504 0.136719 22.2598c-8.64746 -1.22656 -15.5234 -1.70898 -22.1641 -3.22266c-52.418 -11.9463 -104.843 -23.8809 -157.146 -36.3193c-13.3594 -3.17676 -25.9639 -2.72363 -38.8936 1.60449
c-29.1074 9.74414 -48.1436 33.5791 -49.5537 62.7842c-1.45117 30.0605 13.9375 56.0723 41.377 68.5703c8.24414 3.75586 17.1162 6.46094 25.9619 8.51855c84.958 19.7598 169.99 39.1963 254.954 58.9287c19.2285 4.46582 38.0664 5.10156 56.9082 -1.77734
c30.1094 -10.9922 48.6768 -35.0215 47.6631 -67.0303c-0.736328 -23.2412 -4.70703 -46.4404 -8.15723 -69.5205c-13.5146 -90.4297 -27.3242 -180.815 -41.1572 -271.196c-13.3711 -87.3711 -26.915 -174.714 -40.3662 -262.072
c-2.7832 -18.0771 -4.7168 -36.3252 -8.39941 -54.2158c-7.84277 -38.0938 -39.7852 -60.7148 -74.4238 -58.4893c-33.5039 2.15234 -61.9297 27.9189 -64.9492 61.5713c-1.07812 12.0264 -0.392578 24.4834 1.41602 36.4512
c17.0107 112.506 34.4736 224.942 51.7334 337.409c8.47656 55.2305 16.9043 110.469 25.0605 165.746z" />
    <glyph glyph-name="eight" unicode="8" horiz-adv-x="574" 
d="M198.277 62.5596c-98.4248 55.9248 -174.051 202.338 -75.1367 356.093c-7.30176 5.27246 -14.8145 10.3701 -21.9775 15.9189c-72.0049 55.7803 -101.646 129.468 -82.4619 217.96c19.2471 88.7793 77.373 146.16 166.237 162.771
c153.075 28.6123 254.48 -93.5732 253.421 -204.602c-0.305664 -32.0293 -5.32715 -62.6621 -18.7197 -91.8291c-2.91699 -6.35352 -5.39258 -12.9121 -8.78613 -21.0957c77.2236 -36.0732 128.297 -93.793 145.207 -177.254
c12.5693 -62.0342 2.32617 -121.44 -31.5908 -175.815c-69.0889 -110.765 -212.786 -146.586 -326.192 -82.1475z" />
    <glyph glyph-name="nine" unicode="9" horiz-adv-x="506" 
d="M312.532 360.09c-0.222656 2.70508 -1.74902 5.30273 -2.87793 8.55469c-10.8105 -0.693359 -16.04 -9.02832 -22.7881 -14.3994c-27.415 -21.8174 -57.3359 -38.3691 -91.9785 -45.3213c-56.9346 -11.4238 -104.267 5.35156 -141.666 49.5176
c-15.9775 18.8682 -25.8984 41.0859 -32.6318 64.8369c-11.9004 41.9697 -11.8633 84.6377 -4.59668 126.948c14.6055 85.0352 49.8604 160.743 108.425 224.651c32.0244 34.9473 68.9482 63.4082 116 75.0557c50.2373 12.4355 96.6826 6.2793 135.757 -31.3262
c5.79297 -5.57422 12.8887 -9.7793 19.2637 -14.7676c15.0596 -11.7812 24.4277 -27.1982 27.3857 -46.0127c6.14258 -39.0771 12.082 -77.9023 11.8682 -117.973c-0.243164 -45.5918 5.50391 -91.2334 9.05762 -136.821
c5.21094 -66.8604 10.7676 -133.693 16.2139 -200.535c5.28125 -64.8174 10.7227 -129.622 15.8525 -194.45c1.84473 -23.2979 4.0498 -46.6455 4.19922 -69.9824c0.224609 -35.3203 -19.8105 -60.9883 -52.2705 -69.7148
c-32.5908 -8.76172 -67.167 6.66699 -81.3828 37.4004c-4.17676 9.0293 -6.87695 19.291 -7.75195 29.208c-4.73633 53.6436 -8.66113 107.358 -12.9111 161.045c-4.33105 54.7002 -8.68555 109.397 -13.167 164.086z" />
    <glyph glyph-name="colon" unicode=":" horiz-adv-x="184" 
d="M90.1973 435.681c47.2803 -0.363281 74.249 -35.6719 74.6748 -72.1074c0.438477 -37.4346 -32.3018 -69.6543 -70.168 -69.8242c-39.7949 -0.180664 -74.7363 31.6846 -74.4463 72.4395c0.197266 38.0234 31.4014 69.7871 69.9395 69.4922zM89.5225 539.929
c-48.3145 2.07129 -71.9443 41.4463 -70.4551 72.8291c0.0917969 40.3164 31.2656 71.1445 71.5146 70.7217c39.7812 -0.416992 70.5928 -32.0293 70.4268 -72.2539c-0.166016 -39.8242 -32.5703 -72.9648 -71.4863 -71.2969z" />
    <glyph glyph-name="semicolon" unicode=";" horiz-adv-x="226" 
d="M178.718 438.992c20.0732 -12.7725 24.4648 -36.1094 27.6172 -62.7412c-3.05273 -12.2031 -5.125 -28.6172 -11.2559 -43.3369c-13.6299 -32.7256 -29.2129 -64.6436 -44.2129 -96.7891c-2.12305 -4.54688 -5.15137 -8.76367 -8.2666 -12.7363
c-22.0615 -28.1328 -59.2646 -36.0713 -90.0518 -19.3672c-29.3516 15.9248 -43.4756 50.6895 -33.2217 83.5342c3.00293 9.61426 7.88867 18.6602 12.1533 27.8545c13.2031 28.4639 26.6445 56.5371 35.9287 86.9395c15.4473 50.5762 69.0312 63.541 111.31 36.6426z
M126.408 539.593c-42.2432 -1.55957 -75.0518 33.3408 -74.7139 72.374c0.348633 40.2246 31.3379 71.5527 71.5928 71.377c39.542 -0.173828 70.7139 -31.8213 71.1963 -72.2871c1.85254 -31.29 -20.8965 -69.7217 -68.0752 -71.4639z" />
    <glyph glyph-name="less" unicode="&#x3c;" horiz-adv-x="483" 
d="M466.586 705.117c9.45996 -28.1328 5.22949 -54.5781 -17.04 -75.7725c-7.99414 -7.60742 -17.6602 -13.6768 -27.1768 -19.4287c-60.8838 -36.8018 -121.957 -73.2842 -182.911 -109.967c-8.40332 -5.05859 -16.4893 -10.6455 -27.3516 -17.6953
c9.03516 -5.85742 15.3809 -10.4258 22.1348 -14.2773c49.4268 -28.1904 98.9893 -56.1387 148.365 -84.4131c9.66211 -5.5332 19.6689 -11.0771 27.8613 -18.4551c39.2588 -35.3555 28.0986 -98.5 -20.5869 -117.814
c-17.7197 -7.03027 -35.8047 -6.49121 -53.5156 0.438477c-6.59766 2.58105 -13.0156 5.77344 -19.1895 9.2666c-88.4463 50.0342 -176.866 100.113 -265.187 150.366c-7.89941 4.49512 -15.7725 9.50293 -22.4482 15.5986c-24.1465 22.0469 -30.25 54.2471 -15.835 83.5449
c10.9463 22.2471 26.0068 40.4658 48.0889 53.5518c97.9141 58.0234 195.301 116.939 292.907 175.48c14.0664 8.43652 28.585 14.9854 45.7334 14.6963c29.9307 -0.503906 56.8281 -17.4053 66.1504 -45.1201z" />
    <glyph glyph-name="equal" unicode="=" horiz-adv-x="507" 
d="M419.816 462.594c37.6201 -2.06641 67.9971 -32.248 68.3438 -68.8418c0.373047 -39.0713 -29.501 -68.0273 -62.2412 -71.2197c-19.2119 -1.87402 -38.4434 -3.69922 -57.7061 -4.86328c-34.4746 -2.08301 -68.9775 -3.69629 -103.473 -5.4248
c-47.6885 -2.38867 -95.3799 -4.70117 -143.069 -7.04688c0.00292969 -0.244141 0.00585938 -0.488281 0.0107422 -0.732422c-11.1768 0 -22.3672 -0.357422 -33.5283 0.0644531c-38.7725 1.46484 -67.7969 29.8496 -69.1025 67.2559
c-1.33301 38.1904 24.6475 68.5771 62.9844 73.0566c16.1406 1.88574 32.3701 3.25684 48.5977 4.09082c54.7871 2.81641 109.599 5.1582 164.389 7.9375c31.4512 1.5957 62.8721 3.80566 94.3203 5.47949c10.1387 0.539062 20.3506 0.801758 30.4746 0.244141z
M74.6523 462.751c-31.6289 6.69238 -53.4814 33.3213 -54.7705 64.6445c-1.30273 31.6348 17.79 59.8848 48.4551 69.7324c10.4746 3.36426 21.7764 4.98047 32.8076 5.65137c95.2725 5.79199 190.56 11.3818 285.874 16.4434
c11.9277 0.631836 24.4805 -0.529297 35.9746 -3.6709c30.1855 -8.24902 49.3809 -34.25 50.0693 -65.208c0.688477 -30.9512 -17.5029 -58.1475 -46.5889 -68.0195c-9.50391 -3.22559 -19.7275 -5.30859 -29.7402 -5.8916
c-82.1074 -4.79004 -164.242 -9.10352 -246.368 -13.5605c-0.0126953 0.197266 -0.0263672 0.395508 -0.0400391 0.592773c-13.1611 -1.02344 -26.3096 -2.68164 -39.4814 -2.88672c-12.0723 -0.1875 -24.4844 -0.304688 -36.1914 2.17285z" />
    <glyph glyph-name="greater" unicode="&#x3e;" horiz-adv-x="513" 
d="M484.324 556.578c28.79 -30.6104 26.6914 -75.2588 -4.96484 -103.015c-6.07227 -5.32422 -12.9883 -9.78809 -19.8809 -14.0586c-99.3145 -61.5244 -198.728 -122.889 -298.018 -184.454c-16.6279 -10.3105 -33.416 -18.957 -53.8906 -18.0127
c-28.0596 1.29492 -48.4873 14.5977 -60.6846 39.2285c-12.2891 24.8125 -10.4307 49.9883 6.71973 71.7842c8.56055 10.8789 20.3115 19.9326 32.124 27.4424c49.7178 31.6074 100.014 62.3076 150.074 93.3779c7.66211 4.75781 15.2051 9.71191 28.2344 18.0527
c-10.415 3.78125 -14.8477 5.76074 -19.4766 7.0166c-52.8643 14.335 -105.782 28.4795 -158.63 42.8848c-9.75781 2.66016 -19.7158 5.29492 -28.8037 9.58984c-33.3955 15.7861 -48.8193 52.3984 -37.3877 87.0547c10.9434 33.1729 47.585 54.5898 82.6719 45.9824
c50.2324 -12.3242 100.047 -26.3496 150.002 -39.79c56.8066 -15.2822 113.408 -31.3613 170.429 -45.793c24.7725 -6.26953 44.4746 -19.209 61.4814 -37.291z" />
    <glyph glyph-name="question" unicode="?" horiz-adv-x="549" 
d="M389.306 868.388c88.8047 -34.8086 131.822 -131.349 98.0459 -220.48c-9.20801 -24.2998 -24.2168 -44.6328 -43.5264 -61.6807c-12.9395 -11.4258 -26.293 -22.4834 -40.2051 -32.6885c-45.0488 -33.0459 -66.4141 -78.0215 -69.1465 -133.066
c-0.856445 -17.2402 -2.32422 -34.5518 -5.09766 -51.5732c-5.72266 -35.1357 -36.1553 -61.7363 -70.0137 -60.1768c-42.4678 1.95605 -65.8936 32.4932 -69.8447 64.3936c-0.373047 3.01758 -0.556641 6.09375 -0.464844 9.13184
c1.41309 46.8682 5.26074 93.4688 20.0391 138.316c19.0391 57.7812 54.6484 103.875 101.969 141.387c11.1494 8.83887 22.5537 17.4053 33.1484 26.8711c4.30273 3.8457 8.10742 9.3457 9.78418 14.8164c3.84082 12.542 -2.13672 24.0469 -14.2334 30.3184
c-15.1709 7.86523 -31.6074 8.48047 -47.6748 5.67676c-29.6953 -5.18555 -56.0156 -17.9414 -76.9521 -40.251c-11.2412 -11.9814 -18.9814 -24.9912 -21.1973 -42.5273c-4.28516 -33.9062 -29.6172 -56.9561 -62.7051 -61.0664
c-27.708 -3.44238 -58.5273 14.1934 -71.9004 41.8545c-7.6582 15.8379 -12.042 32.7451 -7.47559 50.2598c3.82129 14.6572 8.01367 29.4795 14.3125 43.1855c44.7578 97.4131 151.271 153.367 243.188 151.084c25.0811 0.609375 53.0127 -3.22559 79.9512 -13.7842z
M268.081 257.929c41.5391 -0.0615234 72.9648 -33.3086 72.9424 -77.168c1.24316 -32.834 -26.8896 -70.9678 -71.9541 -70.4756c-41.2402 0.450195 -75.417 40.54 -74.1494 77.4414c1.3457 39.1826 33.1914 70.2617 73.1611 70.2021z" />
    <glyph glyph-name="at" unicode="@" horiz-adv-x="998" 
d="M939.634 433.113c6.11426 -11.0488 8.6416 -22.9219 8.19727 -35.1934c-0.327148 -9.05957 -1.55371 -18.3682 -4.17285 -27.0215c-35.4092 -116.996 -93.2246 -220.59 -183.261 -304.73c-48.043 -44.8965 -101.533 -80.4443 -164.404 -102.031
c-63.1963 -21.7002 -126.633 -25.8877 -192.042 -13.124c-145.067 28.3066 -254.536 107.215 -332.086 231.873c-45.2871 72.7959 -60.459 152.021 -49.4102 236.818c12.9121 99.085 44.9736 191.635 94.5449 278.083c31.3203 54.6191 71.8867 100.964 126.85 133.259
c56.2471 33.0488 116.705 52.9785 182.248 51.7686c69.4297 -1.2832 134.927 -20.2539 192.443 -59.252c78.3242 -53.1055 132.678 -123.824 154.356 -218.603c21.4766 -93.8926 15.0684 -183.558 -28.7988 -269.856c-14.8945 -29.3008 -33.8066 -55.5371 -58.7842 -77.1289
c-17.1016 -14.7812 -35.916 -27.1123 -57.8086 -32.9463c-50.3965 -13.4268 -92.043 2.24902 -125.613 40.9121c-8.48145 9.76562 -15.4033 20.8857 -24.0186 32.7256c-10.6514 -9.67383 -20.0576 -18.752 -30.0283 -27.1602
c-22.0615 -18.6025 -46.2373 -32.6123 -75.6133 -36.7744c-37.5576 -5.32129 -70.6621 4.15234 -99.1465 28.5459c-31.5322 27.0029 -48.7285 62.1309 -53.251 103.145c-5.56348 50.4297 6.54492 97.2432 33.54 139.656c35.4453 55.6914 81.4648 101.252 137.723 136.009
c24.6074 15.2031 51.0332 24.3193 80.7744 22.7588c45.7959 -2.4043 78.7188 -40.4385 77.4678 -75.3369c-0.299805 -8.39551 1.36523 -15.6963 7.25488 -22.3828c13.4111 -15.2256 17.3545 -33.7764 18.334 -53.6484c1.75488 -35.6123 7.5293 -70.7109 16.3174 -105.268
c2.23145 -8.77734 5.33496 -17.332 8.88281 -28.6934c4.91309 4.66895 9.07324 7.2168 11.2715 10.9268c28.7148 48.4326 36.1279 100.741 27.5215 155.81c-0.783203 5.01074 -2.4707 9.88086 -3.24023 14.8916c-7.40723 48.2051 -30.7256 87.0322 -66.1133 120.414
c-31.6455 29.8506 -69.0352 46.7275 -110.44 54.4951c-72.7256 13.6445 -133.936 -10.6504 -184.596 -62.7363c-22.8604 -23.5049 -39.0527 -52.0762 -52.916 -81.584c-24.71 -52.5957 -44.3193 -107.149 -54.1875 -164.559
c-9.28613 -54.0205 -8.96387 -107.464 18.7783 -157.325c13.8877 -24.9609 29.6631 -48.6553 49.1377 -69.6035c60.4688 -65.043 133.875 -103.852 223.17 -112.65c52.1416 -5.1377 98.4512 10.2471 142.454 34.9219c26.6426 14.9385 49.8838 34.9541 71.3594 56.8477
c53.4307 54.4746 94.8145 116.498 119.268 189.253c4.85547 14.4434 9.7793 28.8838 15.3428 43.0615c3.69336 9.41113 7.54395 19.042 13.1045 27.3867c27.4346 41.1621 93.2842 41.5791 119.591 -5.95312zM362.27 389.156c19.626 18.9277 27.8018 40.0645 32.9385 63.3906
c-19.1543 -15.3799 -31.6953 -34.6533 -32.9385 -63.3906z" />
    <glyph glyph-name="A" unicode="A" horiz-adv-x="579" 
d="M426.805 141.567c-1.54395 22.2178 -4.56738 44.2061 -10.4336 68.7881c-84.2744 -14.5596 -165.033 -28.5117 -247.14 -42.6953c-1.24902 -13.9775 0.353516 -25.8281 3.20312 -37.4971c7.46875 -30.584 14.9189 -61.1787 22.998 -91.6055
c3.73145 -14.0557 5.50781 -27.6396 1.13672 -41.9492c-8.96094 -29.3242 -28.585 -46.751 -58.4707 -50.8164c-28.7754 -3.91309 -51.7686 7.92969 -67.5703 32.0654c-5.45703 8.33398 -8.90527 18.2217 -12.041 27.8027
c-16.8066 51.3584 -26.9922 104.209 -34.1963 157.655c-5.7168 42.4053 -8.80664 85.0898 -6.54785 127.819c3.49023 66.0039 8.22754 131.943 30.5137 195.083c13.9883 39.6299 32.3203 76.832 60.4375 108.516c33.0293 37.2207 73.3252 60.7246 123.885 63.8955
c25.665 1.6084 50.5742 -2.33691 74.6211 -11.6592c30.7861 -11.9355 57.3965 -30.1895 81.25 -52.8184c32.7695 -31.0879 58.8896 -67.2051 80.8525 -106.471c42.0928 -75.2529 68.1348 -156.187 84.8877 -240.42c9.54297 -47.9805 14.0635 -96.541 17.1514 -145.264
c0.963867 -15.2041 0.955078 -30.2891 -3.51074 -45.335c-9.93164 -33.4541 -40.5771 -52.3057 -71.499 -50.3916c-34.373 2.12793 -60.7832 27.6064 -64.5283 62.249c-2.62109 24.2461 -3.30957 48.6963 -4.99902 73.0479z" />
    <glyph glyph-name="A" unicode="&#xc5;" horiz-adv-x="579" 
d="M426.805 141.567c-1.54395 22.2178 -4.56738 44.2061 -10.4336 68.7881c-84.2744 -14.5596 -165.033 -28.5117 -247.14 -42.6953c-1.24902 -13.9775 0.353516 -25.8281 3.20312 -37.4971c7.46875 -30.584 14.9189 -61.1787 22.998 -91.6055
c3.73145 -14.0557 5.50781 -27.6396 1.13672 -41.9492c-8.96094 -29.3242 -28.585 -46.751 -58.4707 -50.8164c-28.7754 -3.91309 -51.7686 7.92969 -67.5703 32.0654c-5.45703 8.33398 -8.90527 18.2217 -12.041 27.8027
c-16.8066 51.3584 -26.9922 104.209 -34.1963 157.655c-5.7168 42.4053 -8.80664 85.0898 -6.54785 127.819c3.49023 66.0039 8.22754 131.943 30.5137 195.083c13.9883 39.6299 32.3203 76.832 60.4375 108.516c33.0293 37.2207 73.3252 60.7246 123.885 63.8955
c25.665 1.6084 50.5742 -2.33691 74.6211 -11.6592c30.7861 -11.9355 57.3965 -30.1895 81.25 -52.8184c32.7695 -31.0879 58.8896 -67.2051 80.8525 -106.471c42.0928 -75.2529 68.1348 -156.187 84.8877 -240.42c9.54297 -47.9805 14.0635 -96.541 17.1514 -145.264
c0.963867 -15.2041 0.955078 -30.2891 -3.51074 -45.335c-9.93164 -33.4541 -40.5771 -52.3057 -71.499 -50.3916c-34.373 2.12793 -60.7832 27.6064 -64.5283 62.249c-2.62109 24.2461 -3.30957 48.6963 -4.99902 73.0479z" />
    <glyph glyph-name="A" unicode="&#xc4;" horiz-adv-x="579" 
d="M426.805 141.567c-1.54395 22.2178 -4.56738 44.2061 -10.4336 68.7881c-84.2744 -14.5596 -165.033 -28.5117 -247.14 -42.6953c-1.24902 -13.9775 0.353516 -25.8281 3.20312 -37.4971c7.46875 -30.584 14.9189 -61.1787 22.998 -91.6055
c3.73145 -14.0557 5.50781 -27.6396 1.13672 -41.9492c-8.96094 -29.3242 -28.585 -46.751 -58.4707 -50.8164c-28.7754 -3.91309 -51.7686 7.92969 -67.5703 32.0654c-5.45703 8.33398 -8.90527 18.2217 -12.041 27.8027
c-16.8066 51.3584 -26.9922 104.209 -34.1963 157.655c-5.7168 42.4053 -8.80664 85.0898 -6.54785 127.819c3.49023 66.0039 8.22754 131.943 30.5137 195.083c13.9883 39.6299 32.3203 76.832 60.4375 108.516c33.0293 37.2207 73.3252 60.7246 123.885 63.8955
c25.665 1.6084 50.5742 -2.33691 74.6211 -11.6592c30.7861 -11.9355 57.3965 -30.1895 81.25 -52.8184c32.7695 -31.0879 58.8896 -67.2051 80.8525 -106.471c42.0928 -75.2529 68.1348 -156.187 84.8877 -240.42c9.54297 -47.9805 14.0635 -96.541 17.1514 -145.264
c0.963867 -15.2041 0.955078 -30.2891 -3.51074 -45.335c-9.93164 -33.4541 -40.5771 -52.3057 -71.499 -50.3916c-34.373 2.12793 -60.7832 27.6064 -64.5283 62.249c-2.62109 24.2461 -3.30957 48.6963 -4.99902 73.0479z" />
    <glyph glyph-name="A" unicode="&#xc3;" horiz-adv-x="579" 
d="M426.805 141.567c-1.54395 22.2178 -4.56738 44.2061 -10.4336 68.7881c-84.2744 -14.5596 -165.033 -28.5117 -247.14 -42.6953c-1.24902 -13.9775 0.353516 -25.8281 3.20312 -37.4971c7.46875 -30.584 14.9189 -61.1787 22.998 -91.6055
c3.73145 -14.0557 5.50781 -27.6396 1.13672 -41.9492c-8.96094 -29.3242 -28.585 -46.751 -58.4707 -50.8164c-28.7754 -3.91309 -51.7686 7.92969 -67.5703 32.0654c-5.45703 8.33398 -8.90527 18.2217 -12.041 27.8027
c-16.8066 51.3584 -26.9922 104.209 -34.1963 157.655c-5.7168 42.4053 -8.80664 85.0898 -6.54785 127.819c3.49023 66.0039 8.22754 131.943 30.5137 195.083c13.9883 39.6299 32.3203 76.832 60.4375 108.516c33.0293 37.2207 73.3252 60.7246 123.885 63.8955
c25.665 1.6084 50.5742 -2.33691 74.6211 -11.6592c30.7861 -11.9355 57.3965 -30.1895 81.25 -52.8184c32.7695 -31.0879 58.8896 -67.2051 80.8525 -106.471c42.0928 -75.2529 68.1348 -156.187 84.8877 -240.42c9.54297 -47.9805 14.0635 -96.541 17.1514 -145.264
c0.963867 -15.2041 0.955078 -30.2891 -3.51074 -45.335c-9.93164 -33.4541 -40.5771 -52.3057 -71.499 -50.3916c-34.373 2.12793 -60.7832 27.6064 -64.5283 62.249c-2.62109 24.2461 -3.30957 48.6963 -4.99902 73.0479z" />
    <glyph glyph-name="A" unicode="&#xc2;" horiz-adv-x="579" 
d="M426.805 141.567c-1.54395 22.2178 -4.56738 44.2061 -10.4336 68.7881c-84.2744 -14.5596 -165.033 -28.5117 -247.14 -42.6953c-1.24902 -13.9775 0.353516 -25.8281 3.20312 -37.4971c7.46875 -30.584 14.9189 -61.1787 22.998 -91.6055
c3.73145 -14.0557 5.50781 -27.6396 1.13672 -41.9492c-8.96094 -29.3242 -28.585 -46.751 -58.4707 -50.8164c-28.7754 -3.91309 -51.7686 7.92969 -67.5703 32.0654c-5.45703 8.33398 -8.90527 18.2217 -12.041 27.8027
c-16.8066 51.3584 -26.9922 104.209 -34.1963 157.655c-5.7168 42.4053 -8.80664 85.0898 -6.54785 127.819c3.49023 66.0039 8.22754 131.943 30.5137 195.083c13.9883 39.6299 32.3203 76.832 60.4375 108.516c33.0293 37.2207 73.3252 60.7246 123.885 63.8955
c25.665 1.6084 50.5742 -2.33691 74.6211 -11.6592c30.7861 -11.9355 57.3965 -30.1895 81.25 -52.8184c32.7695 -31.0879 58.8896 -67.2051 80.8525 -106.471c42.0928 -75.2529 68.1348 -156.187 84.8877 -240.42c9.54297 -47.9805 14.0635 -96.541 17.1514 -145.264
c0.963867 -15.2041 0.955078 -30.2891 -3.51074 -45.335c-9.93164 -33.4541 -40.5771 -52.3057 -71.499 -50.3916c-34.373 2.12793 -60.7832 27.6064 -64.5283 62.249c-2.62109 24.2461 -3.30957 48.6963 -4.99902 73.0479z" />
    <glyph glyph-name="A" unicode="&#xc1;" horiz-adv-x="579" 
d="M426.805 141.567c-1.54395 22.2178 -4.56738 44.2061 -10.4336 68.7881c-84.2744 -14.5596 -165.033 -28.5117 -247.14 -42.6953c-1.24902 -13.9775 0.353516 -25.8281 3.20312 -37.4971c7.46875 -30.584 14.9189 -61.1787 22.998 -91.6055
c3.73145 -14.0557 5.50781 -27.6396 1.13672 -41.9492c-8.96094 -29.3242 -28.585 -46.751 -58.4707 -50.8164c-28.7754 -3.91309 -51.7686 7.92969 -67.5703 32.0654c-5.45703 8.33398 -8.90527 18.2217 -12.041 27.8027
c-16.8066 51.3584 -26.9922 104.209 -34.1963 157.655c-5.7168 42.4053 -8.80664 85.0898 -6.54785 127.819c3.49023 66.0039 8.22754 131.943 30.5137 195.083c13.9883 39.6299 32.3203 76.832 60.4375 108.516c33.0293 37.2207 73.3252 60.7246 123.885 63.8955
c25.665 1.6084 50.5742 -2.33691 74.6211 -11.6592c30.7861 -11.9355 57.3965 -30.1895 81.25 -52.8184c32.7695 -31.0879 58.8896 -67.2051 80.8525 -106.471c42.0928 -75.2529 68.1348 -156.187 84.8877 -240.42c9.54297 -47.9805 14.0635 -96.541 17.1514 -145.264
c0.963867 -15.2041 0.955078 -30.2891 -3.51074 -45.335c-9.93164 -33.4541 -40.5771 -52.3057 -71.499 -50.3916c-34.373 2.12793 -60.7832 27.6064 -64.5283 62.249c-2.62109 24.2461 -3.30957 48.6963 -4.99902 73.0479z" />
    <glyph glyph-name="A" unicode="&#xc0;" horiz-adv-x="579" 
d="M426.805 141.567c-1.54395 22.2178 -4.56738 44.2061 -10.4336 68.7881c-84.2744 -14.5596 -165.033 -28.5117 -247.14 -42.6953c-1.24902 -13.9775 0.353516 -25.8281 3.20312 -37.4971c7.46875 -30.584 14.9189 -61.1787 22.998 -91.6055
c3.73145 -14.0557 5.50781 -27.6396 1.13672 -41.9492c-8.96094 -29.3242 -28.585 -46.751 -58.4707 -50.8164c-28.7754 -3.91309 -51.7686 7.92969 -67.5703 32.0654c-5.45703 8.33398 -8.90527 18.2217 -12.041 27.8027
c-16.8066 51.3584 -26.9922 104.209 -34.1963 157.655c-5.7168 42.4053 -8.80664 85.0898 -6.54785 127.819c3.49023 66.0039 8.22754 131.943 30.5137 195.083c13.9883 39.6299 32.3203 76.832 60.4375 108.516c33.0293 37.2207 73.3252 60.7246 123.885 63.8955
c25.665 1.6084 50.5742 -2.33691 74.6211 -11.6592c30.7861 -11.9355 57.3965 -30.1895 81.25 -52.8184c32.7695 -31.0879 58.8896 -67.2051 80.8525 -106.471c42.0928 -75.2529 68.1348 -156.187 84.8877 -240.42c9.54297 -47.9805 14.0635 -96.541 17.1514 -145.264
c0.963867 -15.2041 0.955078 -30.2891 -3.51074 -45.335c-9.93164 -33.4541 -40.5771 -52.3057 -71.499 -50.3916c-34.373 2.12793 -60.7832 27.6064 -64.5283 62.249c-2.62109 24.2461 -3.30957 48.6963 -4.99902 73.0479z" />
    <glyph glyph-name="B" unicode="B" horiz-adv-x="547" 
d="M405.729 504.193c-6.06055 -18.1367 -15.2607 -35.2188 -24.2305 -55.5518c11.4238 -4.6582 20.7998 -8.24707 29.9854 -12.2686c35.9453 -15.7344 67.666 -37.3838 91.6777 -68.8174c45.9746 -60.1836 53.6992 -125.838 25.0361 -195.466
c-16.2432 -39.4551 -43.0596 -71.3193 -77.2822 -96.46c-80.6475 -59.248 -170.654 -78.249 -268.337 -58.6328c-18.5322 3.72168 -36.4961 12.5645 -53.4033 21.5332c-22.2402 11.7969 -32.3477 32.874 -36.1279 57.1309
c-4.06836 26.1094 -8.04395 52.2334 -11.957 78.3672c-13.8438 92.4639 -28.0449 184.878 -41.332 277.423c-10.6885 74.4326 -20.9502 148.943 -30.0312 223.586c-4.79688 39.4287 14.3223 69.5439 52.124 82.8057c66.749 23.415 134.75 29.2373 203.427 8.3623
c14.4834 -4.40332 28.7656 -10.1602 42.2578 -17.0303c92.0547 -46.873 132.393 -142.608 98.1934 -244.981z" />
    <glyph glyph-name="C" unicode="C" horiz-adv-x="444" 
d="M15.1748 310.361c-2.85254 20.0791 -4.39355 40.3477 -6.17578 57.166c6.91992 129.91 52.3555 236.575 155.936 314.054c37.2939 27.8965 79.5615 44.9014 125.335 52.1846c16.8965 2.68848 34.5479 2.6748 51.6768 1.43652
c35.4482 -2.5625 62.6553 -31.0059 64.6885 -65.584c2.20508 -37.5029 -20.3809 -67.1162 -57.4375 -74.6885c-8.91602 -1.82227 -18.0879 -2.93262 -27.1816 -3.25977c-28.5625 -1.02148 -53.3096 -11.9814 -75.6758 -28.7744
c-41.4199 -31.0986 -66.8984 -73.125 -81.3574 -122.179c-12.6074 -42.7725 -14.4521 -86.0225 -3.25586 -129.465c6.42871 -24.9404 17.0283 -47.9365 34.1758 -67.3516c32.0674 -36.3096 71.5312 -48.2549 118.178 -34.1904
c9.6709 2.91602 18.8301 7.49023 28.3525 10.9492c16.501 5.99316 32.9297 8.99707 50.5547 3.10938c25.2451 -8.43262 42.2627 -24.8262 48.3662 -50.3105c6.33105 -26.4287 0.28418 -50.9512 -20.6074 -69.4922c-8.95801 -7.94922 -19.7725 -14.4199 -30.7246 -19.4082
c-122.705 -55.8945 -246.293 -12.7666 -315.583 80.5879c-32.166 43.3369 -51.6807 91.9082 -59.2637 145.216z" />
    <glyph glyph-name="C" unicode="&#xc7;" horiz-adv-x="444" 
d="M15.1748 310.361c-2.85254 20.0791 -4.39355 40.3477 -6.17578 57.166c6.91992 129.91 52.3555 236.575 155.936 314.054c37.2939 27.8965 79.5615 44.9014 125.335 52.1846c16.8965 2.68848 34.5479 2.6748 51.6768 1.43652
c35.4482 -2.5625 62.6553 -31.0059 64.6885 -65.584c2.20508 -37.5029 -20.3809 -67.1162 -57.4375 -74.6885c-8.91602 -1.82227 -18.0879 -2.93262 -27.1816 -3.25977c-28.5625 -1.02148 -53.3096 -11.9814 -75.6758 -28.7744
c-41.4199 -31.0986 -66.8984 -73.125 -81.3574 -122.179c-12.6074 -42.7725 -14.4521 -86.0225 -3.25586 -129.465c6.42871 -24.9404 17.0283 -47.9365 34.1758 -67.3516c32.0674 -36.3096 71.5312 -48.2549 118.178 -34.1904
c9.6709 2.91602 18.8301 7.49023 28.3525 10.9492c16.501 5.99316 32.9297 8.99707 50.5547 3.10938c25.2451 -8.43262 42.2627 -24.8262 48.3662 -50.3105c6.33105 -26.4287 0.28418 -50.9512 -20.6074 -69.4922c-8.95801 -7.94922 -19.7725 -14.4199 -30.7246 -19.4082
c-122.705 -55.8945 -246.293 -12.7666 -315.583 80.5879c-32.166 43.3369 -51.6807 91.9082 -59.2637 145.216z" />
    <glyph glyph-name="D" unicode="D" horiz-adv-x="497" 
d="M467.668 475.832c14.0439 -39.5342 21.9287 -80.2949 21 -122.485c0.587891 -150.624 -100.434 -310.908 -288.543 -348.205c-17.8604 -3.54199 -36.2646 -4.57422 -54.4775 -5.99609c-8.01074 -0.625977 -16.3105 -0.108398 -24.2422 1.26172
c-36.1924 6.25098 -58.0713 28.2578 -63.4824 64.3037c-2.86328 19.0742 -5.19434 38.2949 -6.42578 57.5342c-5.06152 79.0957 -9.48047 158.231 -14.3799 237.338c-5.02441 81.1328 -10.3438 162.248 -15.5088 243.372
c-0.646484 10.1387 -1.80371 20.2998 -1.5791 30.4258c0.800781 36.2227 19.9531 61.6953 54.3955 72.1328c9.62793 2.91699 19.6973 5.11621 29.7021 5.93457c171.489 14.0361 312.996 -93.3301 363.541 -235.616z" />
    <glyph glyph-name="E" unicode="E" horiz-adv-x="418" 
d="M187.633 285.812c-4.46094 -22.752 -1.07324 -83.4854 5.94336 -110.526c20.9102 1.9248 42.043 3.62305 63.1162 5.87402c24.2324 2.58887 48.3633 6.29395 72.6396 8.24609c10.9023 0.876953 22.2422 -0.30957 33.0527 -2.33008
c30.457 -5.69336 52.3779 -37.0996 53.3369 -62.9053c1.15625 -31.0742 -14.8604 -58.7168 -43.166 -70.6738c-7.40625 -3.12793 -15.4443 -5.50488 -23.4033 -6.44531c-39.3291 -4.6416 -78.7354 -8.63574 -118.102 -12.9561
c-28.2607 -3.10156 -56.5449 -6.03125 -84.7354 -9.68652c-14.3213 -1.85742 -28.1416 -2.14453 -42.126 2.41797c-25.1562 8.20801 -41.7822 24.4834 -48.6592 50.0371c-2.62695 9.76367 -4.37988 19.876 -5.36816 29.9443
c-2.18555 22.2617 -4.06445 44.5713 -5.30957 66.9033c-4.92285 88.3223 -9.25098 176.678 -14.4121 264.986c-2.72754 46.6787 -6.71875 93.2832 -10.1211 139.922c-0.517578 7.09277 -1.40332 14.1992 -1.31348 21.29c0.414062 32.4521 20.1709 58.8037 51.3291 67.8496
c9.71387 2.82129 19.8555 4.4834 29.9189 5.72852c51.3906 6.3623 102.798 12.5967 154.248 18.4521c13.0967 1.49023 26.3916 2.26953 39.5586 1.92773c37.3252 -0.969727 65.5479 -27.5068 69.1357 -64.1006c3.45215 -35.207 -20.7207 -68.2441 -56.751 -75.9551
c-15.8428 -3.39062 -32.1387 -4.7373 -48.2686 -6.68945c-23.1855 -2.80371 -46.4248 -5.17578 -69.6016 -8.05762c-4.9502 -0.615234 -9.72949 -2.62402 -14.2627 -3.90039c-5.38184 -23.9912 -3.28027 -73.0449 4.66211 -103.859
c8.55762 0.641602 17.4707 1.30762 26.3838 1.97949c20.2539 1.52539 40.4951 3.23145 60.7627 4.54004c34.5078 2.22852 70.7188 -23.3994 73.2295 -66.4971c2.58301 -44.333 -31.1387 -70.8916 -61.8496 -74.7832c-18.1318 -2.29688 -36.3438 -3.96973 -54.499 -6.09863
c-12.002 -1.4082 -23.9668 -3.12988 -35.3691 -4.63379z" />
    <glyph glyph-name="E" unicode="&#xcb;" horiz-adv-x="418" 
d="M187.633 285.812c-4.46094 -22.752 -1.07324 -83.4854 5.94336 -110.526c20.9102 1.9248 42.043 3.62305 63.1162 5.87402c24.2324 2.58887 48.3633 6.29395 72.6396 8.24609c10.9023 0.876953 22.2422 -0.30957 33.0527 -2.33008
c30.457 -5.69336 52.3779 -37.0996 53.3369 -62.9053c1.15625 -31.0742 -14.8604 -58.7168 -43.166 -70.6738c-7.40625 -3.12793 -15.4443 -5.50488 -23.4033 -6.44531c-39.3291 -4.6416 -78.7354 -8.63574 -118.102 -12.9561
c-28.2607 -3.10156 -56.5449 -6.03125 -84.7354 -9.68652c-14.3213 -1.85742 -28.1416 -2.14453 -42.126 2.41797c-25.1562 8.20801 -41.7822 24.4834 -48.6592 50.0371c-2.62695 9.76367 -4.37988 19.876 -5.36816 29.9443
c-2.18555 22.2617 -4.06445 44.5713 -5.30957 66.9033c-4.92285 88.3223 -9.25098 176.678 -14.4121 264.986c-2.72754 46.6787 -6.71875 93.2832 -10.1211 139.922c-0.517578 7.09277 -1.40332 14.1992 -1.31348 21.29c0.414062 32.4521 20.1709 58.8037 51.3291 67.8496
c9.71387 2.82129 19.8555 4.4834 29.9189 5.72852c51.3906 6.3623 102.798 12.5967 154.248 18.4521c13.0967 1.49023 26.3916 2.26953 39.5586 1.92773c37.3252 -0.969727 65.5479 -27.5068 69.1357 -64.1006c3.45215 -35.207 -20.7207 -68.2441 -56.751 -75.9551
c-15.8428 -3.39062 -32.1387 -4.7373 -48.2686 -6.68945c-23.1855 -2.80371 -46.4248 -5.17578 -69.6016 -8.05762c-4.9502 -0.615234 -9.72949 -2.62402 -14.2627 -3.90039c-5.38184 -23.9912 -3.28027 -73.0449 4.66211 -103.859
c8.55762 0.641602 17.4707 1.30762 26.3838 1.97949c20.2539 1.52539 40.4951 3.23145 60.7627 4.54004c34.5078 2.22852 70.7188 -23.3994 73.2295 -66.4971c2.58301 -44.333 -31.1387 -70.8916 -61.8496 -74.7832c-18.1318 -2.29688 -36.3438 -3.96973 -54.499 -6.09863
c-12.002 -1.4082 -23.9668 -3.12988 -35.3691 -4.63379z" />
    <glyph glyph-name="E" unicode="&#xca;" horiz-adv-x="418" 
d="M187.633 285.812c-4.46094 -22.752 -1.07324 -83.4854 5.94336 -110.526c20.9102 1.9248 42.043 3.62305 63.1162 5.87402c24.2324 2.58887 48.3633 6.29395 72.6396 8.24609c10.9023 0.876953 22.2422 -0.30957 33.0527 -2.33008
c30.457 -5.69336 52.3779 -37.0996 53.3369 -62.9053c1.15625 -31.0742 -14.8604 -58.7168 -43.166 -70.6738c-7.40625 -3.12793 -15.4443 -5.50488 -23.4033 -6.44531c-39.3291 -4.6416 -78.7354 -8.63574 -118.102 -12.9561
c-28.2607 -3.10156 -56.5449 -6.03125 -84.7354 -9.68652c-14.3213 -1.85742 -28.1416 -2.14453 -42.126 2.41797c-25.1562 8.20801 -41.7822 24.4834 -48.6592 50.0371c-2.62695 9.76367 -4.37988 19.876 -5.36816 29.9443
c-2.18555 22.2617 -4.06445 44.5713 -5.30957 66.9033c-4.92285 88.3223 -9.25098 176.678 -14.4121 264.986c-2.72754 46.6787 -6.71875 93.2832 -10.1211 139.922c-0.517578 7.09277 -1.40332 14.1992 -1.31348 21.29c0.414062 32.4521 20.1709 58.8037 51.3291 67.8496
c9.71387 2.82129 19.8555 4.4834 29.9189 5.72852c51.3906 6.3623 102.798 12.5967 154.248 18.4521c13.0967 1.49023 26.3916 2.26953 39.5586 1.92773c37.3252 -0.969727 65.5479 -27.5068 69.1357 -64.1006c3.45215 -35.207 -20.7207 -68.2441 -56.751 -75.9551
c-15.8428 -3.39062 -32.1387 -4.7373 -48.2686 -6.68945c-23.1855 -2.80371 -46.4248 -5.17578 -69.6016 -8.05762c-4.9502 -0.615234 -9.72949 -2.62402 -14.2627 -3.90039c-5.38184 -23.9912 -3.28027 -73.0449 4.66211 -103.859
c8.55762 0.641602 17.4707 1.30762 26.3838 1.97949c20.2539 1.52539 40.4951 3.23145 60.7627 4.54004c34.5078 2.22852 70.7188 -23.3994 73.2295 -66.4971c2.58301 -44.333 -31.1387 -70.8916 -61.8496 -74.7832c-18.1318 -2.29688 -36.3438 -3.96973 -54.499 -6.09863
c-12.002 -1.4082 -23.9668 -3.12988 -35.3691 -4.63379z" />
    <glyph glyph-name="E" unicode="&#xc9;" horiz-adv-x="418" 
d="M187.633 285.812c-4.46094 -22.752 -1.07324 -83.4854 5.94336 -110.526c20.9102 1.9248 42.043 3.62305 63.1162 5.87402c24.2324 2.58887 48.3633 6.29395 72.6396 8.24609c10.9023 0.876953 22.2422 -0.30957 33.0527 -2.33008
c30.457 -5.69336 52.3779 -37.0996 53.3369 -62.9053c1.15625 -31.0742 -14.8604 -58.7168 -43.166 -70.6738c-7.40625 -3.12793 -15.4443 -5.50488 -23.4033 -6.44531c-39.3291 -4.6416 -78.7354 -8.63574 -118.102 -12.9561
c-28.2607 -3.10156 -56.5449 -6.03125 -84.7354 -9.68652c-14.3213 -1.85742 -28.1416 -2.14453 -42.126 2.41797c-25.1562 8.20801 -41.7822 24.4834 -48.6592 50.0371c-2.62695 9.76367 -4.37988 19.876 -5.36816 29.9443
c-2.18555 22.2617 -4.06445 44.5713 -5.30957 66.9033c-4.92285 88.3223 -9.25098 176.678 -14.4121 264.986c-2.72754 46.6787 -6.71875 93.2832 -10.1211 139.922c-0.517578 7.09277 -1.40332 14.1992 -1.31348 21.29c0.414062 32.4521 20.1709 58.8037 51.3291 67.8496
c9.71387 2.82129 19.8555 4.4834 29.9189 5.72852c51.3906 6.3623 102.798 12.5967 154.248 18.4521c13.0967 1.49023 26.3916 2.26953 39.5586 1.92773c37.3252 -0.969727 65.5479 -27.5068 69.1357 -64.1006c3.45215 -35.207 -20.7207 -68.2441 -56.751 -75.9551
c-15.8428 -3.39062 -32.1387 -4.7373 -48.2686 -6.68945c-23.1855 -2.80371 -46.4248 -5.17578 -69.6016 -8.05762c-4.9502 -0.615234 -9.72949 -2.62402 -14.2627 -3.90039c-5.38184 -23.9912 -3.28027 -73.0449 4.66211 -103.859
c8.55762 0.641602 17.4707 1.30762 26.3838 1.97949c20.2539 1.52539 40.4951 3.23145 60.7627 4.54004c34.5078 2.22852 70.7188 -23.3994 73.2295 -66.4971c2.58301 -44.333 -31.1387 -70.8916 -61.8496 -74.7832c-18.1318 -2.29688 -36.3438 -3.96973 -54.499 -6.09863
c-12.002 -1.4082 -23.9668 -3.12988 -35.3691 -4.63379z" />
    <glyph glyph-name="E" unicode="&#xc8;" horiz-adv-x="418" 
d="M187.633 285.812c-4.46094 -22.752 -1.07324 -83.4854 5.94336 -110.526c20.9102 1.9248 42.043 3.62305 63.1162 5.87402c24.2324 2.58887 48.3633 6.29395 72.6396 8.24609c10.9023 0.876953 22.2422 -0.30957 33.0527 -2.33008
c30.457 -5.69336 52.3779 -37.0996 53.3369 -62.9053c1.15625 -31.0742 -14.8604 -58.7168 -43.166 -70.6738c-7.40625 -3.12793 -15.4443 -5.50488 -23.4033 -6.44531c-39.3291 -4.6416 -78.7354 -8.63574 -118.102 -12.9561
c-28.2607 -3.10156 -56.5449 -6.03125 -84.7354 -9.68652c-14.3213 -1.85742 -28.1416 -2.14453 -42.126 2.41797c-25.1562 8.20801 -41.7822 24.4834 -48.6592 50.0371c-2.62695 9.76367 -4.37988 19.876 -5.36816 29.9443
c-2.18555 22.2617 -4.06445 44.5713 -5.30957 66.9033c-4.92285 88.3223 -9.25098 176.678 -14.4121 264.986c-2.72754 46.6787 -6.71875 93.2832 -10.1211 139.922c-0.517578 7.09277 -1.40332 14.1992 -1.31348 21.29c0.414062 32.4521 20.1709 58.8037 51.3291 67.8496
c9.71387 2.82129 19.8555 4.4834 29.9189 5.72852c51.3906 6.3623 102.798 12.5967 154.248 18.4521c13.0967 1.49023 26.3916 2.26953 39.5586 1.92773c37.3252 -0.969727 65.5479 -27.5068 69.1357 -64.1006c3.45215 -35.207 -20.7207 -68.2441 -56.751 -75.9551
c-15.8428 -3.39062 -32.1387 -4.7373 -48.2686 -6.68945c-23.1855 -2.80371 -46.4248 -5.17578 -69.6016 -8.05762c-4.9502 -0.615234 -9.72949 -2.62402 -14.2627 -3.90039c-5.38184 -23.9912 -3.28027 -73.0449 4.66211 -103.859
c8.55762 0.641602 17.4707 1.30762 26.3838 1.97949c20.2539 1.52539 40.4951 3.23145 60.7627 4.54004c34.5078 2.22852 70.7188 -23.3994 73.2295 -66.4971c2.58301 -44.333 -31.1387 -70.8916 -61.8496 -74.7832c-18.1318 -2.29688 -36.3438 -3.96973 -54.499 -6.09863
c-12.002 -1.4082 -23.9668 -3.12988 -35.3691 -4.63379z" />
    <glyph glyph-name="F" unicode="F" horiz-adv-x="438" 
d="M186.806 522.984c-3.84766 -0.160156 -7.65332 -1.38574 -12.877 -2.38281c-2.54785 -35.1611 0.669922 -69.334 0.0390625 -102.192c8.88281 -9.02832 18.5703 -6.15527 27.3125 -6.72461c30.3887 -1.97949 60.9854 -1.97754 91.1768 -5.51465
c41.541 -4.86914 67.4424 -42.5264 59.7939 -83.5908c-5.72852 -30.7549 -31.2891 -54.5625 -63.2432 -56.4258c-22.251 -1.29785 -44.6582 0.131836 -66.9961 0.269531c-13.0752 0.0810547 -26.1504 0.015625 -38.0908 0.015625
c-8.6123 -9.00684 -5.9834 -18.5527 -5.875 -27.2676c0.658203 -52.8389 1.73926 -105.673 2.59277 -158.51c0.130859 -8.12402 0.366211 -16.3057 -0.381836 -24.373c-3.26074 -35.166 -31.4756 -62.9277 -65.5742 -64.9375
c-36.8945 -2.17383 -67.7764 21.1875 -74.875 57.4668c-2.13184 10.8945 -2.87305 22.1777 -3.11914 33.3076c-1.36523 61.9746 -2.29199 123.959 -3.53711 185.937c-1.85547 92.4033 -3.87793 184.802 -5.76074 277.203c-0.30957 15.2393 -0.442383 30.4844 -0.375 45.7266
c0.194336 44.7617 37.2344 70.8955 68.5029 71.9131c32.4707 1.05664 64.8926 3.56152 97.3555 4.9541c54.7842 2.34863 109.584 4.31836 164.376 6.44922c13.291 0.516602 26.2559 -0.452148 38.8467 -5.59277c28.4219 -11.6045 47.3438 -39.792 45.8408 -69.127
c-1.53516 -29.9639 -22.1768 -56.8018 -51.7148 -64.5615c-13.5889 -3.57129 -27.9902 -4.83008 -42.0996 -5.49121c-53.7559 -2.52148 -107.546 -4.33887 -161.317 -6.55078z" />
    <glyph glyph-name="G" unicode="G" horiz-adv-x="549" 
d="M348.011 174.502c10.1416 17.457 20.1846 35.1182 25.8955 59.666c-13.9336 -1.68945 -23.9004 -2.58789 -33.7607 -4.16211c-17.9316 -2.86328 -34.6445 0.876953 -49.5205 10.54c-24.29 15.7773 -35.3779 38.7236 -32.2314 67.6797
c3.00293 27.6533 17.9814 47.9238 43.4629 57.7578c16.7881 6.47852 35.2588 9.97168 53.2676 11.623c38.4297 3.52539 77.0518 4.93652 115.59 7.31152c13.6162 0.838867 26.3691 -2.35156 38.0498 -8.91602c22.9521 -12.8984 36.1494 -32.4941 36.6621 -59.168
c0.211914 -11.0762 -0.546875 -22.543 -3.23047 -33.2383c-12.875 -51.3145 -28.9648 -101.617 -52.2734 -149.265c-18.8564 -38.5459 -42.1416 -74.2129 -72.0029 -105.29c-20.5518 -21.3887 -43.4951 -39.6416 -69.6104 -53.9141
c-84.2871 -46.0664 -176.932 -30.4355 -242.534 37.4121c-22.8486 23.6299 -40.2188 50.9824 -54.0273 80.6943c-19.0312 40.9473 -30.7529 84.2061 -35.2314 128.831c-12.7285 126.828 8.50098 247.14 73.9258 357.938c23.4609 39.7324 52.6631 74.7168 89.8926 102.522
c45.7715 34.1855 96.5605 51.4072 154.048 44.6963c49.6475 -5.7959 91.1201 -28.4551 123.052 -66.3135c32.2393 -38.2236 18.542 -92.9609 -26.4326 -111.713c-24.3789 -10.1641 -47.7783 -6.84375 -69.3926 7.95117c-7.51465 5.14355 -13.9736 11.8086 -21.335 17.2061
c-14.9648 10.9756 -31.5127 14.8184 -48.6855 6.41211c-11.7285 -5.73926 -23.3379 -12.4502 -33.4258 -20.6611c-19.9072 -16.2012 -34.9531 -36.8242 -47.5078 -59.1016c-27.8135 -49.3516 -43.5244 -102.537 -50.5225 -158.65
c-5.97949 -47.9297 -4.35742 -95.3467 6.64941 -142.361c5.82227 -24.874 14.5732 -48.6621 28.8584 -70.0703c29.0283 -43.5049 61.1826 -48.5674 102.111 -16.1523c21.0488 16.6709 36.9141 37.7705 50.2598 60.7354z" />
    <glyph glyph-name="H" unicode="H" horiz-adv-x="499" 
d="M177.78 443.618c0.838867 -9.97949 2.94824 -19.8604 5.05566 -33.6045c44.5068 5.76562 86.0049 4.37012 127.639 8.03223c0.860352 7.57422 2.14453 12.541 1.87109 17.4209c-3.5293 62.9678 -7.52148 125.909 -10.79 188.889
c-0.730469 14.0742 -1.00586 28.6611 1.80859 42.332c6.31543 30.6738 32.0762 52.3037 61.75 54.4521c32.793 2.375 61.0469 -14.3096 72.6709 -44.167c3.62012 -9.29688 5.70605 -19.5986 6.35352 -29.5791c4.67773 -72.0674 8.67188 -144.181 13.1484 -216.262
c5.10742 -82.2324 10.5322 -164.444 15.7344 -246.671c1.92578 -30.4512 3.75391 -60.9121 5.33301 -91.3828c0.74707 -14.4111 -1.59473 -28.3809 -8.17871 -41.4268c-14.7842 -29.2949 -46.6465 -44.5127 -79.2861 -37.8672
c-29.3779 5.98047 -52.999 32.4697 -55.8428 64.8457c-2.93555 33.4277 -4.30273 66.9932 -6.49121 100.49c-1.98242 30.3535 -4.14355 60.6953 -6.30664 92.1992c-22.2676 5.87109 -43.1348 -1.19434 -63.9639 -1.15332
c-20.1572 0.0400391 -40.3193 -1.31348 -59.5186 -2.02051c-7.23145 -10.3242 -4.47168 -19.667 -3.78125 -28.3867c2.73242 -34.4697 6.20898 -68.8799 9.10059 -103.339c1.18945 -14.1777 2.54883 -28.4473 2.17578 -42.6309
c-0.994141 -37.8096 -27.5781 -66.5605 -63.4756 -69.8135c-37.417 -3.39062 -68.0059 18.0801 -77.1836 54.543c-1.97754 7.86133 -3.39355 15.9639 -4.05664 24.0391c-4.82812 58.792 -9.19922 117.622 -14.1035 176.409
c-4.98828 59.7988 -10.5078 119.553 -15.6338 179.341c-4.69043 54.7217 -9.29199 109.451 -13.6387 164.2c-0.963867 12.1465 -1.59473 24.4463 -0.829102 36.5791c2.19629 34.835 29.3242 62.4268 64.4502 66.5488c32.5127 3.81543 67.126 -20.4336 75.0908 -54.2432
c3.70703 -15.7354 4.83594 -32.1602 6.20898 -48.3525c5.07324 -59.792 9.66113 -119.625 14.6895 -179.422z" />
    <glyph glyph-name="I" unicode="I" horiz-adv-x="203" 
d="M173.131 403.51c0.189453 -0.00292969 0.381836 -0.00390625 0.574219 -0.00878906c-1.7334 -78.2529 -3.17676 -156.514 -5.33008 -234.754c-1.02832 -37.3545 -21.1641 -62.8311 -54.7031 -71.5996c-36.877 -9.64062 -75.7363 12.5986 -85.0742 49.7764
c-2.92773 11.6592 -3.77832 24.1602 -3.56445 36.2393c2.24316 127.042 4.89258 254.076 7.43848 381.114c0.549805 27.4395 0.341797 54.9248 1.9209 82.3047c1.66016 28.7617 16.3838 49.8594 42.667 61.8291c40.3008 18.3555 88.1689 -5.64648 97.333 -49.0176
c2.49219 -11.792 2.88477 -24.2314 2.70605 -36.3525c-1.0752 -73.1807 -2.59668 -146.355 -3.96777 -219.531z" />
    <glyph glyph-name="I" unicode="&#xcf;" horiz-adv-x="203" 
d="M173.131 403.51c0.189453 -0.00292969 0.381836 -0.00390625 0.574219 -0.00878906c-1.7334 -78.2529 -3.17676 -156.514 -5.33008 -234.754c-1.02832 -37.3545 -21.1641 -62.8311 -54.7031 -71.5996c-36.877 -9.64062 -75.7363 12.5986 -85.0742 49.7764
c-2.92773 11.6592 -3.77832 24.1602 -3.56445 36.2393c2.24316 127.042 4.89258 254.076 7.43848 381.114c0.549805 27.4395 0.341797 54.9248 1.9209 82.3047c1.66016 28.7617 16.3838 49.8594 42.667 61.8291c40.3008 18.3555 88.1689 -5.64648 97.333 -49.0176
c2.49219 -11.792 2.88477 -24.2314 2.70605 -36.3525c-1.0752 -73.1807 -2.59668 -146.355 -3.96777 -219.531z" />
    <glyph glyph-name="I" unicode="&#xce;" horiz-adv-x="203" 
d="M173.131 403.51c0.189453 -0.00292969 0.381836 -0.00390625 0.574219 -0.00878906c-1.7334 -78.2529 -3.17676 -156.514 -5.33008 -234.754c-1.02832 -37.3545 -21.1641 -62.8311 -54.7031 -71.5996c-36.877 -9.64062 -75.7363 12.5986 -85.0742 49.7764
c-2.92773 11.6592 -3.77832 24.1602 -3.56445 36.2393c2.24316 127.042 4.89258 254.076 7.43848 381.114c0.549805 27.4395 0.341797 54.9248 1.9209 82.3047c1.66016 28.7617 16.3838 49.8594 42.667 61.8291c40.3008 18.3555 88.1689 -5.64648 97.333 -49.0176
c2.49219 -11.792 2.88477 -24.2314 2.70605 -36.3525c-1.0752 -73.1807 -2.59668 -146.355 -3.96777 -219.531z" />
    <glyph glyph-name="I" unicode="&#xcd;" horiz-adv-x="203" 
d="M173.131 403.51c0.189453 -0.00292969 0.381836 -0.00390625 0.574219 -0.00878906c-1.7334 -78.2529 -3.17676 -156.514 -5.33008 -234.754c-1.02832 -37.3545 -21.1641 -62.8311 -54.7031 -71.5996c-36.877 -9.64062 -75.7363 12.5986 -85.0742 49.7764
c-2.92773 11.6592 -3.77832 24.1602 -3.56445 36.2393c2.24316 127.042 4.89258 254.076 7.43848 381.114c0.549805 27.4395 0.341797 54.9248 1.9209 82.3047c1.66016 28.7617 16.3838 49.8594 42.667 61.8291c40.3008 18.3555 88.1689 -5.64648 97.333 -49.0176
c2.49219 -11.792 2.88477 -24.2314 2.70605 -36.3525c-1.0752 -73.1807 -2.59668 -146.355 -3.96777 -219.531z" />
    <glyph glyph-name="I" unicode="&#xcc;" horiz-adv-x="203" 
d="M173.131 403.51c0.189453 -0.00292969 0.381836 -0.00390625 0.574219 -0.00878906c-1.7334 -78.2529 -3.17676 -156.514 -5.33008 -234.754c-1.02832 -37.3545 -21.1641 -62.8311 -54.7031 -71.5996c-36.877 -9.64062 -75.7363 12.5986 -85.0742 49.7764
c-2.92773 11.6592 -3.77832 24.1602 -3.56445 36.2393c2.24316 127.042 4.89258 254.076 7.43848 381.114c0.549805 27.4395 0.341797 54.9248 1.9209 82.3047c1.66016 28.7617 16.3838 49.8594 42.667 61.8291c40.3008 18.3555 88.1689 -5.64648 97.333 -49.0176
c2.49219 -11.792 2.88477 -24.2314 2.70605 -36.3525c-1.0752 -73.1807 -2.59668 -146.355 -3.96777 -219.531z" />
    <glyph glyph-name="J" unicode="J" horiz-adv-x="524" 
d="M437.52 546.438c-14.002 -0.884766 -28.1621 0.262695 -43.8398 -2.18066c1.36035 -9.46289 1.87305 -17.3457 3.67871 -24.9199c23.3779 -98.0713 27.8066 -197.053 12.0293 -296.525c-7.6582 -48.2793 -21.7598 -95.042 -45.8311 -138.118
c-15.0029 -26.8486 -33.2236 -51.2305 -58.6406 -69.2109c-50.5371 -35.7529 -103.215 -38.4717 -157.472 -8.94141c-22.627 12.3145 -41.0098 29.7314 -57.2783 49.5312c-26.0957 31.7588 -44.6084 67.8271 -59.335 105.883
c-12.4736 32.2354 -22.0166 65.3789 -28.4619 99.4229c-3.1709 16.75 -0.838867 32.5098 6.76562 47.3135c12.6494 24.626 33.4746 38.2559 60.916 39.1543c28.8213 0.944336 51.0225 -12.4668 64.8066 -37.7236c5.23828 -9.60059 7.87012 -20.8018 10.6406 -31.543
c9.15039 -35.4824 19.6523 -70.4453 37.1367 -102.878c11.4473 -21.2324 17.0215 -27.5527 36.4736 -42.2119c3.92676 3.57422 9.70117 6.63965 12.0977 11.4062c8.62305 17.1514 18.4072 34.2393 23.4795 52.5381c7.56348 27.2881 13.8027 55.3584 16.5459 83.4932
c8.17285 83.8301 0.600586 166.371 -26.1748 246.672c-1.28027 3.83984 -2.88086 7.57715 -4.45508 11.3115c-0.366211 0.869141 -1.2334 1.52539 -3.2207 3.88086c-5.41895 0.482422 -12.3145 1.5166 -19.2266 1.63086
c-17.2646 0.289062 -34.6074 -0.830078 -51.791 0.402344c-36.5928 2.62402 -64.918 30.9414 -67.1904 67.0332c-2.19922 34.9551 21.8066 66.8691 55.7725 73.4258c8.93164 1.72461 18.0469 3.41797 27.0918 3.49121c90.4131 0.726562 180.829 1.03516 271.242 1.68555
c12.4678 0.0898438 24.251 -2.12012 35.4404 -7.36133c27.6318 -12.9473 43.6533 -41.5352 40.6279 -72.1348c-2.81445 -28.46 -23.9648 -53.6172 -52.6035 -60.3223c-12.7129 -2.97656 -26.0977 -3.37793 -39.2246 -4.2041z" />
    <glyph glyph-name="K" unicode="K" horiz-adv-x="495" 
d="M385.546 475.783c-5.04785 -8.7998 -10.376 -17.4521 -17.0742 -28.6885c45.7607 -45.5947 63.1738 -103.171 79.0137 -161.072c20.7197 -75.7402 31.0996 -153.279 35.3701 -231.606c0.65625 -12.043 0.0712891 -24.5381 -2.43457 -36.292
c-6.4834 -30.3994 -32.1133 -52.1758 -61.8379 -54.3047c-32.9688 -2.36133 -61.5029 14.083 -72.5312 44.0674c-4.4502 12.0977 -5.89551 25.668 -6.67578 38.6885c-4.50684 75.3311 -15.3994 149.578 -36.7109 222.065c-4.85547 16.5166 -11.3584 32.582 -17.7822 48.582
c-2.12402 5.29102 -6.38379 9.72461 -10.2734 15.4395c-26.3369 -17.6113 -51.4287 -34.3916 -78.2754 -52.3447c0.444336 -21.8018 2.45898 -44.8672 4.82617 -67.9219c4.87988 -47.5186 10.2529 -94.999 14.1719 -142.599
c0.96875 -11.7695 -1.125 -24.501 -4.82129 -35.8047c-9.38672 -28.71 -34.6191 -45.5391 -64.791 -46.5244c-34.4678 -1.12598 -57.8799 20.4238 -67.2803 43.3945c-3.41992 8.35547 -5.7168 17.499 -6.67578 26.4814c-4.63672 43.458 -8.60742 86.9873 -12.8828 130.483
c-7.45215 75.8643 -15.0059 151.718 -22.4131 227.586c-4.93945 50.5811 -9.68457 101.181 -14.5439 151.77c-1.94434 20.2334 -4.61719 40.4258 -5.69434 60.7041c-0.583008 11.0059 -0.189453 22.6104 2.68359 33.1475c8.2793 30.376 37.1562 51.5898 67.9775 51.6787
c30.5732 0.0869141 59.6572 -21.375 68.5234 -51.2812c2.58398 -8.71973 4.10547 -17.8848 4.99023 -26.9551c4.93359 -50.5791 9.4834 -101.195 14.2588 -151.79c1.02148 -10.8223 0.349609 -22.1211 7.78613 -33.5586c5.47363 4.73145 10.3506 8.20312 14.3281 12.5059
c33.3408 36.0654 60.9941 76.0303 81.9521 120.55c9.56348 20.3164 17.2412 41.2109 20.6943 63.5234c1.08789 7.02832 2.11719 14.1367 4.08105 20.9473c9.26953 32.1514 42.3779 55.374 73.8574 52.1426c36.5391 -3.75098 63.7627 -32.2119 65.7607 -68.4668
c1.25098 -22.709 -3.62988 -44.4473 -9.83398 -66.0068c-11.0283 -38.3271 -27.9688 -74.0645 -47.7432 -108.54z" />
    <glyph glyph-name="L" unicode="L" horiz-adv-x="422" 
d="M185.771 302.804c0.807617 -9.88574 2.875 -19.6709 4.61426 -31.167c21.7666 -0.615234 41.8047 0.831055 61.916 2.96777c30.3076 3.21777 60.6475 6.50098 91.0605 8.15234c11.8457 0.642578 24.4609 -1.44043 35.7979 -5.13086
c27.7705 -9.04199 47.4287 -35.9756 47.0791 -64.8828c-0.360352 -29.9062 -14.1797 -52.8047 -41.5898 -65.7764c-9.00488 -4.26074 -19.2939 -6.98438 -29.2275 -7.90332c-52.6045 -4.86914 -105.287 -8.91992 -157.938 -13.2969
c-23.2871 -1.93555 -46.5342 -4.70898 -69.8594 -5.64355c-10.9004 -0.436523 -22.5186 0.884766 -32.8066 4.37305c-29.8926 10.1367 -48.9941 36.2568 -47.4609 67.3984c1.75977 35.751 -3.10645 70.9961 -5.2207 106.406
c-4.60645 77.1377 -11.0684 154.165 -16.748 231.24c-2.24219 30.4258 -4.49219 60.8516 -6.58887 91.2871c-0.558594 8.11133 -0.704102 16.2598 -0.795898 24.3926c-0.362305 32.0947 23.6758 66.2803 67.2363 69.9258c35.9297 3.00879 69.0127 -24.9619 74.4365 -62.4902
c2.32422 -16.0889 3.65723 -32.3486 4.81348 -48.5762c4.91309 -68.9756 9.5625 -137.97 14.3721 -206.953c2.19336 -31.4482 4.34961 -62.9033 6.90918 -94.3232z" />
    <glyph glyph-name="M" unicode="M" horiz-adv-x="738" 
d="M352.835 400.057c4.33301 -9.00488 9.16797 -17.7686 15.3555 -29.6963c6.32422 11.6943 11.2988 20.0947 15.5322 28.8535c29.1807 60.3691 58.1748 120.829 87.3115 181.22c4.85352 10.0605 9.60449 20.2217 15.2598 29.8301
c14.9551 25.4082 58.9551 51.1689 88.3037 53.3838c41.1162 3.10352 70.0293 -25.0596 78.0459 -54.9316c1.84375 -6.86719 3.49023 -13.8223 4.64648 -20.833c14.7246 -89.2158 29.3359 -178.45 43.9902 -267.678c7.40918 -45.1152 15.0459 -90.1934 22.1475 -135.355
c2.04492 -13.0078 3.8291 -26.2744 3.58887 -39.3818c-0.673828 -37.0352 -25.5049 -65.3203 -62.1016 -72.3125c-31.3359 -5.9873 -65.5264 12.2305 -79.2725 43.8076c-5.19727 11.9404 -8.20801 25.1191 -10.377 38.043
c-11.1055 66.1289 -21.5977 132.36 -32.3623 198.546c-0.479492 2.95215 -1.53906 5.80957 -2.29785 8.5957c-7.07031 1.625 -8.74316 -3.40332 -10.958 -7.97949c-25.6768 -53.0381 -51.3984 -106.054 -77.1182 -159.071
c-3.5459 -7.30957 -6.86328 -14.7471 -10.7598 -21.8662c-28.333 -51.7646 -85.627 -50.3643 -120.272 -24.4844c-20.7617 15.5098 -35.7822 35.7881 -46.5498 59.3633c-19.8379 43.4268 -39.7764 86.8066 -59.9463 130.08
c-4.60645 9.88184 -7.50195 20.9834 -17.7031 29.6367c-8.9834 -20.9268 -9.89551 -42.292 -14.0791 -62.7852c-8.53125 -41.8018 -16.0039 -83.8193 -24.085 -125.715c-1.33789 -6.94043 -2.90625 -13.9629 -5.45801 -20.5225
c-13.958 -35.8867 -49.2139 -55.041 -85.4326 -46.7754c-38.1123 8.69629 -62.9141 42.1094 -58.8008 80.8359c1.82031 17.1348 5.77734 34.0508 8.97559 51.0264c22.001 116.805 44.4551 233.528 65.7949 350.454c4.86035 26.627 17.4961 47.2412 37.6553 64.0908
c36.6768 30.6562 87.7539 23.0811 113.836 -17.1523c5.49707 -8.47949 9.69531 -17.8389 14.0986 -26.9824c34.3857 -71.3936 68.6465 -142.849 103.032 -214.244z" />
    <glyph glyph-name="N" unicode="N" horiz-adv-x="491" 
d="M318.714 385.988c2.04395 0.600586 4.09668 1.2041 6.14453 1.80273c0 9.97656 0.0429688 19.9541 -0.0078125 29.9316c-0.267578 52.8662 -0.792969 105.733 -0.660156 158.598c0.0302734 12.0596 0.569336 24.6152 3.88184 36.0713
c8.97559 31.0303 38.7119 51.6211 68.7891 49.457c31.084 -2.2373 56.6582 -25.3789 62.499 -57.3145c1.63281 -8.92871 2.04785 -18.1738 2.12109 -27.2812c0.942383 -117.928 1.72559 -235.855 2.54004 -353.784c0.154297 -22.3662 0.311523 -44.7305 0.369141 -67.0967
c0.0458984 -18.1855 -6.70801 -33.6953 -19.1201 -46.7598c-21.834 -22.9814 -57.2354 -28.5801 -83.6543 -11.3584c-19.4766 12.6963 -37.3477 27.2822 -50.4746 47.7285c-39.5264 61.5576 -80.292 122.321 -120.665 183.335
c-5.48438 8.28906 -11.4854 16.2383 -16.918 23.8828c-8.51465 -2.61816 -6.96777 -8.375 -6.87012 -12.9756c0.821289 -38.6133 1.97852 -77.2188 2.81836 -115.832c0.68457 -31.5049 1.03418 -63.0195 1.60547 -94.5273
c0.222656 -12.3115 -0.96582 -24.2578 -6.13379 -35.7129c-12.7666 -28.293 -41.8643 -44.9619 -71.5703 -40.6445c-29.9092 4.34473 -53.582 28.1084 -57.2793 58.8301c-1.94141 16.1162 -2.74512 32.4326 -3.02637 48.6758
c-1.44336 83.3477 -2.35059 166.705 -3.83984 250.053c-1.05371 58.9404 -2.83301 117.868 -4.04297 176.805c-0.208008 10.1074 -0.792969 20.6338 1.55176 30.2988c12.0762 49.8037 72.9834 68.7236 111.183 34.4111c8.8916 -7.9873 15.7627 -18.5195 22.4648 -28.6123
c47.7812 -71.9482 95.2578 -144.1 142.897 -216.143c4.91016 -7.42578 10.2539 -14.5645 15.3975 -21.8379z" />
    <glyph glyph-name="N" unicode="&#xd1;" horiz-adv-x="491" 
d="M318.714 385.988c2.04395 0.600586 4.09668 1.2041 6.14453 1.80273c0 9.97656 0.0429688 19.9541 -0.0078125 29.9316c-0.267578 52.8662 -0.792969 105.733 -0.660156 158.598c0.0302734 12.0596 0.569336 24.6152 3.88184 36.0713
c8.97559 31.0303 38.7119 51.6211 68.7891 49.457c31.084 -2.2373 56.6582 -25.3789 62.499 -57.3145c1.63281 -8.92871 2.04785 -18.1738 2.12109 -27.2812c0.942383 -117.928 1.72559 -235.855 2.54004 -353.784c0.154297 -22.3662 0.311523 -44.7305 0.369141 -67.0967
c0.0458984 -18.1855 -6.70801 -33.6953 -19.1201 -46.7598c-21.834 -22.9814 -57.2354 -28.5801 -83.6543 -11.3584c-19.4766 12.6963 -37.3477 27.2822 -50.4746 47.7285c-39.5264 61.5576 -80.292 122.321 -120.665 183.335
c-5.48438 8.28906 -11.4854 16.2383 -16.918 23.8828c-8.51465 -2.61816 -6.96777 -8.375 -6.87012 -12.9756c0.821289 -38.6133 1.97852 -77.2188 2.81836 -115.832c0.68457 -31.5049 1.03418 -63.0195 1.60547 -94.5273
c0.222656 -12.3115 -0.96582 -24.2578 -6.13379 -35.7129c-12.7666 -28.293 -41.8643 -44.9619 -71.5703 -40.6445c-29.9092 4.34473 -53.582 28.1084 -57.2793 58.8301c-1.94141 16.1162 -2.74512 32.4326 -3.02637 48.6758
c-1.44336 83.3477 -2.35059 166.705 -3.83984 250.053c-1.05371 58.9404 -2.83301 117.868 -4.04297 176.805c-0.208008 10.1074 -0.792969 20.6338 1.55176 30.2988c12.0762 49.8037 72.9834 68.7236 111.183 34.4111c8.8916 -7.9873 15.7627 -18.5195 22.4648 -28.6123
c47.7812 -71.9482 95.2578 -144.1 142.897 -216.143c4.91016 -7.42578 10.2539 -14.5645 15.3975 -21.8379z" />
    <glyph glyph-name="O" unicode="O" horiz-adv-x="576" 
d="M566.197 397.497c0.563477 -161.143 -131.051 -281.138 -278.076 -279.724c-150.873 -1.78809 -278.058 121.19 -279.114 275.434c-1.10156 160.504 127.727 279.337 273.371 281.703c154.974 2.5166 283.274 -121.077 283.819 -277.413z" />
    <glyph glyph-name="O" unicode="&#xd8;" horiz-adv-x="576" 
d="M566.197 397.497c0.563477 -161.143 -131.051 -281.138 -278.076 -279.724c-150.873 -1.78809 -278.058 121.19 -279.114 275.434c-1.10156 160.504 127.727 279.337 273.371 281.703c154.974 2.5166 283.274 -121.077 283.819 -277.413z" />
    <glyph glyph-name="O" unicode="&#xd6;" horiz-adv-x="576" 
d="M566.197 397.497c0.563477 -161.143 -131.051 -281.138 -278.076 -279.724c-150.873 -1.78809 -278.058 121.19 -279.114 275.434c-1.10156 160.504 127.727 279.337 273.371 281.703c154.974 2.5166 283.274 -121.077 283.819 -277.413z" />
    <glyph glyph-name="O" unicode="&#xd5;" horiz-adv-x="576" 
d="M566.197 397.497c0.563477 -161.143 -131.051 -281.138 -278.076 -279.724c-150.873 -1.78809 -278.058 121.19 -279.114 275.434c-1.10156 160.504 127.727 279.337 273.371 281.703c154.974 2.5166 283.274 -121.077 283.819 -277.413z" />
    <glyph glyph-name="O" unicode="&#xd4;" horiz-adv-x="576" 
d="M566.197 397.497c0.563477 -161.143 -131.051 -281.138 -278.076 -279.724c-150.873 -1.78809 -278.058 121.19 -279.114 275.434c-1.10156 160.504 127.727 279.337 273.371 281.703c154.974 2.5166 283.274 -121.077 283.819 -277.413z" />
    <glyph glyph-name="O" unicode="&#xd3;" horiz-adv-x="576" 
d="M566.197 397.497c0.563477 -161.143 -131.051 -281.138 -278.076 -279.724c-150.873 -1.78809 -278.058 121.19 -279.114 275.434c-1.10156 160.504 127.727 279.337 273.371 281.703c154.974 2.5166 283.274 -121.077 283.819 -277.413z" />
    <glyph glyph-name="O" unicode="&#xd2;" horiz-adv-x="576" 
d="M566.197 397.497c0.563477 -161.143 -131.051 -281.138 -278.076 -279.724c-150.873 -1.78809 -278.058 121.19 -279.114 275.434c-1.10156 160.504 127.727 279.337 273.371 281.703c154.974 2.5166 283.274 -121.077 283.819 -277.413z" />
    <glyph glyph-name="P" unicode="P" horiz-adv-x="445" 
d="M218.849 205.459c-6.8457 -1.33984 -13.7031 -2.61035 -24.4443 -4.6543c1.22461 -17.9736 2.18555 -33.0908 3.30078 -48.1973c1.72168 -23.3252 3.79297 -46.6289 5.25488 -69.9688c1.24023 -19.8428 -2.44629 -38.4619 -15.583 -54.3184
c-19.6729 -23.748 -45.4795 -30.7598 -74.0781 -23.5605c-29.3027 7.37695 -46.2119 28.4873 -51.7236 57.9551c-2.6084 13.9531 -3.52832 28.2529 -4.71094 42.4365c-4.89453 58.7725 -9.49023 117.569 -14.3994 176.34
c-5.07812 60.7959 -10.4297 121.567 -15.5908 182.355c-2.9248 34.4482 -5.99902 68.8887 -8.39551 103.375c-0.842773 12.1309 -0.474609 24.4336 0.395508 36.582c2.24707 31.3799 18.001 54.2998 47.4609 64.8018c21.8369 7.78418 44.8262 14.2188 67.7871 16.6318
c82.1621 8.63574 157.774 -9.5127 222.538 -62.7832c48.3311 -39.7529 77.6426 -90.6826 83.6338 -153.838c6.09668 -64.2764 -13.4482 -120.528 -54.8613 -169.181c-43.8994 -51.5742 -100.677 -81.0693 -166.584 -93.9766z" />
    <glyph glyph-name="Q" unicode="Q" horiz-adv-x="692" 
d="M571.195 123.98c-10.2832 -9.67676 -21.6621 -18.1963 -34.8262 -29.165c8.36816 -22.9756 16.1406 -43.8154 23.5254 -64.791c4.03809 -11.4746 8.33789 -22.9795 10.9238 -34.8193c7.29785 -33.4277 -9.98633 -66.9531 -40.5273 -80.2471
c-32.0107 -13.9336 -69.2891 -3.12305 -88.4287 26.6475c-5.95996 9.26953 -9.83301 19.9893 -13.9043 30.3408c-8.84473 22.4883 -17.2002 45.1689 -26.1074 68.6973c-12.7021 -0.582031 -23.7705 -0.87793 -34.8086 -1.625
c-169.173 -11.4346 -311.846 103.973 -349.639 254.208c-45.5547 181.089 62.5215 366.094 245.553 412.109c187.454 47.1289 371.996 -69.832 412.543 -252.24c28.5635 -128.496 -8.41406 -238.858 -104.304 -329.115z" />
    <glyph glyph-name="R" unicode="R" horiz-adv-x="474" 
d="M313.497 235.372c-8.50879 -6.90234 -18.791 -11.9629 -25.9678 -23.002c7.91309 -8.2627 15.4873 -16.3086 23.209 -24.2109c45.4678 -46.5342 91.1367 -92.8711 136.314 -139.685c9.07324 -9.40234 18.1016 -19.6426 24.0752 -31.1016
c19.0381 -36.5225 2.44141 -81.1895 -35.6758 -96.5322c-25.2861 -10.1797 -49.9951 -7.13281 -71.9365 9.56934c-8.83398 6.72461 -16.5098 15.0449 -24.3418 23.0039c-37.791 38.3994 -75.4102 76.9688 -113.216 115.354
c-5.48633 5.57031 -11.6445 10.4795 -19.1328 17.1582c-4.52734 -9.97949 -2.33594 -17.8496 -1.80566 -25.3516c1.43262 -20.2715 3.47168 -40.499 4.97461 -60.7676c0.523438 -7.07715 0.645508 -14.251 0.157227 -21.3252
c-2.5459 -36.8906 -30.665 -65.085 -66.6787 -67.165c-34.083 -1.96875 -66.0801 22.1562 -73.5361 56.2871c-2.59473 11.873 -3.75879 24.123 -4.77441 36.2686c-4.90527 58.7461 -9.45703 117.52 -14.2939 176.271c-5.08594 61.7881 -10.4072 123.557 -15.5283 185.342
c-6.04492 72.9316 -11.6289 145.903 -18.1201 218.794c-3.20117 35.9375 29.1211 84.415 64.2217 94.5459c81.6758 23.5723 159.182 15.4453 230.248 -32.4199c93.5635 -63.0146 129.398 -180.183 89.7041 -288.8c-17.8604 -48.874 -47.4717 -89.4463 -87.8965 -122.234z
" />
    <glyph glyph-name="S" unicode="S" horiz-adv-x="488" 
d="M296.944 576.113l0.000976562 0.703125c-21.332 0 -42.665 -0.0761719 -63.9971 0.0263672c-14.5889 0.0703125 -28.2383 -3.96484 -40.916 -10.5303c-32.2607 -16.707 -41.8213 -43.0381 -29.6904 -76.5762c8.66113 -23.9453 24.6885 -42.2031 49.6719 -50.2607
c19.2549 -6.20801 38.9355 -11.1074 58.457 -16.4756c21.498 -5.91113 43.4678 -10.4443 64.4561 -17.7949c41.9668 -14.7002 77.8203 -38.2295 105.721 -74.0449c55.21 -70.8711 48.0527 -163.751 6.87109 -225.518c-39.2529 -58.874 -94.04 -92.9834 -164.224 -105.119
c-72.3057 -12.5039 -139.258 2.52637 -203.872 33.0146c-14.4238 6.80566 -28.2061 16.6094 -39.6543 27.7402c-20.6309 20.0576 -26.4922 45.7334 -17.3135 73.0068c9.20312 27.3428 29.6768 42.8848 58.085 47.8076c16.8916 2.92676 31.8467 -3.02246 46.8877 -9.67969
c20.3623 -9.0127 40.9531 -17.543 61.6836 -25.6709c26.6807 -10.4619 54.4297 -7.17969 81.2031 -2.15527c23.4834 4.4082 42.8447 18.2363 55.9502 39.1328c17.5518 27.9844 11.6689 55.5234 -15.6777 74.1836c-14.5078 9.90039 -30.9707 14.9834 -47.7861 19.1211
c-25.6025 6.29883 -51.4287 11.791 -76.7891 18.9385c-45.9688 12.958 -86.0312 35.8916 -117.21 72.9268c-31.6377 37.5791 -51.6621 80.3789 -55.1826 129.608c-5.55176 77.6309 26.5273 138.451 87.7686 183.987c46.9326 34.8955 100.273 52.4883 159.274 52.0801
c28.501 -0.197266 57.0586 -0.12207 84.9102 -6.45703c16.6533 -3.78809 33.5723 -8.63379 48.7461 -16.249c32.498 -16.3086 46.6025 -47.9023 38.8281 -81.3076c-7.1123 -30.5693 -34.9609 -52.9629 -69.1465 -54.2764
c-22.3213 -0.858398 -44.7021 -0.162109 -67.0557 -0.162109z" />
    <glyph glyph-name="T" unicode="T" horiz-adv-x="528" 
d="M384.729 575.865c-11.9707 -0.989258 -24.5771 0.961914 -38.167 -8.20508c4.00488 -43.499 7.79688 -85.9551 11.8516 -128.385c5.31934 -55.6797 10.8037 -111.345 16.2959 -167.007c5.09375 -51.6152 10.2803 -103.22 15.4453 -154.827
c2.53223 -25.2998 5.88477 -50.5508 7.32812 -75.9102c0.679688 -11.9189 -0.561523 -24.5449 -3.90527 -35.9814c-8.67676 -29.6895 -35.4824 -49.3887 -65.7227 -50.3467c-28.8389 -0.913086 -58.0986 19.0352 -68.2549 47.3799
c-3.05566 8.53027 -5.0625 17.6816 -5.95312 26.708c-6.79199 68.8213 -13.0312 137.696 -19.7529 206.525c-7.11523 72.877 -14.6201 145.714 -21.8584 218.578c-2.81445 28.3379 -5.24609 56.7148 -8.11328 85.0459c-0.691406 6.83008 -2.42969 13.5547 -3.55078 19.5986
c-3.65332 0.975586 -5.63379 2.05566 -7.53809 1.93164c-28.4014 -1.84668 -56.792 -3.88086 -85.1875 -5.81152c-15.2041 -1.03418 -30.4512 -3.13281 -45.6172 -2.68359c-36.9072 1.09375 -66.3535 28.2705 -70.6113 63.7266
c-3.50098 29.1562 14.9854 68.1455 55.4463 76.8545c6.93652 1.49219 13.9053 3.29004 20.9434 3.79395c64.8828 4.64453 129.793 8.89062 194.676 13.5547c39.5361 2.84082 79.0225 6.35059 118.551 9.29395c26.3584 1.96289 52.7285 4.24121 79.1328 4.95605
c30.9492 0.836914 55.665 -11.4414 69.918 -39.958c22.085 -44.1865 -6.78516 -96.0166 -57.209 -101.953c-29.2461 -3.44238 -58.7734 -4.44434 -88.1465 -6.87891z" />
    <glyph glyph-name="U" unicode="U" horiz-adv-x="510" 
d="M336.594 284.251c8.50391 45.0732 10.916 90.8027 12.9443 146.41c-2.52441 27.7393 -5.68945 65.2021 -9.45703 102.604c-1.54395 15.3184 -2.42383 30.2354 3.125 45.1064c10.3398 27.7207 33.0996 45.3936 61.4795 47.1299
c31.8242 1.94727 55.0576 -11.5996 69.625 -39.5127c4.16016 -7.9707 7.30176 -17.0723 8.38184 -25.9629c15.4697 -127.288 14.7148 -253.674 -23.2197 -377.672c-10.4463 -34.1475 -24.5039 -66.7969 -43.96 -96.8789
c-16.7207 -25.8506 -36.5645 -48.8613 -62.7881 -65.6162c-49.6299 -31.71 -100.896 -34.0283 -153.294 -7.52344c-24.8457 12.5684 -45.166 30.9297 -63.1016 52.0762c-28.6094 33.7314 -49.21 72.1963 -65.5322 112.951
c-26.6133 66.4463 -41.7393 135.727 -50.457 206.687c-6.84863 55.7568 -7.17969 111.597 -5.47949 167.54c0.368164 12.0967 1.83008 24.3545 4.50781 36.1484c9.08301 39.9912 48.4414 56.8857 74.8789 54.3027c35.499 -3.4668 63.2871 -32.3369 65.5508 -69.0703
c0.68457 -11.1113 -0.477539 -22.3457 -0.94043 -33.5176c-3.8125 -92.1465 4.94043 -182.801 32.4062 -271.188c9.98242 -32.1279 22.0938 -63.4746 41.0244 -91.4834c7.88379 -11.6641 17.7344 -22.1416 27.6143 -32.2559
c5.51855 -5.64941 14.1416 -5.24805 19.1699 0.810547c8.36914 10.0879 16.6592 20.5713 22.9229 32.0166c18.248 33.3467 27.6123 69.874 34.5986 106.897z" />
    <glyph glyph-name="U" unicode="&#xdc;" horiz-adv-x="510" 
d="M336.594 284.251c8.50391 45.0732 10.916 90.8027 12.9443 146.41c-2.52441 27.7393 -5.68945 65.2021 -9.45703 102.604c-1.54395 15.3184 -2.42383 30.2354 3.125 45.1064c10.3398 27.7207 33.0996 45.3936 61.4795 47.1299
c31.8242 1.94727 55.0576 -11.5996 69.625 -39.5127c4.16016 -7.9707 7.30176 -17.0723 8.38184 -25.9629c15.4697 -127.288 14.7148 -253.674 -23.2197 -377.672c-10.4463 -34.1475 -24.5039 -66.7969 -43.96 -96.8789
c-16.7207 -25.8506 -36.5645 -48.8613 -62.7881 -65.6162c-49.6299 -31.71 -100.896 -34.0283 -153.294 -7.52344c-24.8457 12.5684 -45.166 30.9297 -63.1016 52.0762c-28.6094 33.7314 -49.21 72.1963 -65.5322 112.951
c-26.6133 66.4463 -41.7393 135.727 -50.457 206.687c-6.84863 55.7568 -7.17969 111.597 -5.47949 167.54c0.368164 12.0967 1.83008 24.3545 4.50781 36.1484c9.08301 39.9912 48.4414 56.8857 74.8789 54.3027c35.499 -3.4668 63.2871 -32.3369 65.5508 -69.0703
c0.68457 -11.1113 -0.477539 -22.3457 -0.94043 -33.5176c-3.8125 -92.1465 4.94043 -182.801 32.4062 -271.188c9.98242 -32.1279 22.0938 -63.4746 41.0244 -91.4834c7.88379 -11.6641 17.7344 -22.1416 27.6143 -32.2559
c5.51855 -5.64941 14.1416 -5.24805 19.1699 0.810547c8.36914 10.0879 16.6592 20.5713 22.9229 32.0166c18.248 33.3467 27.6123 69.874 34.5986 106.897z" />
    <glyph glyph-name="U" unicode="&#xdb;" horiz-adv-x="510" 
d="M336.594 284.251c8.50391 45.0732 10.916 90.8027 12.9443 146.41c-2.52441 27.7393 -5.68945 65.2021 -9.45703 102.604c-1.54395 15.3184 -2.42383 30.2354 3.125 45.1064c10.3398 27.7207 33.0996 45.3936 61.4795 47.1299
c31.8242 1.94727 55.0576 -11.5996 69.625 -39.5127c4.16016 -7.9707 7.30176 -17.0723 8.38184 -25.9629c15.4697 -127.288 14.7148 -253.674 -23.2197 -377.672c-10.4463 -34.1475 -24.5039 -66.7969 -43.96 -96.8789
c-16.7207 -25.8506 -36.5645 -48.8613 -62.7881 -65.6162c-49.6299 -31.71 -100.896 -34.0283 -153.294 -7.52344c-24.8457 12.5684 -45.166 30.9297 -63.1016 52.0762c-28.6094 33.7314 -49.21 72.1963 -65.5322 112.951
c-26.6133 66.4463 -41.7393 135.727 -50.457 206.687c-6.84863 55.7568 -7.17969 111.597 -5.47949 167.54c0.368164 12.0967 1.83008 24.3545 4.50781 36.1484c9.08301 39.9912 48.4414 56.8857 74.8789 54.3027c35.499 -3.4668 63.2871 -32.3369 65.5508 -69.0703
c0.68457 -11.1113 -0.477539 -22.3457 -0.94043 -33.5176c-3.8125 -92.1465 4.94043 -182.801 32.4062 -271.188c9.98242 -32.1279 22.0938 -63.4746 41.0244 -91.4834c7.88379 -11.6641 17.7344 -22.1416 27.6143 -32.2559
c5.51855 -5.64941 14.1416 -5.24805 19.1699 0.810547c8.36914 10.0879 16.6592 20.5713 22.9229 32.0166c18.248 33.3467 27.6123 69.874 34.5986 106.897z" />
    <glyph glyph-name="U" unicode="&#xda;" horiz-adv-x="510" 
d="M336.594 284.251c8.50391 45.0732 10.916 90.8027 12.9443 146.41c-2.52441 27.7393 -5.68945 65.2021 -9.45703 102.604c-1.54395 15.3184 -2.42383 30.2354 3.125 45.1064c10.3398 27.7207 33.0996 45.3936 61.4795 47.1299
c31.8242 1.94727 55.0576 -11.5996 69.625 -39.5127c4.16016 -7.9707 7.30176 -17.0723 8.38184 -25.9629c15.4697 -127.288 14.7148 -253.674 -23.2197 -377.672c-10.4463 -34.1475 -24.5039 -66.7969 -43.96 -96.8789
c-16.7207 -25.8506 -36.5645 -48.8613 -62.7881 -65.6162c-49.6299 -31.71 -100.896 -34.0283 -153.294 -7.52344c-24.8457 12.5684 -45.166 30.9297 -63.1016 52.0762c-28.6094 33.7314 -49.21 72.1963 -65.5322 112.951
c-26.6133 66.4463 -41.7393 135.727 -50.457 206.687c-6.84863 55.7568 -7.17969 111.597 -5.47949 167.54c0.368164 12.0967 1.83008 24.3545 4.50781 36.1484c9.08301 39.9912 48.4414 56.8857 74.8789 54.3027c35.499 -3.4668 63.2871 -32.3369 65.5508 -69.0703
c0.68457 -11.1113 -0.477539 -22.3457 -0.94043 -33.5176c-3.8125 -92.1465 4.94043 -182.801 32.4062 -271.188c9.98242 -32.1279 22.0938 -63.4746 41.0244 -91.4834c7.88379 -11.6641 17.7344 -22.1416 27.6143 -32.2559
c5.51855 -5.64941 14.1416 -5.24805 19.1699 0.810547c8.36914 10.0879 16.6592 20.5713 22.9229 32.0166c18.248 33.3467 27.6123 69.874 34.5986 106.897z" />
    <glyph glyph-name="U" unicode="&#xd9;" horiz-adv-x="510" 
d="M336.594 284.251c8.50391 45.0732 10.916 90.8027 12.9443 146.41c-2.52441 27.7393 -5.68945 65.2021 -9.45703 102.604c-1.54395 15.3184 -2.42383 30.2354 3.125 45.1064c10.3398 27.7207 33.0996 45.3936 61.4795 47.1299
c31.8242 1.94727 55.0576 -11.5996 69.625 -39.5127c4.16016 -7.9707 7.30176 -17.0723 8.38184 -25.9629c15.4697 -127.288 14.7148 -253.674 -23.2197 -377.672c-10.4463 -34.1475 -24.5039 -66.7969 -43.96 -96.8789
c-16.7207 -25.8506 -36.5645 -48.8613 -62.7881 -65.6162c-49.6299 -31.71 -100.896 -34.0283 -153.294 -7.52344c-24.8457 12.5684 -45.166 30.9297 -63.1016 52.0762c-28.6094 33.7314 -49.21 72.1963 -65.5322 112.951
c-26.6133 66.4463 -41.7393 135.727 -50.457 206.687c-6.84863 55.7568 -7.17969 111.597 -5.47949 167.54c0.368164 12.0967 1.83008 24.3545 4.50781 36.1484c9.08301 39.9912 48.4414 56.8857 74.8789 54.3027c35.499 -3.4668 63.2871 -32.3369 65.5508 -69.0703
c0.68457 -11.1113 -0.477539 -22.3457 -0.94043 -33.5176c-3.8125 -92.1465 4.94043 -182.801 32.4062 -271.188c9.98242 -32.1279 22.0938 -63.4746 41.0244 -91.4834c7.88379 -11.6641 17.7344 -22.1416 27.6143 -32.2559
c5.51855 -5.64941 14.1416 -5.24805 19.1699 0.810547c8.36914 10.0879 16.6592 20.5713 22.9229 32.0166c18.248 33.3467 27.6123 69.874 34.5986 106.897z" />
    <glyph glyph-name="V" unicode="V" horiz-adv-x="520" 
d="M249.809 281.349c4.66699 -12.0596 9.71094 -23.9727 14.9512 -36.8691c11.418 7.08203 11.8076 18.2783 15.1982 27.2861c31.1191 82.7061 61.708 165.614 92.5186 248.437c3.18457 8.55859 6.55273 17.0684 10.2715 25.4072
c15.8945 35.6611 60.0566 49.752 89.4619 37.4912c34.9932 -14.5938 53.6309 -48.4795 44.6777 -86.4287c-1.625 -6.8916 -4.31641 -13.5537 -6.79395 -20.2178c-55.2139 -148.528 -110.455 -297.049 -165.753 -445.547
c-2.83203 -7.60449 -5.69531 -15.2744 -9.42676 -22.4561c-27.751 -53.4023 -101.121 -52.0674 -130.424 -4.22754c-4.73145 7.72363 -8.09766 16.3789 -11.3936 24.877c-61.707 159.104 -123.316 318.247 -184.922 477.392
c-5.14844 13.3008 -9.5166 26.6963 -9.15332 41.3525c0.774414 31.2871 18.7979 56.1074 48.959 66.5049c28.2812 9.74902 60.7979 0.246094 78.5205 -24.9697c8.05078 -11.4482 13.6621 -24.9023 18.7949 -38.0645c35.0635 -89.9014 69.6826 -179.976 104.513 -269.967z
" />
    <glyph glyph-name="W" unicode="W" horiz-adv-x="763" 
d="M245.801 315.006c3.92188 -9.16113 8.27344 -18.1426 15.1006 -33.0342c16.9932 40.999 31.3926 75.6611 45.7246 110.35c8.92383 21.5986 17.3145 43.4316 26.7305 64.8125c10.8838 24.7148 29.0752 40.8955 56.2109 46.7295
c31.1523 6.69727 56.1709 -2.84082 75.4854 -27.3857c6.21289 -7.89648 10.6943 -17.2451 15.4043 -26.2236c20.3037 -38.7002 40.2246 -77.6035 60.7578 -116.18c3.05762 -5.74609 3.89258 -14.3691 14.8604 -15.3057c8.64648 36.0811 17.4082 72.3682 26.0303 108.688
c10.3242 43.4971 20.4961 87.0293 30.8203 130.526c1.40625 5.92285 3.02246 11.8301 5.04492 17.5684c13.8662 39.3555 51.2256 59.2939 89.7012 48.0088c34.2822 -10.0557 56.3672 -47.0684 48.3242 -84.4736c-10.4648 -48.667 -22.5674 -96.9834 -34.0312 -145.434
c-22.2266 -93.9316 -44.834 -187.773 -66.5459 -281.824c-6.36719 -27.5801 -19.8242 -48.4326 -45.7002 -60.8828c-36.1406 -17.3896 -74.1006 -7.43945 -96.2246 25.9736c-5.03125 7.59863 -9.06934 15.8779 -13.3125 23.9746
c-25.0078 47.71 -49.9238 95.4697 -74.9229 143.186c-3.27344 6.24512 -6.83984 12.334 -11.5527 20.8018c-4.09766 -6.54102 -7.81934 -10.9961 -9.94824 -16.1123c-22.2529 -53.4736 -44.1943 -107.077 -66.3721 -160.581
c-3.88574 -9.37012 -7.70215 -18.9111 -12.8779 -27.5801c-28.7969 -48.25 -96.25 -45.5283 -121.889 -2.44824c-7.77832 13.0693 -15.3506 26.4287 -21.3281 40.3809c-57.2217 133.573 -114.091 267.298 -171.031 400.991
c-6.39941 15.0254 -12.1631 30.3154 -11.1426 47.0273c1.86914 30.6455 23.4678 57.5752 51.6621 64.9463c29.6025 7.74023 60.8232 -3.19043 77.9805 -28.458c6.21289 -9.14844 10.7324 -19.5801 15.127 -29.8115c34.083 -79.3613 67.9268 -158.827 101.914 -238.229z" />
    <glyph glyph-name="X" unicode="X" horiz-adv-x="451" 
d="M328.524 368.764c-4.83496 -8.91309 -9.46973 -17.9355 -15.3623 -29.123c17.5078 -29.4102 34.0703 -57.3281 50.7236 -85.1904c19.8047 -33.1299 39.8184 -66.1348 59.4473 -99.3691c5.14062 -8.7041 10.0723 -17.7256 13.5771 -27.167
c11.6504 -31.3779 0.638672 -64.9893 -26.5537 -83.2529c-27.2451 -18.2998 -63.0479 -16.3545 -87.1455 6.13965c-8.74512 8.16309 -15.833 18.4902 -22.1943 28.751c-18.7295 30.2119 -36.6299 60.9365 -55.0664 91.333
c-3.51758 5.79883 -7.99414 11.0146 -13.4883 18.4814c-6.45117 -10.9678 -11.7158 -19.376 -16.4551 -28.0713c-20.417 -37.4492 -40.6172 -75.0166 -61.0527 -112.457c-4.37109 -8.00879 -8.7373 -16.1631 -14.2295 -23.3965
c-22.543 -29.6768 -61.2695 -38.0967 -92.498 -20.5986c-31.1035 17.4277 -44.3545 54.8232 -31.1553 89.6826c3.57422 9.44043 8.82617 18.2773 13.6514 27.209c35.7158 66.1211 71.5234 132.193 107.274 198.297c2.4043 4.44629 4.58984 9.00977 7.81543 15.3721
c-3.79883 7.23145 -7.59082 15.3535 -12.1602 23.0117c-34.874 58.4395 -69.9668 116.749 -104.809 175.206c-5.7041 9.56836 -11.4561 19.2939 -15.5723 29.5908c-12.835 32.1064 -1.58008 67.1514 26.7529 85.7656c28.7373 18.8838 64.8457 15.7051 89.292 -8.93457
c7.75098 -7.81348 13.9199 -17.4443 19.7119 -26.918c21.7197 -35.5293 42.9463 -71.3584 64.4502 -107.018c3.5498 -5.88574 7.56641 -11.4912 12.7256 -19.2725c5.08398 7.51758 9.40137 12.9336 12.6836 18.9189c17.084 31.168 33.7363 62.5723 50.915 93.6865
c5.37598 9.73828 10.9307 19.6797 18.1182 28.0557c22.415 26.123 58.9346 32.2812 88.4629 15.9072c28.7744 -15.9561 42.6602 -47.9561 33.623 -80.5195c-3.21387 -11.5801 -8.7002 -22.7217 -14.417 -33.3818c-28.7959 -53.7012 -58.0273 -107.167 -87.0654 -160.738z
" />
    <glyph glyph-name="Y" unicode="Y" horiz-adv-x="421" 
d="M195.809 540.166c3.63086 -5.97754 7.79785 -11.627 14.6143 -21.7148c18.8467 33.7773 35.6729 63.8867 52.4521 94.0234c8.89941 15.9844 17.2627 32.29 26.6846 47.959c12.7529 21.2109 31.3506 34.7119 56.3721 37.1055
c54.7324 5.23535 93.4434 -48.416 72.4902 -100.308c-3.40625 -8.43555 -8.31836 -16.2793 -12.7441 -24.2812c-33.9443 -61.373 -67.7266 -122.838 -102.085 -183.978c-7.70508 -13.709 -11.8672 -27.1553 -10.7344 -43.2529
c3.49414 -49.7002 5.63379 -99.4932 8.49121 -149.239c2.33203 -40.6064 5.00781 -81.1934 7.34961 -121.8c0.349609 -6.05859 0.163086 -12.2363 -0.587891 -18.2568c-4.84961 -38.8271 -34.5449 -66.1016 -71.4248 -65.8711
c-36.4531 0.229492 -67.3027 28.2627 -71.0029 66.5996c-3.22266 33.3848 -4.53613 66.958 -6.51855 100.459c-3.24121 54.8145 -6.54785 109.626 -9.35059 164.464c-0.701172 13.7061 -5.45996 25.0527 -12.6035 36.7031c-42.5029 69.3271 -84.21 139.146 -126.252 208.758
c-9.00488 14.9062 -16.9912 29.9453 -16.959 48.1709c0.0546875 30.5996 13.6152 53.127 41.0303 65.7041c27.2422 12.499 53.9316 9.20312 76.6367 -10.9834c8.92285 -7.93262 16.0479 -18.3438 22.4287 -28.5977c20.9443 -33.6553 41.1279 -67.7842 61.7129 -101.664z" />
    <glyph glyph-name="Y" unicode="&#x178;" horiz-adv-x="421" 
d="M195.809 540.166c3.63086 -5.97754 7.79785 -11.627 14.6143 -21.7148c18.8467 33.7773 35.6729 63.8867 52.4521 94.0234c8.89941 15.9844 17.2627 32.29 26.6846 47.959c12.7529 21.2109 31.3506 34.7119 56.3721 37.1055
c54.7324 5.23535 93.4434 -48.416 72.4902 -100.308c-3.40625 -8.43555 -8.31836 -16.2793 -12.7441 -24.2812c-33.9443 -61.373 -67.7266 -122.838 -102.085 -183.978c-7.70508 -13.709 -11.8672 -27.1553 -10.7344 -43.2529
c3.49414 -49.7002 5.63379 -99.4932 8.49121 -149.239c2.33203 -40.6064 5.00781 -81.1934 7.34961 -121.8c0.349609 -6.05859 0.163086 -12.2363 -0.587891 -18.2568c-4.84961 -38.8271 -34.5449 -66.1016 -71.4248 -65.8711
c-36.4531 0.229492 -67.3027 28.2627 -71.0029 66.5996c-3.22266 33.3848 -4.53613 66.958 -6.51855 100.459c-3.24121 54.8145 -6.54785 109.626 -9.35059 164.464c-0.701172 13.7061 -5.45996 25.0527 -12.6035 36.7031c-42.5029 69.3271 -84.21 139.146 -126.252 208.758
c-9.00488 14.9062 -16.9912 29.9453 -16.959 48.1709c0.0546875 30.5996 13.6152 53.127 41.0303 65.7041c27.2422 12.499 53.9316 9.20312 76.6367 -10.9834c8.92285 -7.93262 16.0479 -18.3438 22.4287 -28.5977c20.9443 -33.6553 41.1279 -67.7842 61.7129 -101.664z" />
    <glyph glyph-name="Y" unicode="&#xdd;" horiz-adv-x="421" 
d="M195.809 540.166c3.63086 -5.97754 7.79785 -11.627 14.6143 -21.7148c18.8467 33.7773 35.6729 63.8867 52.4521 94.0234c8.89941 15.9844 17.2627 32.29 26.6846 47.959c12.7529 21.2109 31.3506 34.7119 56.3721 37.1055
c54.7324 5.23535 93.4434 -48.416 72.4902 -100.308c-3.40625 -8.43555 -8.31836 -16.2793 -12.7441 -24.2812c-33.9443 -61.373 -67.7266 -122.838 -102.085 -183.978c-7.70508 -13.709 -11.8672 -27.1553 -10.7344 -43.2529
c3.49414 -49.7002 5.63379 -99.4932 8.49121 -149.239c2.33203 -40.6064 5.00781 -81.1934 7.34961 -121.8c0.349609 -6.05859 0.163086 -12.2363 -0.587891 -18.2568c-4.84961 -38.8271 -34.5449 -66.1016 -71.4248 -65.8711
c-36.4531 0.229492 -67.3027 28.2627 -71.0029 66.5996c-3.22266 33.3848 -4.53613 66.958 -6.51855 100.459c-3.24121 54.8145 -6.54785 109.626 -9.35059 164.464c-0.701172 13.7061 -5.45996 25.0527 -12.6035 36.7031c-42.5029 69.3271 -84.21 139.146 -126.252 208.758
c-9.00488 14.9062 -16.9912 29.9453 -16.959 48.1709c0.0546875 30.5996 13.6152 53.127 41.0303 65.7041c27.2422 12.499 53.9316 9.20312 76.6367 -10.9834c8.92285 -7.93262 16.0479 -18.3438 22.4287 -28.5977c20.9443 -33.6553 41.1279 -67.7842 61.7129 -101.664z" />
    <glyph glyph-name="Z" unicode="Z" horiz-adv-x="529" 
d="M251.314 507.143c4.62207 8.83984 8.7168 17.9521 14.5693 30.0635c-12.1465 -1.79785 -21.0449 -2.64355 -29.7363 -4.48047c-40.6963 -8.60742 -81.3271 -17.5439 -122.008 -26.2324c-10.9141 -2.33105 -21.8477 -4.89844 -32.9082 -6.16309
c-35.4336 -4.05664 -68.1318 17.5684 -77.3525 50.5684c-9.93164 35.5449 6.32812 70.7344 40.8066 85.2695c12.958 5.46289 27.082 8.49121 40.9268 11.4678c93.2344 20.0488 186.493 39.998 279.869 59.376c12.751 2.64551 26.3047 3.45996 39.2979 2.52539
c53.5576 -3.85449 79.8643 -57.6416 63.0215 -96.3193c-4.85938 -11.1602 -10.0801 -22.1914 -15.7158 -32.9775c-62.1172 -118.891 -124.406 -237.69 -186.425 -356.632c-4.49512 -8.62207 -12.2695 -16.3623 -10.2549 -29.2754
c15.3926 1.58496 30.4365 2.64062 45.3311 4.75781c48.2334 6.85742 96.3389 14.6592 144.634 21.0498c50.6328 6.7002 90.4707 -33.4863 83.4395 -83.0762c-4.34863 -30.6699 -29.5703 -54.6455 -64.249 -60.4404c-16.0127 -2.67383 -32.1787 -4.42676 -48.2656 -6.67773
c-53.2803 -7.45605 -106.556 -14.9443 -159.831 -22.4316c-33.1758 -4.66113 -66.3125 -9.62793 -99.5439 -13.8574c-11.0303 -1.40332 -22.3828 -2.01758 -33.4434 -1.14551c-52.1328 4.10352 -84.2891 55.8115 -64.9424 104.18
c4.1377 10.3447 9.46387 20.2451 14.6416 30.1406c59.3467 113.454 118.789 226.856 178.139 340.311z" />
    <glyph glyph-name="bracketleft" unicode="[" horiz-adv-x="441" 
d="M341.95 83.5957c32.333 -10.584 50.6562 -39.5234 47.9102 -72.9336c-2.63574 -32.0957 -27.2832 -57.6455 -60.8789 -62.4844c-9.00391 -1.29492 -18.2207 -1.73633 -27.3232 -1.5957c-53.8926 0.831055 -107.777 1.94922 -161.665 2.96973
c-6.10156 0.114258 -12.2432 -0.185547 -18.2939 0.418945c-29.5039 2.94922 -51.793 16.7021 -64.6621 44.1221c-7.87793 16.7861 -12.1377 34.332 -12.3711 53.0215c-0.485352 38.6543 -1.61719 77.2998 -2.28906 115.953
c-2.56445 147.493 -4.9209 294.987 -7.62598 442.477c-1.10156 60.0049 -2.92383 119.997 -4.33984 179.997c-0.264648 11.1855 -0.708008 22.4102 -0.117188 33.5674c1.66211 31.4102 16.8555 53.6416 46.1738 65.707c14.2402 5.86035 28.9951 8.9502 44.5244 8.55762
c56.918 -1.43848 113.839 -2.71094 170.763 -3.94629c12.2646 -0.265625 24.2324 -1.2168 35.707 -6.38086c29.0908 -13.0918 47.2188 -44.4805 42.333 -74.0869c-5.44141 -32.9668 -30.7324 -58.2646 -63.6807 -59.9463
c-31.4316 -1.60352 -63.0166 -0.0957031 -94.5342 -0.0976562c-11.0195 0 -22.041 -0.425781 -35.0371 -0.701172c-3.04395 -31.3066 8.51172 -625.301 12.5391 -654.514c5.07324 -1.04785 10.7012 -3.1123 16.3691 -3.22852
c33.5488 -0.685547 67.1201 -0.501953 100.656 -1.52637c12.0215 -0.366211 24.5029 -1.63867 35.8428 -5.34961z" />
    <glyph glyph-name="backslash" unicode="\" horiz-adv-x="427" 
d="M377.129 -47.1699c1.18066 -35.1846 -21.1924 -64.1553 -54.1787 -71.3809c-35.0029 -7.67188 -67.9043 9.39551 -81.4912 42.9277c-3.40137 8.39355 -5.28906 17.4814 -7.18164 26.3975c-32.2627 152.067 -64.4531 304.151 -96.584 456.247
c-27.7207 131.22 -55.3799 262.453 -82.957 393.703c-2.29297 10.916 -3.73633 22.0107 -4.68359 27.6768c-1.34277 43.7676 24.1738 71.0195 57.1133 77.8623c32.5771 6.76758 65.332 -11.8223 78.6191 -43.9492c3.07422 -7.43066 4.85156 -15.4844 6.52246 -23.3984
c44.9072 -212.736 89.6846 -425.5 134.578 -638.24c15.1016 -71.5752 30.5488 -143.077 45.5957 -214.665c2.29395 -10.9141 4.27637 -22.0752 4.64746 -33.1807z" />
    <glyph glyph-name="bracketright" unicode="]" horiz-adv-x="416" 
d="M379.676 765.866c1.88574 -10.9414 2.12598 -22.2744 2.09082 -33.4189c-0.744141 -254.221 -1.66797 -508.441 -2.40234 -762.662c-0.046875 -16.4004 -1.1416 -32.5176 -6.48242 -48.1064c-8.16797 -23.8438 -24.252 -39.6777 -48.7178 -45.9951
c-9.75977 -2.52051 -19.9834 -4.26465 -30.0312 -4.44629c-44.709 -0.810547 -89.4326 -0.786133 -134.146 -1.38477c-12.5605 -0.167969 -24.2705 2.7373 -35.2285 8.29102c-27.9512 14.1631 -43.4229 46.4766 -37.2539 76.7891
c6.01465 29.5596 30.5918 52.4629 61.1924 55.417c19.1924 1.85059 38.5645 1.7832 57.8496 2.72266c8.96875 0.436523 17.9219 1.21387 31.0586 2.12695c0.0927734 223.737 1.77246 444.062 1.17676 666.449c-10.0498 0.796875 -17.7793 2.00684 -25.4951 1.91504
c-30.4834 -0.360352 -60.9648 -1.01367 -91.4395 -1.79395c-14.7979 -0.378906 -27.9766 4.0957 -40.1113 12.1689c-24.5898 16.3594 -36.7549 46.8164 -29.79 74.4238c7.27441 28.8457 30.5244 51.1777 59.6572 53.5088c60.7861 4.86133 121.723 7.56934 182.733 5.58887
c11.0908 -0.360352 22.3486 -2.02051 33.1133 -4.73438c29.5684 -7.45605 47.0713 -26.9688 52.2256 -56.8594z" />
    <glyph glyph-name="asciicircum" unicode="^" horiz-adv-x="436" 
d="M418.445 477.782c7.8457 -34.4785 -10.4697 -69.499 -42.4268 -81.8564c-33.0137 -12.7695 -68.9268 -0.568359 -86.9707 30.4512c-5.5625 9.5625 -9.29688 20.2891 -13.0859 30.7646c-13.8252 38.2158 -27.2559 76.5742 -41.0137 114.814
c-1.94434 5.40527 -4.87109 10.4561 -8.66992 18.4727c-6.71094 -10.208 -11.873 -17.4062 -16.3604 -25.0029c-20.1631 -34.1348 -40.1357 -68.3818 -60.1729 -102.59c-11.2148 -19.1436 -26.4619 -32.3779 -48.4824 -38.9395
c-43.4502 -12.9473 -99.9111 27.9961 -84.7432 86.6592c2.49902 9.66309 7.49023 18.917 12.5605 27.6406c48.0293 82.6084 96.3271 165.06 144.541 247.562c12.7773 21.8662 29.2129 38.7432 55.5908 43.5283c32.3496 5.86914 61.374 -6.92969 77.3633 -35.6123
c4.4248 -7.93457 7.7373 -16.582 10.7754 -25.1807c31.1436 -88.1279 62.1504 -176.305 93.1025 -264.5c3.02051 -8.61523 5.96973 -17.3252 7.99219 -26.2109z" />
    <glyph glyph-name="underscore" unicode="_" horiz-adv-x="804" 
d="M726.459 90.9102c38.2666 -3.04883 65.8545 -32.9219 65.6807 -70.707c-0.181641 -37.9385 -27.6182 -66.7734 -66.5889 -69.6221c-9.10742 -0.664062 -18.2861 -0.466797 -27.4316 -0.469727c-98.6025 -0.0273438 -197.205 -0.0166016 -295.809 -0.0166016v0.710938
c-99.6191 0 -199.237 -0.00488281 -298.856 0.0107422c-8.13086 0 -16.2852 -0.22168 -24.3887 0.287109c-37.5791 2.35352 -67.3174 32.7559 -68.0518 69.3174c-0.757812 37.5283 29.6084 69.0303 68.9561 71.3564c7.09473 0.418945 14.2275 0.261719 21.3418 0.253906
c199.237 -0.206055 398.475 -0.421875 597.714 -0.658203c9.14746 -0.0107422 18.334 0.262695 27.4336 -0.462891z" />
    <glyph glyph-name="grave" unicode="`" horiz-adv-x="172" 
d="M148.517 775.998c10.376 -13.249 13.9385 -29.0703 14.4961 -44.916c-0.493164 -30.3418 -18.6318 -56.0098 -46.252 -66.1709c-27.9668 -10.2891 -57.4297 -3.48145 -77.6514 19.1289c-10.1123 11.3047 -18.6133 24.0439 -28.0322 35.9863
c-15.0791 19.1191 -30.5947 37.9004 -45.4053 57.2236c-14.2666 18.6143 -20.4951 39.2676 -14.2588 62.8457c12.2197 46.1963 62.5537 67.6064 103.696 43.3242c8.57227 -5.05859 16.7207 -11.8486 23.0547 -19.5039c23.9268 -28.9131 47.209 -58.3682 70.3525 -87.918z
" />
    <glyph glyph-name="a" unicode="a" horiz-adv-x="488" 
d="M480.208 11.1338c0.810547 -12.5342 -0.46582 -24.8105 -5.2998 -36.6699c-5.99023 -14.6953 -15.6826 -26.3574 -29.9688 -32.6533c-34.9932 -15.4199 -70.335 -30.6123 -109.188 -32.9014c-105.882 -6.24023 -192.907 29.9189 -251.229 120.575
c-63.166 98.1865 -34.1611 222.014 63.7832 285.524c36.5391 23.6943 76.6309 36.9541 120.258 39.1885c11.4092 0.584961 22.7949 1.59473 37.584 2.65137c-11.3857 57.8848 -22.9795 112.615 -45.0195 164.431c-5.5332 13.0078 -12.666 25.5762 -20.6846 37.2314
c-15.3711 22.3428 -35.0947 29.21 -62.4502 12.5605c-26.3506 -16.0381 -42.3477 -39.9355 -46.9385 -71.0547c-1.41113 -9.55762 -2.66992 -19.6455 -6.71094 -28.2109c-11.4639 -24.3057 -37.5742 -37.1055 -64.1475 -33.0723
c-26.9824 4.09668 -50.1816 27.6035 -52.6875 56.2344c-1.21875 13.9424 -0.279297 28.7598 3.14648 42.3057c14.2891 56.5088 45.1406 102.175 93.666 135.052c46.9258 31.7939 97.875 40.8799 152.451 24.2412c37.3574 -11.3877 64.6826 -36.5068 86.9326 -67.5068
c16.6826 -23.2422 30.0957 -48.5186 39.2432 -75.582c10.5234 -31.1357 20.3535 -62.5908 28.5977 -94.3965c16.9727 -65.4844 29.0439 -132.021 38.3789 -198.998c9.33203 -66.9434 17.7949 -134.009 26.3125 -201.063c2.01562 -15.875 2.93457 -31.9023 3.96973 -47.8857z
" />
    <glyph glyph-name="a" unicode="&#xe5;" horiz-adv-x="488" 
d="M480.208 11.1338c0.810547 -12.5342 -0.46582 -24.8105 -5.2998 -36.6699c-5.99023 -14.6953 -15.6826 -26.3574 -29.9688 -32.6533c-34.9932 -15.4199 -70.335 -30.6123 -109.188 -32.9014c-105.882 -6.24023 -192.907 29.9189 -251.229 120.575
c-63.166 98.1865 -34.1611 222.014 63.7832 285.524c36.5391 23.6943 76.6309 36.9541 120.258 39.1885c11.4092 0.584961 22.7949 1.59473 37.584 2.65137c-11.3857 57.8848 -22.9795 112.615 -45.0195 164.431c-5.5332 13.0078 -12.666 25.5762 -20.6846 37.2314
c-15.3711 22.3428 -35.0947 29.21 -62.4502 12.5605c-26.3506 -16.0381 -42.3477 -39.9355 -46.9385 -71.0547c-1.41113 -9.55762 -2.66992 -19.6455 -6.71094 -28.2109c-11.4639 -24.3057 -37.5742 -37.1055 -64.1475 -33.0723
c-26.9824 4.09668 -50.1816 27.6035 -52.6875 56.2344c-1.21875 13.9424 -0.279297 28.7598 3.14648 42.3057c14.2891 56.5088 45.1406 102.175 93.666 135.052c46.9258 31.7939 97.875 40.8799 152.451 24.2412c37.3574 -11.3877 64.6826 -36.5068 86.9326 -67.5068
c16.6826 -23.2422 30.0957 -48.5186 39.2432 -75.582c10.5234 -31.1357 20.3535 -62.5908 28.5977 -94.3965c16.9727 -65.4844 29.0439 -132.021 38.3789 -198.998c9.33203 -66.9434 17.7949 -134.009 26.3125 -201.063c2.01562 -15.875 2.93457 -31.9023 3.96973 -47.8857z
" />
    <glyph glyph-name="a" unicode="&#xe4;" horiz-adv-x="488" 
d="M480.208 11.1338c0.810547 -12.5342 -0.46582 -24.8105 -5.2998 -36.6699c-5.99023 -14.6953 -15.6826 -26.3574 -29.9688 -32.6533c-34.9932 -15.4199 -70.335 -30.6123 -109.188 -32.9014c-105.882 -6.24023 -192.907 29.9189 -251.229 120.575
c-63.166 98.1865 -34.1611 222.014 63.7832 285.524c36.5391 23.6943 76.6309 36.9541 120.258 39.1885c11.4092 0.584961 22.7949 1.59473 37.584 2.65137c-11.3857 57.8848 -22.9795 112.615 -45.0195 164.431c-5.5332 13.0078 -12.666 25.5762 -20.6846 37.2314
c-15.3711 22.3428 -35.0947 29.21 -62.4502 12.5605c-26.3506 -16.0381 -42.3477 -39.9355 -46.9385 -71.0547c-1.41113 -9.55762 -2.66992 -19.6455 -6.71094 -28.2109c-11.4639 -24.3057 -37.5742 -37.1055 -64.1475 -33.0723
c-26.9824 4.09668 -50.1816 27.6035 -52.6875 56.2344c-1.21875 13.9424 -0.279297 28.7598 3.14648 42.3057c14.2891 56.5088 45.1406 102.175 93.666 135.052c46.9258 31.7939 97.875 40.8799 152.451 24.2412c37.3574 -11.3877 64.6826 -36.5068 86.9326 -67.5068
c16.6826 -23.2422 30.0957 -48.5186 39.2432 -75.582c10.5234 -31.1357 20.3535 -62.5908 28.5977 -94.3965c16.9727 -65.4844 29.0439 -132.021 38.3789 -198.998c9.33203 -66.9434 17.7949 -134.009 26.3125 -201.063c2.01562 -15.875 2.93457 -31.9023 3.96973 -47.8857z
" />
    <glyph glyph-name="a" unicode="&#xe3;" horiz-adv-x="488" 
d="M480.208 11.1338c0.810547 -12.5342 -0.46582 -24.8105 -5.2998 -36.6699c-5.99023 -14.6953 -15.6826 -26.3574 -29.9688 -32.6533c-34.9932 -15.4199 -70.335 -30.6123 -109.188 -32.9014c-105.882 -6.24023 -192.907 29.9189 -251.229 120.575
c-63.166 98.1865 -34.1611 222.014 63.7832 285.524c36.5391 23.6943 76.6309 36.9541 120.258 39.1885c11.4092 0.584961 22.7949 1.59473 37.584 2.65137c-11.3857 57.8848 -22.9795 112.615 -45.0195 164.431c-5.5332 13.0078 -12.666 25.5762 -20.6846 37.2314
c-15.3711 22.3428 -35.0947 29.21 -62.4502 12.5605c-26.3506 -16.0381 -42.3477 -39.9355 -46.9385 -71.0547c-1.41113 -9.55762 -2.66992 -19.6455 -6.71094 -28.2109c-11.4639 -24.3057 -37.5742 -37.1055 -64.1475 -33.0723
c-26.9824 4.09668 -50.1816 27.6035 -52.6875 56.2344c-1.21875 13.9424 -0.279297 28.7598 3.14648 42.3057c14.2891 56.5088 45.1406 102.175 93.666 135.052c46.9258 31.7939 97.875 40.8799 152.451 24.2412c37.3574 -11.3877 64.6826 -36.5068 86.9326 -67.5068
c16.6826 -23.2422 30.0957 -48.5186 39.2432 -75.582c10.5234 -31.1357 20.3535 -62.5908 28.5977 -94.3965c16.9727 -65.4844 29.0439 -132.021 38.3789 -198.998c9.33203 -66.9434 17.7949 -134.009 26.3125 -201.063c2.01562 -15.875 2.93457 -31.9023 3.96973 -47.8857z
" />
    <glyph glyph-name="a" unicode="&#xe2;" horiz-adv-x="488" 
d="M480.208 11.1338c0.810547 -12.5342 -0.46582 -24.8105 -5.2998 -36.6699c-5.99023 -14.6953 -15.6826 -26.3574 -29.9688 -32.6533c-34.9932 -15.4199 -70.335 -30.6123 -109.188 -32.9014c-105.882 -6.24023 -192.907 29.9189 -251.229 120.575
c-63.166 98.1865 -34.1611 222.014 63.7832 285.524c36.5391 23.6943 76.6309 36.9541 120.258 39.1885c11.4092 0.584961 22.7949 1.59473 37.584 2.65137c-11.3857 57.8848 -22.9795 112.615 -45.0195 164.431c-5.5332 13.0078 -12.666 25.5762 -20.6846 37.2314
c-15.3711 22.3428 -35.0947 29.21 -62.4502 12.5605c-26.3506 -16.0381 -42.3477 -39.9355 -46.9385 -71.0547c-1.41113 -9.55762 -2.66992 -19.6455 -6.71094 -28.2109c-11.4639 -24.3057 -37.5742 -37.1055 -64.1475 -33.0723
c-26.9824 4.09668 -50.1816 27.6035 -52.6875 56.2344c-1.21875 13.9424 -0.279297 28.7598 3.14648 42.3057c14.2891 56.5088 45.1406 102.175 93.666 135.052c46.9258 31.7939 97.875 40.8799 152.451 24.2412c37.3574 -11.3877 64.6826 -36.5068 86.9326 -67.5068
c16.6826 -23.2422 30.0957 -48.5186 39.2432 -75.582c10.5234 -31.1357 20.3535 -62.5908 28.5977 -94.3965c16.9727 -65.4844 29.0439 -132.021 38.3789 -198.998c9.33203 -66.9434 17.7949 -134.009 26.3125 -201.063c2.01562 -15.875 2.93457 -31.9023 3.96973 -47.8857z
" />
    <glyph glyph-name="a" unicode="&#xe1;" horiz-adv-x="488" 
d="M480.208 11.1338c0.810547 -12.5342 -0.46582 -24.8105 -5.2998 -36.6699c-5.99023 -14.6953 -15.6826 -26.3574 -29.9688 -32.6533c-34.9932 -15.4199 -70.335 -30.6123 -109.188 -32.9014c-105.882 -6.24023 -192.907 29.9189 -251.229 120.575
c-63.166 98.1865 -34.1611 222.014 63.7832 285.524c36.5391 23.6943 76.6309 36.9541 120.258 39.1885c11.4092 0.584961 22.7949 1.59473 37.584 2.65137c-11.3857 57.8848 -22.9795 112.615 -45.0195 164.431c-5.5332 13.0078 -12.666 25.5762 -20.6846 37.2314
c-15.3711 22.3428 -35.0947 29.21 -62.4502 12.5605c-26.3506 -16.0381 -42.3477 -39.9355 -46.9385 -71.0547c-1.41113 -9.55762 -2.66992 -19.6455 -6.71094 -28.2109c-11.4639 -24.3057 -37.5742 -37.1055 -64.1475 -33.0723
c-26.9824 4.09668 -50.1816 27.6035 -52.6875 56.2344c-1.21875 13.9424 -0.279297 28.7598 3.14648 42.3057c14.2891 56.5088 45.1406 102.175 93.666 135.052c46.9258 31.7939 97.875 40.8799 152.451 24.2412c37.3574 -11.3877 64.6826 -36.5068 86.9326 -67.5068
c16.6826 -23.2422 30.0957 -48.5186 39.2432 -75.582c10.5234 -31.1357 20.3535 -62.5908 28.5977 -94.3965c16.9727 -65.4844 29.0439 -132.021 38.3789 -198.998c9.33203 -66.9434 17.7949 -134.009 26.3125 -201.063c2.01562 -15.875 2.93457 -31.9023 3.96973 -47.8857z
" />
    <glyph glyph-name="a" unicode="&#xe0;" horiz-adv-x="488" 
d="M480.208 11.1338c0.810547 -12.5342 -0.46582 -24.8105 -5.2998 -36.6699c-5.99023 -14.6953 -15.6826 -26.3574 -29.9688 -32.6533c-34.9932 -15.4199 -70.335 -30.6123 -109.188 -32.9014c-105.882 -6.24023 -192.907 29.9189 -251.229 120.575
c-63.166 98.1865 -34.1611 222.014 63.7832 285.524c36.5391 23.6943 76.6309 36.9541 120.258 39.1885c11.4092 0.584961 22.7949 1.59473 37.584 2.65137c-11.3857 57.8848 -22.9795 112.615 -45.0195 164.431c-5.5332 13.0078 -12.666 25.5762 -20.6846 37.2314
c-15.3711 22.3428 -35.0947 29.21 -62.4502 12.5605c-26.3506 -16.0381 -42.3477 -39.9355 -46.9385 -71.0547c-1.41113 -9.55762 -2.66992 -19.6455 -6.71094 -28.2109c-11.4639 -24.3057 -37.5742 -37.1055 -64.1475 -33.0723
c-26.9824 4.09668 -50.1816 27.6035 -52.6875 56.2344c-1.21875 13.9424 -0.279297 28.7598 3.14648 42.3057c14.2891 56.5088 45.1406 102.175 93.666 135.052c46.9258 31.7939 97.875 40.8799 152.451 24.2412c37.3574 -11.3877 64.6826 -36.5068 86.9326 -67.5068
c16.6826 -23.2422 30.0957 -48.5186 39.2432 -75.582c10.5234 -31.1357 20.3535 -62.5908 28.5977 -94.3965c16.9727 -65.4844 29.0439 -132.021 38.3789 -198.998c9.33203 -66.9434 17.7949 -134.009 26.3125 -201.063c2.01562 -15.875 2.93457 -31.9023 3.96973 -47.8857z
" />
    <glyph glyph-name="b" unicode="b" horiz-adv-x="534" 
d="M478.969 396.349c62.9658 -80.9541 67.5078 -186.991 11.8789 -273.745c-41.457 -64.6562 -101.256 -104.566 -174.951 -123.426c-36.4873 -9.33594 -73.7656 -14.1484 -111.656 -7.83105c-8.97754 1.49707 -18.2422 1.18359 -27.3418 2.05078
c-38.5 3.66992 -61.9268 22.9287 -70.0928 60.7539c-6.63574 30.7383 -10.8818 62.0049 -15.8457 93.0918c-18.0938 113.352 -36.0518 226.726 -54.0469 340.094c-12.2627 77.251 -24.6172 154.488 -36.6152 231.78c-1.70605 10.9932 -2.61816 22.2998 -2.19629 33.3975
c1.16406 30.6865 22.9102 57.1016 51.6738 64.0859c32.7754 7.95996 65.2285 -5.59668 80.2324 -34.6738c4.56055 -8.83887 7.42871 -18.96 9.07227 -28.8281c10.3457 -62.123 19.8916 -124.379 30.2188 -186.505c3.79688 -22.8428 5.32422 -46.209 13.0781 -70.7363
c40.6523 5.78223 77.9736 9.08105 115.558 2.9668c73.002 -11.875 135.096 -43.4121 181.034 -102.476z" />
    <glyph glyph-name="c" unicode="c" horiz-adv-x="484" 
d="M485.137 185.132c4.48242 -28.9268 -11.1982 -59.4424 -39.4941 -72.5713c-13.625 -6.32129 -28.6738 -10.248 -43.4844 -13.2246c-72.8311 -14.6377 -144.032 -8.4248 -211.312 23.4189c-96.6387 45.7393 -155.109 122.153 -174.372 227.686
c-3.63477 19.9141 -4.82422 40.2744 -6.47656 54.6387c4.83691 118.676 50.166 212.203 132.864 287.753c53.6162 48.9805 116.444 81.0156 187.54 96.2412c13.8662 2.96875 28.0273 5.3877 42.1553 6.14062c46.3643 2.47266 81.5166 -32.7373 77.3506 -77.4961
c-2.71094 -29.1289 -19.4014 -48.5879 -46.1211 -59.0254c-9.31152 -3.6377 -19.624 -5.08398 -29.625 -6.52148c-101.871 -14.6484 -191.47 -95.8301 -214.776 -195.74c-7.95898 -34.1211 -7.71875 -68.2441 2.19531 -102.438
c16.3389 -56.3623 66.7842 -110.073 148.07 -117.705c25.2939 -2.37305 50.6094 -1.23535 75.6904 5.07422c13.543 3.40723 27.4033 6.52441 42.1094 3.23633c30.6543 -6.85449 52.9775 -29.0801 57.6865 -59.4668z" />
    <glyph glyph-name="c" unicode="&#xe7;" horiz-adv-x="484" 
d="M485.137 185.132c4.48242 -28.9268 -11.1982 -59.4424 -39.4941 -72.5713c-13.625 -6.32129 -28.6738 -10.248 -43.4844 -13.2246c-72.8311 -14.6377 -144.032 -8.4248 -211.312 23.4189c-96.6387 45.7393 -155.109 122.153 -174.372 227.686
c-3.63477 19.9141 -4.82422 40.2744 -6.47656 54.6387c4.83691 118.676 50.166 212.203 132.864 287.753c53.6162 48.9805 116.444 81.0156 187.54 96.2412c13.8662 2.96875 28.0273 5.3877 42.1553 6.14062c46.3643 2.47266 81.5166 -32.7373 77.3506 -77.4961
c-2.71094 -29.1289 -19.4014 -48.5879 -46.1211 -59.0254c-9.31152 -3.6377 -19.624 -5.08398 -29.625 -6.52148c-101.871 -14.6484 -191.47 -95.8301 -214.776 -195.74c-7.95898 -34.1211 -7.71875 -68.2441 2.19531 -102.438
c16.3389 -56.3623 66.7842 -110.073 148.07 -117.705c25.2939 -2.37305 50.6094 -1.23535 75.6904 5.07422c13.543 3.40723 27.4033 6.52441 42.1094 3.23633c30.6543 -6.85449 52.9775 -29.0801 57.6865 -59.4668z" />
    <glyph glyph-name="d" unicode="d" horiz-adv-x="482" 
d="M454.224 165.876c0.544922 -15.2412 2.4375 -30.5117 1.87891 -45.7012c-1.47949 -40.1035 -21.0645 -62.8018 -60.4141 -73.207c-23.501 -6.21484 -46.3115 -15.6641 -70.0957 -20.0645c-135.84 -25.1318 -272.918 58.5654 -311.435 186.55
c-36.5586 121.477 28.375 244.424 149.442 284.881c36.373 12.1543 73.5938 14.3447 111.4 12.1504c7.03906 -0.40918 14.0615 -1.11914 23.8789 -1.91602c0 19.4531 0.452148 35.6045 -0.0839844 51.7217c-1.72266 51.8516 -3.71777 103.694 -5.79688 155.534
c-1.01855 25.4082 -2.90625 50.7891 -3.51074 76.2031c-0.313477 13.1191 -0.405273 26.668 2.39551 39.3594c8.55762 38.7705 40.2627 56.1572 70.4854 55.8506c33.584 -0.341797 61.2422 -25.0078 67.3164 -59.6611c2.62109 -14.9512 3.29297 -30.3311 3.79883 -45.5518
c3.00586 -90.4951 5.50293 -181.008 8.5498 -271.5c3.86719 -114.89 8.07812 -229.767 12.1895 -344.648z" />
    <glyph glyph-name="e" unicode="e" horiz-adv-x="454" 
d="M447.107 236.972c0.482422 -10.0146 0.134766 -20.6885 -2.82031 -30.127c-7.5957 -24.2578 -17.375 -47.8027 -31.79 -68.9775c-36.5449 -53.6797 -88.2246 -72.2734 -150.873 -63.5049c-25.3838 3.55273 -48.7832 13.4434 -70.834 26.5947
c-41.7305 24.8887 -76.0049 57.3379 -102.525 98.2188c-45.4092 70.001 -68.2637 147.096 -72.0029 229.921c-2.61621 57.9365 -1.88965 115.897 9.23828 173.149c9.51367 48.9541 31.2148 91.9678 63.7451 129.79c48.2783 56.1328 122.226 68.4395 185.625 38.6172
c80.1191 -37.6865 133.378 -120.698 123.082 -215.745c-7.3584 -67.9404 -51.2529 -113.855 -119.117 -122.687c-22.1348 -2.88086 -44.4443 -4.59863 -66.7217 -6.15625c-17.2275 -1.20312 -33.8721 -4.41309 -51.1836 -9.76758
c3.55664 -46.4346 17.0752 -88.2891 39.7637 -127.591c14.5215 -25.1543 32.7178 -46.4902 57.4355 -61.8896c9.45898 -5.89258 19.0576 -11.9619 33.4512 -9.61719c2.85156 4.44727 7.09766 9.94141 10.123 16.04c4.95605 9.99121 8.51172 20.7002 13.7363 30.5332
c14.167 26.6543 49.3877 47.6055 88.9795 32.2725c31.2383 -12.0967 41.04 -24.8867 42.6885 -59.0742z" />
    <glyph glyph-name="e" unicode="&#xeb;" horiz-adv-x="454" 
d="M447.107 236.972c0.482422 -10.0146 0.134766 -20.6885 -2.82031 -30.127c-7.5957 -24.2578 -17.375 -47.8027 -31.79 -68.9775c-36.5449 -53.6797 -88.2246 -72.2734 -150.873 -63.5049c-25.3838 3.55273 -48.7832 13.4434 -70.834 26.5947
c-41.7305 24.8887 -76.0049 57.3379 -102.525 98.2188c-45.4092 70.001 -68.2637 147.096 -72.0029 229.921c-2.61621 57.9365 -1.88965 115.897 9.23828 173.149c9.51367 48.9541 31.2148 91.9678 63.7451 129.79c48.2783 56.1328 122.226 68.4395 185.625 38.6172
c80.1191 -37.6865 133.378 -120.698 123.082 -215.745c-7.3584 -67.9404 -51.2529 -113.855 -119.117 -122.687c-22.1348 -2.88086 -44.4443 -4.59863 -66.7217 -6.15625c-17.2275 -1.20312 -33.8721 -4.41309 -51.1836 -9.76758
c3.55664 -46.4346 17.0752 -88.2891 39.7637 -127.591c14.5215 -25.1543 32.7178 -46.4902 57.4355 -61.8896c9.45898 -5.89258 19.0576 -11.9619 33.4512 -9.61719c2.85156 4.44727 7.09766 9.94141 10.123 16.04c4.95605 9.99121 8.51172 20.7002 13.7363 30.5332
c14.167 26.6543 49.3877 47.6055 88.9795 32.2725c31.2383 -12.0967 41.04 -24.8867 42.6885 -59.0742z" />
    <glyph glyph-name="e" unicode="&#xea;" horiz-adv-x="454" 
d="M447.107 236.972c0.482422 -10.0146 0.134766 -20.6885 -2.82031 -30.127c-7.5957 -24.2578 -17.375 -47.8027 -31.79 -68.9775c-36.5449 -53.6797 -88.2246 -72.2734 -150.873 -63.5049c-25.3838 3.55273 -48.7832 13.4434 -70.834 26.5947
c-41.7305 24.8887 -76.0049 57.3379 -102.525 98.2188c-45.4092 70.001 -68.2637 147.096 -72.0029 229.921c-2.61621 57.9365 -1.88965 115.897 9.23828 173.149c9.51367 48.9541 31.2148 91.9678 63.7451 129.79c48.2783 56.1328 122.226 68.4395 185.625 38.6172
c80.1191 -37.6865 133.378 -120.698 123.082 -215.745c-7.3584 -67.9404 -51.2529 -113.855 -119.117 -122.687c-22.1348 -2.88086 -44.4443 -4.59863 -66.7217 -6.15625c-17.2275 -1.20312 -33.8721 -4.41309 -51.1836 -9.76758
c3.55664 -46.4346 17.0752 -88.2891 39.7637 -127.591c14.5215 -25.1543 32.7178 -46.4902 57.4355 -61.8896c9.45898 -5.89258 19.0576 -11.9619 33.4512 -9.61719c2.85156 4.44727 7.09766 9.94141 10.123 16.04c4.95605 9.99121 8.51172 20.7002 13.7363 30.5332
c14.167 26.6543 49.3877 47.6055 88.9795 32.2725c31.2383 -12.0967 41.04 -24.8867 42.6885 -59.0742z" />
    <glyph glyph-name="e" unicode="&#xe9;" horiz-adv-x="454" 
d="M447.107 236.972c0.482422 -10.0146 0.134766 -20.6885 -2.82031 -30.127c-7.5957 -24.2578 -17.375 -47.8027 -31.79 -68.9775c-36.5449 -53.6797 -88.2246 -72.2734 -150.873 -63.5049c-25.3838 3.55273 -48.7832 13.4434 -70.834 26.5947
c-41.7305 24.8887 -76.0049 57.3379 -102.525 98.2188c-45.4092 70.001 -68.2637 147.096 -72.0029 229.921c-2.61621 57.9365 -1.88965 115.897 9.23828 173.149c9.51367 48.9541 31.2148 91.9678 63.7451 129.79c48.2783 56.1328 122.226 68.4395 185.625 38.6172
c80.1191 -37.6865 133.378 -120.698 123.082 -215.745c-7.3584 -67.9404 -51.2529 -113.855 -119.117 -122.687c-22.1348 -2.88086 -44.4443 -4.59863 -66.7217 -6.15625c-17.2275 -1.20312 -33.8721 -4.41309 -51.1836 -9.76758
c3.55664 -46.4346 17.0752 -88.2891 39.7637 -127.591c14.5215 -25.1543 32.7178 -46.4902 57.4355 -61.8896c9.45898 -5.89258 19.0576 -11.9619 33.4512 -9.61719c2.85156 4.44727 7.09766 9.94141 10.123 16.04c4.95605 9.99121 8.51172 20.7002 13.7363 30.5332
c14.167 26.6543 49.3877 47.6055 88.9795 32.2725c31.2383 -12.0967 41.04 -24.8867 42.6885 -59.0742z" />
    <glyph glyph-name="e" unicode="&#xe8;" horiz-adv-x="454" 
d="M447.107 236.972c0.482422 -10.0146 0.134766 -20.6885 -2.82031 -30.127c-7.5957 -24.2578 -17.375 -47.8027 -31.79 -68.9775c-36.5449 -53.6797 -88.2246 -72.2734 -150.873 -63.5049c-25.3838 3.55273 -48.7832 13.4434 -70.834 26.5947
c-41.7305 24.8887 -76.0049 57.3379 -102.525 98.2188c-45.4092 70.001 -68.2637 147.096 -72.0029 229.921c-2.61621 57.9365 -1.88965 115.897 9.23828 173.149c9.51367 48.9541 31.2148 91.9678 63.7451 129.79c48.2783 56.1328 122.226 68.4395 185.625 38.6172
c80.1191 -37.6865 133.378 -120.698 123.082 -215.745c-7.3584 -67.9404 -51.2529 -113.855 -119.117 -122.687c-22.1348 -2.88086 -44.4443 -4.59863 -66.7217 -6.15625c-17.2275 -1.20312 -33.8721 -4.41309 -51.1836 -9.76758
c3.55664 -46.4346 17.0752 -88.2891 39.7637 -127.591c14.5215 -25.1543 32.7178 -46.4902 57.4355 -61.8896c9.45898 -5.89258 19.0576 -11.9619 33.4512 -9.61719c2.85156 4.44727 7.09766 9.94141 10.123 16.04c4.95605 9.99121 8.51172 20.7002 13.7363 30.5332
c14.167 26.6543 49.3877 47.6055 88.9795 32.2725c31.2383 -12.0967 41.04 -24.8867 42.6885 -59.0742z" />
    <glyph glyph-name="f" unicode="f" horiz-adv-x="483" 
d="M496.093 735.656c9.45996 -30.7021 -2.19824 -62.9258 -28.7197 -79.9795c-27.1465 -17.4541 -63.8232 -14.0801 -87.1143 8.5791c-5.75195 5.59473 -11.2227 12.084 -14.8027 19.1826c-7.36816 14.6074 -20.9004 19.0508 -34.748 21.8789
c-6.26074 1.27832 -14.1152 -1.13477 -20.2246 -4.0332c-17.2451 -8.18164 -29.1475 -22.4756 -36.4902 -39.5264c-6.7832 -15.748 -13.3154 -32.2783 -15.8076 -49.082c-9.28711 -62.5996 -10.6172 -125.611 -5.04688 -188.701
c0.349609 -3.96973 1.6875 -7.85254 3.30957 -15.0977c20.0713 0 38.2734 0.0292969 56.4756 -0.0107422c10.1533 -0.0214844 20.3164 0.0976562 30.458 -0.287109c39.707 -1.50781 65.9219 -37.6914 66.0039 -67.4277
c0.105469 -37.6377 -25.4326 -68.3926 -63.9541 -72.9199c-16.0762 -1.88965 -32.5088 -0.56543 -48.7529 -1.27441c-9.88965 -0.432617 -20.3457 2.42383 -29.2686 -3.51465c-0.893555 -2.34863 -2.28223 -4.23047 -2.20312 -6.04785
c2.12012 -48.7744 4.23242 -97.5488 6.68262 -146.307c2.39746 -47.7461 5.63379 -95.457 7.46191 -143.224c0.496094 -12.959 -0.930664 -26.6211 -4.67383 -38.9902c-9.46777 -31.29 -36.6738 -49.0801 -69.7676 -47.8105
c-30.5674 1.17285 -56.9346 21.4336 -64.165 51.4785c-3.53711 14.6943 -4.58594 30.1426 -5.36914 45.3213c-4.61816 89.3896 -8.81348 178.801 -13.2119 268.203c-0.195312 3.9541 -0.978516 7.88086 -1.52637 12.1348c-9.50098 7.15039 -19.9375 3.6543 -29.6895 3.79492
c-15.2393 0.219727 -30.3584 -0.405273 -45.2598 4.53516c-30.6729 10.1699 -51.3604 37.6719 -50.6689 68.6211c0.698242 31.1924 22.2666 58.3955 53.4268 66.3135c9.78125 2.48633 19.9932 3.63965 30.082 4.45215c9.04785 0.730469 18.1992 0.154297 26.083 0.154297
c8.00586 9.77051 4.8623 19.2256 4.92188 28.0293c0.295898 43.7344 -0.231445 87.4795 0.445312 131.206c0.617188 39.8438 6.94922 78.9824 18.4678 117.152c13.5146 44.7861 37.0674 83.5381 71.8438 114.983c41.2217 37.2754 89.2754 56.6094 145.237 49.623
c45.3682 -5.66504 86.3301 -22.5186 118.562 -56.5664c14.9062 -15.7461 25.6113 -34.1016 32.0029 -54.8438z" />
    <glyph glyph-name="g" unicode="g" horiz-adv-x="547" 
d="M466.182 560.893c41.8652 -121.779 63.5557 -246.991 62.5508 -375.822c-0.498047 -63.5449 -7.27637 -126.467 -25.5684 -187.715c-8.55859 -28.6562 -19.4014 -56.332 -34.2607 -82.3525c-12.0928 -21.1758 -26.4199 -40.6797 -44.4814 -57.124
c-53.2383 -48.4736 -113.702 -60.1113 -181.168 -34.8496c-37.4414 14.0195 -68.3115 37.793 -95.9297 65.9717c-43.4902 44.3691 -76.5332 96.0391 -103.634 151.665c-7.9375 16.292 -11.3525 32.9775 -5.97949 51.3643c14.457 49.4688 75.79 60.8164 107.547 27.3818
c7.55273 -7.95117 12.8721 -18.1152 18.7412 -27.5596c15.7158 -25.291 30.0645 -51.5195 47.1133 -75.8633c11.6553 -16.6426 26.2012 -31.5049 40.8613 -45.71c9.22168 -8.93652 20.4199 -16.3672 31.8291 -22.3926c23.415 -12.3652 39.708 -9.25586 56.751 11.5752
c9.31641 11.3848 16.8877 24.5518 23.3711 37.832c14.8545 30.4238 22.1104 63.3174 26.8086 96.5605c12.0967 85.6064 8.42773 170.928 -7.19043 262.337c-8.24414 -11.8154 -13.0186 -18.3809 -17.5059 -25.1377c-20.2383 -30.4707 -43.9053 -57.8838 -72.124 -81.2471
c-21.6934 -17.9609 -45.4473 -32.3379 -72.1152 -41.79c-29.7227 -10.5352 -60.0986 -13.1152 -90.6523 -5.68066c-42.3486 10.3047 -72.4746 36.6904 -92.8057 74.7383c-19.9209 37.2783 -26.0273 77.666 -23.958 119.128c4.97168 99.5967 42.4229 186.197 107.902 260.809
c26.7129 30.4395 58.0303 55.2842 95.6797 71.0537c34.3799 14.3994 70.1533 20.3467 106.235 8.42871c22.7832 -7.52539 44.6221 -18.1982 66.3125 -28.6465c13.9912 -6.73828 21.6006 -20.082 28.3379 -33.6064c18.2969 -36.7305 33.9912 -74.54 47.332 -113.348z" />
    <glyph glyph-name="h" unicode="h" horiz-adv-x="566" 
d="M563.419 16.3535c0.305664 -11.9375 -1.77344 -24.4863 -5.47852 -35.8721c-9.91406 -30.4922 -37.916 -48.1768 -70.8145 -46.46c-30.7139 1.60352 -56.0107 22.0146 -63.1094 52.5957c-2.72363 11.7314 -3.31445 24.1543 -3.37598 36.2705
c-0.268555 54.1445 -5.34375 107.621 -20.8828 159.713c-10.5205 35.2656 -24.0586 69.3613 -47.2227 98.3555c-10.6641 13.3457 -22.8545 26.2666 -36.6689 36.1318c-32.8291 23.4424 -67.7998 22.0039 -104.328 5.21875
c0.760742 -8.45703 0.947266 -15.4395 2.06836 -22.2695c15.8047 -96.2627 31.6533 -192.518 47.7432 -288.731c2.04004 -12.2061 2.86133 -24.0273 -0.269531 -36.2139c-7.94629 -30.9297 -31.1846 -51.2686 -62.3633 -53.8691
c-31.8682 -2.65918 -61.499 14.7715 -71.8525 45.1787c-6.16992 18.123 -9.00586 37.501 -12.1641 56.5098c-25.4873 153.373 -50.5762 306.814 -76.0352 460.192c-14.9756 90.2217 -30.4717 180.356 -45.5244 270.564c-1.49805 8.98047 -2.23535 18.2148 -2.12988 27.3164
c0.404297 34.8438 24.4932 63.8408 57.043 69.3516c34.1289 5.77637 65.4229 -11.4131 78.6572 -43.6787c2.66504 -6.49707 4.29004 -13.5469 5.5 -20.498c7.83691 -45.0488 15.5605 -90.1182 23.0625 -135.224c8.83496 -53.127 17.3086 -106.313 26.207 -159.43
c1.31152 -7.82617 4.10059 -15.4062 6.34375 -23.6064c9.35059 1.72852 17.1934 3.00879 24.9609 4.6416c82.0771 17.2461 152.478 -6.75195 213.881 -61.252c33.1367 -29.4092 57.6221 -65.4844 77.3916 -104.918c29.9697 -59.7832 46.7383 -123.464 53.877 -189.592
c3.59375 -33.2939 4.62891 -66.917 5.48438 -100.426z" />
    <glyph glyph-name="i" unicode="i" horiz-adv-x="227" 
d="M208.912 143.165c0 -6.13184 0.239258 -12.2441 -0.0390625 -18.3301c-1.7334 -37.833 -28.6201 -66.2305 -64.6289 -68.4023c-38.6914 -2.33496 -69.3154 21.6865 -75.7773 59.9365c-2.0293 12.0127 -3.21094 24.1973 -4.22168 36.3496
c-4.89062 58.752 -9.49512 117.527 -14.3857 176.278c-5.05957 60.7744 -10.2188 121.541 -15.5889 182.288c-1.4375 16.2568 -3.0166 32.2373 2.41016 48.2637c10.5293 31.0928 37.0566 50.4863 69.0645 49.6064c30.5967 -0.841797 56.7686 -20.5117 65.7031 -50.1309
c2.625 -8.70215 4.3916 -17.8428 5.15723 -26.9014c4.79102 -56.7178 9.03711 -113.481 13.7529 -170.205c5.05371 -60.7744 10.4404 -121.522 15.6484 -182.284c1.04199 -12.1543 1.94141 -24.3193 2.90527 -36.4688zM61.1084 660.961
c-33.042 -1.49512 -70.4453 27.4609 -69.0723 72.8906c1.27637 42.2568 35.7676 70.7227 72.8018 69.9541c41.6436 -0.864258 69.375 -34.7715 69.167 -69.9893c-0.254883 -43.293 -34.4893 -74.9873 -72.8965 -72.8555z" />
    <glyph glyph-name="i" unicode="&#xef;" horiz-adv-x="227" 
d="M208.912 143.165c0 -6.13184 0.239258 -12.2441 -0.0390625 -18.3301c-1.7334 -37.833 -28.6201 -66.2305 -64.6289 -68.4023c-38.6914 -2.33496 -69.3154 21.6865 -75.7773 59.9365c-2.0293 12.0127 -3.21094 24.1973 -4.22168 36.3496
c-4.89062 58.752 -9.49512 117.527 -14.3857 176.278c-5.05957 60.7744 -10.2188 121.541 -15.5889 182.288c-1.4375 16.2568 -3.0166 32.2373 2.41016 48.2637c10.5293 31.0928 37.0566 50.4863 69.0645 49.6064c30.5967 -0.841797 56.7686 -20.5117 65.7031 -50.1309
c2.625 -8.70215 4.3916 -17.8428 5.15723 -26.9014c4.79102 -56.7178 9.03711 -113.481 13.7529 -170.205c5.05371 -60.7744 10.4404 -121.522 15.6484 -182.284c1.04199 -12.1543 1.94141 -24.3193 2.90527 -36.4688zM61.1084 660.961
c-33.042 -1.49512 -70.4453 27.4609 -69.0723 72.8906c1.27637 42.2568 35.7676 70.7227 72.8018 69.9541c41.6436 -0.864258 69.375 -34.7715 69.167 -69.9893c-0.254883 -43.293 -34.4893 -74.9873 -72.8965 -72.8555z" />
    <glyph glyph-name="i" unicode="&#xee;" horiz-adv-x="227" 
d="M208.912 143.165c0 -6.13184 0.239258 -12.2441 -0.0390625 -18.3301c-1.7334 -37.833 -28.6201 -66.2305 -64.6289 -68.4023c-38.6914 -2.33496 -69.3154 21.6865 -75.7773 59.9365c-2.0293 12.0127 -3.21094 24.1973 -4.22168 36.3496
c-4.89062 58.752 -9.49512 117.527 -14.3857 176.278c-5.05957 60.7744 -10.2188 121.541 -15.5889 182.288c-1.4375 16.2568 -3.0166 32.2373 2.41016 48.2637c10.5293 31.0928 37.0566 50.4863 69.0645 49.6064c30.5967 -0.841797 56.7686 -20.5117 65.7031 -50.1309
c2.625 -8.70215 4.3916 -17.8428 5.15723 -26.9014c4.79102 -56.7178 9.03711 -113.481 13.7529 -170.205c5.05371 -60.7744 10.4404 -121.522 15.6484 -182.284c1.04199 -12.1543 1.94141 -24.3193 2.90527 -36.4688zM61.1084 660.961
c-33.042 -1.49512 -70.4453 27.4609 -69.0723 72.8906c1.27637 42.2568 35.7676 70.7227 72.8018 69.9541c41.6436 -0.864258 69.375 -34.7715 69.167 -69.9893c-0.254883 -43.293 -34.4893 -74.9873 -72.8965 -72.8555z" />
    <glyph glyph-name="i" unicode="&#xed;" horiz-adv-x="227" 
d="M208.912 143.165c0 -6.13184 0.239258 -12.2441 -0.0390625 -18.3301c-1.7334 -37.833 -28.6201 -66.2305 -64.6289 -68.4023c-38.6914 -2.33496 -69.3154 21.6865 -75.7773 59.9365c-2.0293 12.0127 -3.21094 24.1973 -4.22168 36.3496
c-4.89062 58.752 -9.49512 117.527 -14.3857 176.278c-5.05957 60.7744 -10.2188 121.541 -15.5889 182.288c-1.4375 16.2568 -3.0166 32.2373 2.41016 48.2637c10.5293 31.0928 37.0566 50.4863 69.0645 49.6064c30.5967 -0.841797 56.7686 -20.5117 65.7031 -50.1309
c2.625 -8.70215 4.3916 -17.8428 5.15723 -26.9014c4.79102 -56.7178 9.03711 -113.481 13.7529 -170.205c5.05371 -60.7744 10.4404 -121.522 15.6484 -182.284c1.04199 -12.1543 1.94141 -24.3193 2.90527 -36.4688zM61.1084 660.961
c-33.042 -1.49512 -70.4453 27.4609 -69.0723 72.8906c1.27637 42.2568 35.7676 70.7227 72.8018 69.9541c41.6436 -0.864258 69.375 -34.7715 69.167 -69.9893c-0.254883 -43.293 -34.4893 -74.9873 -72.8965 -72.8555z" />
    <glyph glyph-name="i" unicode="&#xec;" horiz-adv-x="227" 
d="M208.912 143.165c0 -6.13184 0.239258 -12.2441 -0.0390625 -18.3301c-1.7334 -37.833 -28.6201 -66.2305 -64.6289 -68.4023c-38.6914 -2.33496 -69.3154 21.6865 -75.7773 59.9365c-2.0293 12.0127 -3.21094 24.1973 -4.22168 36.3496
c-4.89062 58.752 -9.49512 117.527 -14.3857 176.278c-5.05957 60.7744 -10.2188 121.541 -15.5889 182.288c-1.4375 16.2568 -3.0166 32.2373 2.41016 48.2637c10.5293 31.0928 37.0566 50.4863 69.0645 49.6064c30.5967 -0.841797 56.7686 -20.5117 65.7031 -50.1309
c2.625 -8.70215 4.3916 -17.8428 5.15723 -26.9014c4.79102 -56.7178 9.03711 -113.481 13.7529 -170.205c5.05371 -60.7744 10.4404 -121.522 15.6484 -182.284c1.04199 -12.1543 1.94141 -24.3193 2.90527 -36.4688zM61.1084 660.961
c-33.042 -1.49512 -70.4453 27.4609 -69.0723 72.8906c1.27637 42.2568 35.7676 70.7227 72.8018 69.9541c41.6436 -0.864258 69.375 -34.7715 69.167 -69.9893c-0.254883 -43.293 -34.4893 -74.9873 -72.8965 -72.8555z" />
    <glyph glyph-name="j" unicode="j" horiz-adv-x="464" 
d="M438.512 491.122c4.49805 -59.9189 4.53516 -119.966 0.0664062 -179.874c-5.46289 -73.2129 -17.4189 -145.288 -42.332 -214.719c-11.374 -31.6963 -25.5225 -62.0225 -45.0918 -89.5977c-12.4443 -17.5361 -26.8145 -33.2646 -44.291 -45.9014
c-49.5322 -35.8135 -109.31 -35.7871 -158.983 -0.138672c-21.8018 15.6445 -38.9092 35.6396 -53.6309 57.8252c-18.0889 27.2588 -31.7842 56.7617 -42.7744 87.4424c-25.876 72.2295 -39.8174 146.983 -45.7422 223.336
c-0.549805 7.08789 -0.918945 14.2422 -0.636719 21.335c1.54102 38.7031 29.5361 68.3525 67.1416 69.4473c39.8438 1.15918 66.9668 -25.6064 73.0137 -60.293c3.3125 -18.9961 4.35254 -38.3809 6.74609 -57.5488c6.56738 -52.5879 16.8555 -104.379 36.29 -153.863
c6.6543 -16.9443 15.3037 -33.1553 23.8311 -49.2832c3.18164 -6.01562 8.61719 -10.8408 14.9268 -18.5234c18.584 20.5625 27.1475 42.3291 35.1035 64.2676c16.0273 44.1982 24.5127 90.1924 30.1748 136.656c5.29395 43.4346 7.25195 87.0859 6.83984 130.916
c-0.691406 73.5488 -9.37988 145.987 -26.583 217.468c-2.36426 9.8252 -4.67969 19.9043 -5.01562 29.9326c-1.21875 36.3652 21.3057 64.5771 56.8906 72.5254c30.0312 6.70605 63.3916 -10.7383 77.4873 -41.0557c3.39648 -7.30664 5.52734 -15.2656 7.66992 -23.0811
c15.918 -58.0576 24.4033 -117.39 28.8994 -177.272zM300.025 760.785c-41.4219 0.172852 -74.7676 32.8779 -74.3828 72.959c0.375977 39.2451 33.7227 71.0449 73.3457 69.9404c40.5586 -1.12891 72.6641 -32.4629 72.9736 -71.2207
c0.311523 -39.0557 -32.5938 -71.8418 -71.9365 -71.6787z" />
    <glyph glyph-name="k" unicode="k" horiz-adv-x="444" 
d="M427.743 101.25c3.42871 -16.7881 4.07617 -34.3174 4.36328 -51.5381c0.65625 -38.6738 -28.998 -68.2148 -65.71 -71.0156c-36.3662 -2.77344 -70.4541 24.1035 -74.3926 62.0537c-5.2832 50.9062 -18.6963 99.8086 -31.3809 148.976
c-9.93164 38.4971 -23.8623 75.5508 -42.3184 110.82c-1.82617 3.49121 -4.38086 6.60059 -7.63379 11.4258c-5.72266 -2.58594 -10.9355 -4.9375 -17.0781 -7.71289c0 -9.35938 -0.661133 -18.4609 0.108398 -27.4395c4.86328 -56.7305 10.2695 -113.415 15.0088 -170.154
c1.86035 -22.2676 3.99414 -44.6895 3.25781 -66.9512c-0.988281 -29.8799 -21.8623 -54.085 -50.1201 -62.0547c-41.8525 -11.8047 -82.9121 14.8496 -89.873 58.7822c-2.22363 14.0439 -3.34473 28.2803 -4.56348 42.4629
c-4.87988 56.7314 -9.49121 113.486 -14.4062 170.215c-5.09082 58.7539 -10.4414 117.483 -15.6377 176.228c-4.66016 52.667 -9.38672 105.33 -13.8652 158.015c-4.73438 55.7236 -9.28906 111.463 -13.7178 167.211
c-0.722656 9.10156 -1.10938 18.3398 -0.427734 27.4229c2.47754 33.0352 25.7197 57.8447 59.459 64.1895c27.9277 5.25195 59.9336 -11.0859 73.0869 -38.5332c4.30273 -8.97559 7.21484 -19.1689 8.24121 -29.0674c4.50684 -43.4854 8.14355 -87.0625 11.9971 -130.615
c4.39062 -49.6299 8.6582 -99.2705 13.0859 -148.896c0.160156 -1.79004 1.45801 -3.47754 4.37207 -10.0605c25.793 30.583 48.1738 59.2217 66.2021 91.1182c8.00195 14.1582 15.5869 28.5605 23.8906 42.5352c4.65039 7.8291 9.70898 15.6211 15.7529 22.3828
c24.4326 27.334 61.042 32.6807 91.0215 13.8535c29.1729 -18.3203 40.333 -55.2578 26.6787 -88.5693c-1.53809 -3.75293 -3.36621 -7.41504 -5.36426 -10.9463c-24.5117 -43.3496 -47.6943 -87.5361 -79.6025 -126.223
c-2.5293 -3.06641 -4.43262 -6.65137 -6.55664 -9.88574c45.5977 -62.0332 71.4141 -132.103 89.916 -205.253c9.46289 -37.4141 18.4844 -74.9746 26.2061 -112.775z" />
    <glyph glyph-name="l" unicode="l" horiz-adv-x="232" 
d="M213.753 87.6826c0.569336 -6.06348 1.04688 -12.1357 1.8916 -22.0293c-1.28125 -6.31836 -2.26367 -16.5342 -5.47559 -25.9912c-10.0957 -29.7383 -35.9854 -46.6865 -67.5107 -46.9717c-26.7861 -0.244141 -56.0176 17.9014 -65.9512 49.5596
c-3.0166 9.61621 -4.63965 19.8418 -5.58203 29.9111c-6.90137 73.8096 -13.2842 147.67 -20.1904 221.481c-7.0957 75.833 -14.7061 151.617 -21.8877 227.441c-4.97754 52.5713 -9.56543 105.183 -14.4189 157.766c-1.58496 17.1895 -3.6084 34.3398 -5.1543 51.5342
c-1.19141 13.2588 -0.286133 26.2041 4.6084 38.9463c9.86133 25.6689 34.6826 46.7285 68.9258 45.7939c30.2832 -0.825195 56.7402 -22.2451 64.9414 -51.3711c2.7373 -9.71973 4.2168 -19.916 5.16504 -29.998c4.94043 -52.5762 9.37598 -105.199 14.2754 -157.778
c4.99609 -53.5898 10.374 -107.143 15.4971 -160.721c4.73438 -49.5332 9.35742 -99.0791 14.0244 -148.62c5.61914 -59.6504 11.2363 -119.302 16.8418 -178.953z" />
    <glyph glyph-name="m" unicode="m" horiz-adv-x="769" 
d="M755.322 188.962c0.390625 -9.12988 0.730469 -18.3535 -0.0703125 -27.4287c-3.20996 -36.5527 -32.5342 -64.127 -68.6377 -65.0723c-35.5771 -0.931641 -67.1035 25.7471 -71.3984 62.1406c-3.0957 26.2266 -4.14648 52.6973 -6.03125 79.0664
c-4.56934 63.9512 -12.5127 127.453 -25.6426 190.239c-7.09473 33.9209 -17.3232 66.874 -32.1064 98.2998c-8.29492 17.6338 -18.7998 33.7803 -33.4209 46.8711c-12.3027 11.0166 -25.0957 12.2295 -38.8994 3.22461
c-22.4424 -14.6387 -36.1299 -35.6846 -40.9932 -61.7832c-4.2793 -22.9688 -6.38086 -46.0811 -4.39551 -69.7588c5.69238 -67.8857 10.6436 -135.821 20.4873 -203.288c1.02051 -6.98926 0.990234 -14.2471 0.516602 -21.3184
c-2.23438 -33.3008 -26.6758 -60.9951 -57.7471 -65.8721c-35.5498 -5.5791 -68.1621 12.9199 -79.8369 46.4258c-3.97559 11.4131 -5.7041 23.6777 -7.79688 35.6689c-12.0596 69.1377 -25.9639 137.882 -49.6094 204.113
c-9.19238 25.749 -21.1025 50.584 -32.7891 75.3564c-6.02637 12.7773 -13.5771 25.0342 -26.8389 35.2109c-3.32031 -3.03027 -7.51074 -5.63867 -10.043 -9.37305c-12.2168 -18.0176 -17.6338 -38.54 -21.7266 -59.6777
c-9.3916 -48.501 -6.80566 -97.2676 -3.49316 -145.972c2.62109 -38.5342 6.66406 -76.9746 10.4121 -115.425c0.882812 -9.05664 3.37402 -17.9453 4.69629 -26.9736c5.43262 -37.0859 -15.3662 -72.0273 -49.8574 -80.4629
c-42.4072 -10.3721 -73.5117 10.5293 -87.6699 42.752c-3.62012 8.24121 -5.88184 17.4795 -6.76758 26.458c-6.98438 70.8252 -14.5244 141.645 -16.4521 212.835c-1.3252 48.9785 3.52539 97.5469 16.0107 145.052c11.0273 41.9629 30.6455 79.5391 60.0781 111.677
c32.4014 35.3799 72.3936 50.7158 120.315 46.374c29.75 -2.69531 54.4111 -15.6006 75.7568 -35.4551c12.5312 -11.6553 24.0684 -24.3779 38.0508 -38.6611c18.3779 25.1719 36.4307 45.7871 58.5098 62.4785c50.6729 38.3096 106.412 48.21 166.902 28.6699
c25.6572 -8.28906 46.8545 -24.0674 65.8389 -42.8809c25.5469 -25.3193 45.3213 -54.6084 60.6191 -87.166c23.9648 -51.0068 38.5156 -104.849 48.3008 -160.03c13.8633 -78.167 22.3242 -156.983 25.7285 -236.314z" />
    <glyph glyph-name="n" unicode="n" horiz-adv-x="562" 
d="M543.287 177.399c1.00977 -16.209 1.23633 -32.5615 0.369141 -48.7705c-0.701172 -13.1182 -2.18457 -26.5205 -5.78613 -39.0898c-7.60156 -26.5293 -34.957 -56.4658 -80.7412 -49.5273c-34.5518 5.2373 -61.6826 37.5186 -58.584 70.8672
c3.40723 36.6602 1.8418 73.1904 -0.229492 109.643c-5.25098 92.3789 -13.1885 184.555 -36.5742 274.491c-6.36426 24.4746 -14.8242 48.5771 -24.4795 71.957c-5.30762 12.8525 -13.7266 25.1074 -23.1436 35.4424c-29.4131 32.2793 -72.7598 34.9307 -106.574 7.30762
c-24.8994 -20.3408 -38.2617 -47.2578 -40.7344 -79.0547c-1.73047 -22.2637 -3.38281 -44.7822 -1.99121 -66.9941c4.76562 -76.0576 10.875 -152.031 16.5137 -228.034c0.828125 -11.1475 1.46191 -22.335 2.91895 -33.4062
c3.1748 -24.1172 5.32031 -48.5107 10.6396 -72.1719c7.32812 -32.5967 -9.15918 -67.2754 -39.3916 -81.0654c-31.7188 -14.4668 -69.1484 -4.36035 -89.5605 24.1426c-8.44629 11.7939 -13.3809 25.0508 -15.082 39.4287
c-3.46191 29.2598 -7.48438 58.4766 -9.9873 87.8223c-6.7373 78.9785 -12.7979 158.015 -17.8057 220.549c-3.29395 66.4258 -4.17969 116.494 9.2793 164.982c27.7373 99.9453 91.9189 162.713 194.487 183.677c21.9795 4.49219 44.3145 3.56641 66.5645 -0.991211
c75.7598 -15.5186 130.14 -58.9209 166.234 -126.431c19.2959 -36.0889 31.5781 -74.8369 41.3516 -114.33c16.3818 -66.2021 26.96 -133.409 32.0186 -201.436c3.69336 -49.6514 7.19727 -99.3174 10.2881 -149.008z" />
    <glyph glyph-name="n" unicode="&#xf1;" horiz-adv-x="562" 
d="M543.287 177.399c1.00977 -16.209 1.23633 -32.5615 0.369141 -48.7705c-0.701172 -13.1182 -2.18457 -26.5205 -5.78613 -39.0898c-7.60156 -26.5293 -34.957 -56.4658 -80.7412 -49.5273c-34.5518 5.2373 -61.6826 37.5186 -58.584 70.8672
c3.40723 36.6602 1.8418 73.1904 -0.229492 109.643c-5.25098 92.3789 -13.1885 184.555 -36.5742 274.491c-6.36426 24.4746 -14.8242 48.5771 -24.4795 71.957c-5.30762 12.8525 -13.7266 25.1074 -23.1436 35.4424c-29.4131 32.2793 -72.7598 34.9307 -106.574 7.30762
c-24.8994 -20.3408 -38.2617 -47.2578 -40.7344 -79.0547c-1.73047 -22.2637 -3.38281 -44.7822 -1.99121 -66.9941c4.76562 -76.0576 10.875 -152.031 16.5137 -228.034c0.828125 -11.1475 1.46191 -22.335 2.91895 -33.4062
c3.1748 -24.1172 5.32031 -48.5107 10.6396 -72.1719c7.32812 -32.5967 -9.15918 -67.2754 -39.3916 -81.0654c-31.7188 -14.4668 -69.1484 -4.36035 -89.5605 24.1426c-8.44629 11.7939 -13.3809 25.0508 -15.082 39.4287
c-3.46191 29.2598 -7.48438 58.4766 -9.9873 87.8223c-6.7373 78.9785 -12.7979 158.015 -17.8057 220.549c-3.29395 66.4258 -4.17969 116.494 9.2793 164.982c27.7373 99.9453 91.9189 162.713 194.487 183.677c21.9795 4.49219 44.3145 3.56641 66.5645 -0.991211
c75.7598 -15.5186 130.14 -58.9209 166.234 -126.431c19.2959 -36.0889 31.5781 -74.8369 41.3516 -114.33c16.3818 -66.2021 26.96 -133.409 32.0186 -201.436c3.69336 -49.6514 7.19727 -99.3174 10.2881 -149.008z" />
    <glyph glyph-name="o" unicode="o" horiz-adv-x="571" 
d="M391.247 660.788c111.094 -55.7383 163.771 -150.261 168.781 -249.446c-0.0488281 -87.749 -18.627 -145.896 -58.1875 -196.619c-77.0312 -98.7715 -210.22 -128.529 -323.942 -71.1777c-89.3779 45.0732 -142.299 118.814 -162.149 216.537
c-11.2363 55.3223 -5.83301 109.511 14.7578 161.814c55.8438 141.844 217.058 210.98 360.74 138.892z" />
    <glyph glyph-name="o" unicode="&#xf8;" horiz-adv-x="571" 
d="M391.247 660.788c111.094 -55.7383 163.771 -150.261 168.781 -249.446c-0.0488281 -87.749 -18.627 -145.896 -58.1875 -196.619c-77.0312 -98.7715 -210.22 -128.529 -323.942 -71.1777c-89.3779 45.0732 -142.299 118.814 -162.149 216.537
c-11.2363 55.3223 -5.83301 109.511 14.7578 161.814c55.8438 141.844 217.058 210.98 360.74 138.892z" />
    <glyph glyph-name="o" unicode="&#xf6;" horiz-adv-x="571" 
d="M391.247 660.788c111.094 -55.7383 163.771 -150.261 168.781 -249.446c-0.0488281 -87.749 -18.627 -145.896 -58.1875 -196.619c-77.0312 -98.7715 -210.22 -128.529 -323.942 -71.1777c-89.3779 45.0732 -142.299 118.814 -162.149 216.537
c-11.2363 55.3223 -5.83301 109.511 14.7578 161.814c55.8438 141.844 217.058 210.98 360.74 138.892z" />
    <glyph glyph-name="o" unicode="&#xf5;" horiz-adv-x="571" 
d="M391.247 660.788c111.094 -55.7383 163.771 -150.261 168.781 -249.446c-0.0488281 -87.749 -18.627 -145.896 -58.1875 -196.619c-77.0312 -98.7715 -210.22 -128.529 -323.942 -71.1777c-89.3779 45.0732 -142.299 118.814 -162.149 216.537
c-11.2363 55.3223 -5.83301 109.511 14.7578 161.814c55.8438 141.844 217.058 210.98 360.74 138.892z" />
    <glyph glyph-name="o" unicode="&#xf4;" horiz-adv-x="571" 
d="M391.247 660.788c111.094 -55.7383 163.771 -150.261 168.781 -249.446c-0.0488281 -87.749 -18.627 -145.896 -58.1875 -196.619c-77.0312 -98.7715 -210.22 -128.529 -323.942 -71.1777c-89.3779 45.0732 -142.299 118.814 -162.149 216.537
c-11.2363 55.3223 -5.83301 109.511 14.7578 161.814c55.8438 141.844 217.058 210.98 360.74 138.892z" />
    <glyph glyph-name="o" unicode="&#xf3;" horiz-adv-x="571" 
d="M391.247 660.788c111.094 -55.7383 163.771 -150.261 168.781 -249.446c-0.0488281 -87.749 -18.627 -145.896 -58.1875 -196.619c-77.0312 -98.7715 -210.22 -128.529 -323.942 -71.1777c-89.3779 45.0732 -142.299 118.814 -162.149 216.537
c-11.2363 55.3223 -5.83301 109.511 14.7578 161.814c55.8438 141.844 217.058 210.98 360.74 138.892z" />
    <glyph glyph-name="o" unicode="&#xf2;" horiz-adv-x="571" 
d="M391.247 660.788c111.094 -55.7383 163.771 -150.261 168.781 -249.446c-0.0488281 -87.749 -18.627 -145.896 -58.1875 -196.619c-77.0312 -98.7715 -210.22 -128.529 -323.942 -71.1777c-89.3779 45.0732 -142.299 118.814 -162.149 216.537
c-11.2363 55.3223 -5.83301 109.511 14.7578 161.814c55.8438 141.844 217.058 210.98 360.74 138.892z" />
    <glyph glyph-name="p" unicode="p" horiz-adv-x="449" 
d="M426.873 563.473c49.1162 -129.733 -9.80176 -274.493 -136.581 -337.164c-24.6504 -12.1865 -50.4834 -21.0742 -77.7715 -25.5205c-6.81348 -1.11035 -13.3945 -3.64746 -21.8818 -6.03418c0.80957 -17.0029 1.44922 -33.0947 2.36914 -49.1699
c2.20703 -38.541 4.79883 -77.0625 6.7168 -115.619c0.875 -17.5947 -2.50195 -34.5596 -13.0752 -49.1641c-16.2363 -22.4258 -38.4053 -32.8691 -65.9805 -29.7354c-27.6621 3.14355 -47.0508 18.665 -57.0703 44.2217
c-4.34375 11.0791 -5.99316 23.6416 -6.69727 35.6572c-6.95801 118.67 -13.3896 237.37 -20.1172 356.054c-4.31348 76.0781 -8.97949 152.136 -13.2373 228.215c-1.01562 18.1348 -2.05762 36.3721 -1.2666 54.4824c1.14355 26.2207 13.791 46.3975 36.6699 59.5234
c6.0957 3.49707 12.8477 6.26172 19.6426 8.06348c143.646 38.1016 295.79 -35.1631 348.28 -173.81z" />
    <glyph glyph-name="q" unicode="q" horiz-adv-x="694" 
d="M672.985 469.271c51.54 -186.66 -58.418 -372.246 -240.403 -420.437c-8.80664 -2.33203 -17.6377 -4.56934 -30.2363 -7.82715c0 -22.1475 0.430664 -42.4131 -0.170898 -62.6484c-0.330078 -11.0742 -1.04785 -22.4648 -3.93945 -33.0732
c-8.93457 -32.7822 -37.7334 -54.0586 -69.7422 -52.8721c-33.9229 1.25684 -61.2676 25.1357 -67.1816 59.7197c-1.86914 10.9326 -1.7793 22.2471 -2.02832 33.3994c-0.40918 18.2939 -0.311523 36.5986 -0.582031 54.8955
c-0.0292969 1.94238 -1.07812 3.87109 -2.29883 7.97461c-6.99609 2.81445 -15.2451 6.22949 -23.5645 9.46094c-114.413 44.4463 -187.808 125.679 -216.116 245.4c-41.709 176.394 69.7568 364.205 257.743 404.259c192.155 40.9404 354.973 -80.5381 398.521 -238.252z
" />
    <glyph glyph-name="r" unicode="r" horiz-adv-x="433" 
d="M421.289 651.983c10.4434 -14.0859 17.8242 -29.3975 17.9678 -47.627c0.249023 -30.6943 -13.4736 -53.1553 -40.7969 -65.8154c-27.417 -12.7021 -53.6025 -7.88965 -76.5547 11.7695c-6.12109 5.24512 -11.0176 11.9258 -16.4365 17.9844
c-9.67578 10.8193 -22.0068 14.1152 -35.8643 12.1279c-30.8818 -4.42773 -51.7568 -22.6699 -64.6162 -49.9385c-8.18652 -17.3574 -12.8496 -36.2344 -25.4424 -51.6621c-3.13281 -3.83691 -2.53125 -11.6953 -1.87891 -17.5049
c6.5752 -58.5869 13.5811 -117.124 20.332 -175.689c5.00488 -43.4229 9.76855 -86.875 14.7305 -130.302c1.61621 -14.1348 3.79688 -28.21 5.18945 -42.3652c0.894531 -9.08789 1.43066 -18.2959 1.0752 -27.4082c-1.40234 -35.9297 -27.1895 -64.623 -61.4746 -68.958
c-35.3076 -4.46289 -68.8213 18.5264 -77.9824 54.085c-2.52637 9.80664 -3.8418 19.9922 -4.96582 30.0859c-9.11035 81.833 -17.8418 163.71 -27.0869 245.527c-9.01562 79.7939 -18.5098 159.534 -27.7822 239.301c-2.23145 19.1826 -5.12598 38.3223 -6.45605 57.5693
c-2.04785 29.6602 8.6084 53.8955 34.1123 70.2773c26.5615 17.0596 60.9824 13.6504 84.3711 -8.25c6.56543 -6.14746 12.1279 -13.3682 19.0332 -21.084c9.08594 4.98047 17.7822 10.0049 26.7021 14.5928c46.8623 24.1006 95.7861 32.7432 147.475 18.8994
c39.6973 -10.6318 71.876 -32.6055 96.3496 -65.6152z" />
    <glyph glyph-name="s" unicode="s" horiz-adv-x="444" 
d="M408.067 398.198c37.6221 -69.5254 40.5244 -139.998 -1.25195 -208.742c-23.0391 -37.9092 -55.4209 -67.4092 -94.9307 -88.3086c-54.085 -28.6074 -111.406 -36.2178 -171.385 -25.5889c-14.9893 2.65625 -30.0205 5.1416 -44.8965 8.33984
c-13.918 2.99219 -27.4697 7.13867 -39.2881 15.7295c-26.6543 19.375 -37.0234 54.2432 -24.8145 84.2471c11.9131 29.2725 44.9414 48.0889 76.6104 43.0518c13.0078 -2.06934 25.7988 -5.48633 38.7227 -8.11523c22.0801 -4.49023 44.2949 -5.82617 66.667 -2.35938
c32.3281 5.00977 56.3574 23.1924 72.7832 50.1904c12.002 19.7285 8.45703 41.3906 -2.31641 61.1387c-8.91797 16.3467 -21.9531 29.4707 -38.1348 38.6484c-28.2334 16.0127 -56.8965 31.2705 -85.4268 46.7559c-19.6162 10.6465 -40.2451 19.7305 -58.7988 31.9736
c-56.4932 37.2803 -84.1377 92.2295 -91.5098 158.066c-5.21582 46.5898 8.43164 88.5449 35.8066 126.066c16.3037 22.3447 35.873 41.5127 59.4365 56.3018c56.415 35.4092 118.213 52.5527 191.3 55.3604c15.5752 -2.17676 37.8066 -4.42773 59.6455 -8.69629
c10.7305 -2.09668 21.5234 -6.625 30.916 -12.3174c28.3516 -17.1807 40.3379 -51.5859 29.9268 -82.3477c-10.6104 -31.3428 -43.3662 -51.5166 -76.9014 -47.1562c-9.05664 1.17773 -18.0537 2.84863 -27.0479 4.46191
c-46.5273 8.33789 -88.1494 -6.13965 -128.26 -27.5889c-2.66992 -1.42676 -5.05859 -3.40039 -7.50684 -5.2168c-40.8281 -30.2852 -26.5039 -73.8555 0.694336 -95.9355c13.1436 -10.6699 29.5957 -17.6162 45.208 -24.8193
c37.9092 -17.4902 74.3311 -37.5098 108.83 -61.0195c31.6025 -21.5361 57.75 -48.5361 75.9219 -82.1201z" />
    <glyph glyph-name="t" unicode="t" horiz-adv-x="523" 
d="M518.781 296.324c0.582031 -44.9229 -7.0459 -89.0654 -15.8799 -132.966c-6.03418 -29.9844 -14.8066 -59.1484 -27.6973 -86.9238c-10.7832 -23.2363 -24.498 -44.498 -43.832 -61.7363c-39.7773 -35.4668 -92.4023 -40.7051 -138.276 -13.6104
c-21.3535 12.6113 -38.4863 29.8213 -53.2188 49.5537c-23.9023 32.0215 -41.3428 67.5586 -55.9189 104.545c-25.7988 65.4688 -42.8369 133.38 -55.4795 202.477c-2.7373 14.9648 -5.37793 29.9473 -8.62305 48.0381c-15.3281 0 -28.4092 -0.644531 -41.3984 0.181641
c-13.0234 0.829102 -26.7812 0.853516 -38.7646 5.22266c-30.0479 10.96 -48.1279 42.4023 -44.1416 72.498c4.24707 32.0518 29.2256 57.5742 62.1729 62.3379c13.9199 2.0127 28.1035 2.2002 43.8516 3.33789c1.15625 7.80469 2.97949 14.4863 2.99316 21.1729
c0.0537109 28.4717 -1.43652 56.9805 -0.461914 85.4111c1.25195 36.5479 3.49512 73.1172 7.06445 109.505c1.25098 12.7471 5.93262 25.9434 12.1152 37.2578c13.6973 25.0693 41.8193 37.5566 69.7305 33.3271c30.1641 -4.56934 52.4717 -24.6611 58.0693 -54.5293
c2.19922 -11.7344 1.46289 -24.1709 0.9375 -36.2393c-1.89844 -43.6592 -4.7832 -87.2822 -6.21582 -130.954c-0.5625 -17.1504 1.7207 -34.3955 2.73926 -52.1348c17.084 -5.38574 33.0625 -1.83008 48.9492 -0.394531c15.209 1.375 30.1992 2.62598 45.333 -1.78906
c31.0469 -9.05859 52.4141 -35.4883 52.9658 -66.7764c0.547852 -31.084 -19.8691 -59.2959 -50.9395 -68.0488c-12.5498 -3.53613 -25.9316 -4.3291 -39.0039 -5.72363c-11.0957 -1.18262 -22.2969 -1.32812 -33.4297 -2.20898
c-1.8418 -0.145508 -3.57031 -1.71289 -5.35156 -2.625c-1.19727 -34.3662 20.4033 -129.852 44.7803 -194.473c9.14551 -24.2412 17.5791 -49.1074 33.582 -68.752c7.97852 0.452148 8.03809 5.25879 9.20508 8.81738c9.85449 30.0928 14.8613 61.1611 18.1436 92.5439
c1.79883 17.1943 3.48633 34.4043 4.88867 51.6338c2.50293 30.7793 29.7588 64.916 73.0225 64.165c37.8926 -0.65625 67.5693 -32.083 68.0889 -72.1406z" />
    <glyph glyph-name="u" unicode="u" horiz-adv-x="522" 
d="M465.678 672.816c29.7881 -102.468 42.8115 -207.003 35.7432 -313.565c-3.16602 -47.7666 -11.7891 -94.7998 -29.248 -139.793c-10.7441 -27.6934 -24.6475 -53.499 -44.0889 -76.1455c-53.6035 -62.4404 -130.938 -70.418 -195.735 -34.4932
c-27.8945 15.4668 -51.2197 36.5293 -71.832 60.7266c-40.0381 47 -68.5254 100.725 -90.877 157.846c-37.3545 95.4639 -58.9492 194.361 -62.1562 296.979c-0.760742 24.333 -0.696289 48.7822 0.768555 73.0693c1.30078 21.5498 12.7754 38.3818 30.6963 50.2471
c44.5957 29.5283 103.375 1.01855 109.203 -53.0811c1.19434 -11.0703 0.444336 -22.3555 0.473633 -33.541c0.253906 -98.7598 19.127 -193.955 55.3789 -285.677c14.6143 -36.9805 32.665 -72.2656 57.1416 -103.889c17.4766 -22.5791 25.1006 -28.8262 49.9941 -41.3633
c15.4482 9.54883 20.9219 24.0215 26.8398 37.9502c9.61133 22.6191 14.2188 46.6406 17.8643 70.7686c8.58496 56.8076 5.92871 113.688 -1.25098 170.338c-5.24121 41.3535 -13.666 82.1738 -25.1914 122.331c-2.76562 9.64062 -3.97363 19.9346 -4.42773 29.9932
c-1.62207 35.96 25.4053 61.2168 50.7725 67.9189c32.5332 8.5957 64.6992 -5.04004 80.8408 -34.0938c3.90527 -7.03027 6.83789 -14.7803 9.09082 -22.5264z" />
    <glyph glyph-name="u" unicode="&#xfc;" horiz-adv-x="522" 
d="M465.678 672.816c29.7881 -102.468 42.8115 -207.003 35.7432 -313.565c-3.16602 -47.7666 -11.7891 -94.7998 -29.248 -139.793c-10.7441 -27.6934 -24.6475 -53.499 -44.0889 -76.1455c-53.6035 -62.4404 -130.938 -70.418 -195.735 -34.4932
c-27.8945 15.4668 -51.2197 36.5293 -71.832 60.7266c-40.0381 47 -68.5254 100.725 -90.877 157.846c-37.3545 95.4639 -58.9492 194.361 -62.1562 296.979c-0.760742 24.333 -0.696289 48.7822 0.768555 73.0693c1.30078 21.5498 12.7754 38.3818 30.6963 50.2471
c44.5957 29.5283 103.375 1.01855 109.203 -53.0811c1.19434 -11.0703 0.444336 -22.3555 0.473633 -33.541c0.253906 -98.7598 19.127 -193.955 55.3789 -285.677c14.6143 -36.9805 32.665 -72.2656 57.1416 -103.889c17.4766 -22.5791 25.1006 -28.8262 49.9941 -41.3633
c15.4482 9.54883 20.9219 24.0215 26.8398 37.9502c9.61133 22.6191 14.2188 46.6406 17.8643 70.7686c8.58496 56.8076 5.92871 113.688 -1.25098 170.338c-5.24121 41.3535 -13.666 82.1738 -25.1914 122.331c-2.76562 9.64062 -3.97363 19.9346 -4.42773 29.9932
c-1.62207 35.96 25.4053 61.2168 50.7725 67.9189c32.5332 8.5957 64.6992 -5.04004 80.8408 -34.0938c3.90527 -7.03027 6.83789 -14.7803 9.09082 -22.5264z" />
    <glyph glyph-name="u" unicode="&#xfb;" horiz-adv-x="522" 
d="M465.678 672.816c29.7881 -102.468 42.8115 -207.003 35.7432 -313.565c-3.16602 -47.7666 -11.7891 -94.7998 -29.248 -139.793c-10.7441 -27.6934 -24.6475 -53.499 -44.0889 -76.1455c-53.6035 -62.4404 -130.938 -70.418 -195.735 -34.4932
c-27.8945 15.4668 -51.2197 36.5293 -71.832 60.7266c-40.0381 47 -68.5254 100.725 -90.877 157.846c-37.3545 95.4639 -58.9492 194.361 -62.1562 296.979c-0.760742 24.333 -0.696289 48.7822 0.768555 73.0693c1.30078 21.5498 12.7754 38.3818 30.6963 50.2471
c44.5957 29.5283 103.375 1.01855 109.203 -53.0811c1.19434 -11.0703 0.444336 -22.3555 0.473633 -33.541c0.253906 -98.7598 19.127 -193.955 55.3789 -285.677c14.6143 -36.9805 32.665 -72.2656 57.1416 -103.889c17.4766 -22.5791 25.1006 -28.8262 49.9941 -41.3633
c15.4482 9.54883 20.9219 24.0215 26.8398 37.9502c9.61133 22.6191 14.2188 46.6406 17.8643 70.7686c8.58496 56.8076 5.92871 113.688 -1.25098 170.338c-5.24121 41.3535 -13.666 82.1738 -25.1914 122.331c-2.76562 9.64062 -3.97363 19.9346 -4.42773 29.9932
c-1.62207 35.96 25.4053 61.2168 50.7725 67.9189c32.5332 8.5957 64.6992 -5.04004 80.8408 -34.0938c3.90527 -7.03027 6.83789 -14.7803 9.09082 -22.5264z" />
    <glyph glyph-name="u" unicode="&#xfa;" horiz-adv-x="522" 
d="M465.678 672.816c29.7881 -102.468 42.8115 -207.003 35.7432 -313.565c-3.16602 -47.7666 -11.7891 -94.7998 -29.248 -139.793c-10.7441 -27.6934 -24.6475 -53.499 -44.0889 -76.1455c-53.6035 -62.4404 -130.938 -70.418 -195.735 -34.4932
c-27.8945 15.4668 -51.2197 36.5293 -71.832 60.7266c-40.0381 47 -68.5254 100.725 -90.877 157.846c-37.3545 95.4639 -58.9492 194.361 -62.1562 296.979c-0.760742 24.333 -0.696289 48.7822 0.768555 73.0693c1.30078 21.5498 12.7754 38.3818 30.6963 50.2471
c44.5957 29.5283 103.375 1.01855 109.203 -53.0811c1.19434 -11.0703 0.444336 -22.3555 0.473633 -33.541c0.253906 -98.7598 19.127 -193.955 55.3789 -285.677c14.6143 -36.9805 32.665 -72.2656 57.1416 -103.889c17.4766 -22.5791 25.1006 -28.8262 49.9941 -41.3633
c15.4482 9.54883 20.9219 24.0215 26.8398 37.9502c9.61133 22.6191 14.2188 46.6406 17.8643 70.7686c8.58496 56.8076 5.92871 113.688 -1.25098 170.338c-5.24121 41.3535 -13.666 82.1738 -25.1914 122.331c-2.76562 9.64062 -3.97363 19.9346 -4.42773 29.9932
c-1.62207 35.96 25.4053 61.2168 50.7725 67.9189c32.5332 8.5957 64.6992 -5.04004 80.8408 -34.0938c3.90527 -7.03027 6.83789 -14.7803 9.09082 -22.5264z" />
    <glyph glyph-name="u" unicode="&#xf9;" horiz-adv-x="522" 
d="M465.678 672.816c29.7881 -102.468 42.8115 -207.003 35.7432 -313.565c-3.16602 -47.7666 -11.7891 -94.7998 -29.248 -139.793c-10.7441 -27.6934 -24.6475 -53.499 -44.0889 -76.1455c-53.6035 -62.4404 -130.938 -70.418 -195.735 -34.4932
c-27.8945 15.4668 -51.2197 36.5293 -71.832 60.7266c-40.0381 47 -68.5254 100.725 -90.877 157.846c-37.3545 95.4639 -58.9492 194.361 -62.1562 296.979c-0.760742 24.333 -0.696289 48.7822 0.768555 73.0693c1.30078 21.5498 12.7754 38.3818 30.6963 50.2471
c44.5957 29.5283 103.375 1.01855 109.203 -53.0811c1.19434 -11.0703 0.444336 -22.3555 0.473633 -33.541c0.253906 -98.7598 19.127 -193.955 55.3789 -285.677c14.6143 -36.9805 32.665 -72.2656 57.1416 -103.889c17.4766 -22.5791 25.1006 -28.8262 49.9941 -41.3633
c15.4482 9.54883 20.9219 24.0215 26.8398 37.9502c9.61133 22.6191 14.2188 46.6406 17.8643 70.7686c8.58496 56.8076 5.92871 113.688 -1.25098 170.338c-5.24121 41.3535 -13.666 82.1738 -25.1914 122.331c-2.76562 9.64062 -3.97363 19.9346 -4.42773 29.9932
c-1.62207 35.96 25.4053 61.2168 50.7725 67.9189c32.5332 8.5957 64.6992 -5.04004 80.8408 -34.0938c3.90527 -7.03027 6.83789 -14.7803 9.09082 -22.5264z" />
    <glyph glyph-name="v" unicode="v" horiz-adv-x="540" 
d="M494.305 724.084c32.2246 -12.1113 51.71 -45.2158 45.7148 -80.5332c-1.35156 -7.9668 -4.03516 -15.748 -6.55566 -23.4668c-52.9971 -162.227 -106.042 -324.439 -159.154 -486.628c-3.47461 -10.6113 -6.94727 -21.3037 -11.5166 -31.4648
c-14.9844 -33.3213 -58.8086 -57.3584 -102.939 -31.2676c-23.1113 13.665 -37.3184 33.2012 -47.4902 57.4727c-42.416 101.202 -85.5059 202.123 -128.333 303.154c-25.3789 59.8701 -50.7822 119.731 -76.0361 179.655
c-3.93457 9.33301 -8.01562 18.7549 -10.5068 28.5234c-9.30078 36.498 8.09863 70.9922 41.9912 84.5312c32.3936 12.9424 68.0586 0.726562 86.9346 -30.4521c5.22168 -8.62598 8.875 -18.2451 12.8447 -27.5801c44.5361 -104.715 88.959 -209.479 133.538 -314.175
c3.00098 -7.05176 7.00293 -13.6768 13.7275 -26.6543c19.252 58.5732 36.1328 109.628 52.8105 160.748c19.2207 58.9141 38.2031 117.904 57.4482 176.811c2.83301 8.66699 6.04688 17.2812 9.93359 25.5195c13.3896 28.3867 51.0635 49.5352 87.5889 35.8066z" />
    <glyph glyph-name="w" unicode="w" horiz-adv-x="665" 
d="M644.427 401.428c1.43066 -59.1855 -4.625 -117.793 -18.084 -175.497c-6.49414 -27.832 -17 -54.25 -30.2314 -79.583c-12.8662 -24.6338 -29.9883 -45.8857 -50.7783 -64.2344c-48.7021 -42.9785 -131.885 -46.8965 -182.856 5.11426
c-6.99316 7.13574 -13.3408 14.9082 -21.4473 24.0273c-5.99902 -6.33789 -9.73633 -10.7959 -13.9912 -14.6855c-13.46 -12.3037 -25.958 -26.1055 -40.918 -36.2402c-40.6582 -27.542 -83.6123 -28.3809 -126.911 -5.83789
c-26.7832 13.9443 -47.0859 35.123 -63.7139 60.0107c-26.3271 39.4072 -43.1826 83.0273 -53.3926 128.871c-20.2139 90.7646 -29.1016 182.589 -21.2676 275.658c1.7041 20.249 1.34473 40.6709 2.90137 60.9385c1.24512 16.1875 2.49121 32.6182 6.31836 48.3115
c7.55078 30.9678 34.8115 52.5361 65.9805 54.4395c29.8252 1.82227 58.4365 -16.4873 68.793 -45.5928c3.30664 -9.28906 4.1543 -19.8398 4.18652 -29.8193c0.0439453 -14.2012 -1.36133 -28.4414 -2.74316 -42.6074c-5.35059 -54.7891 -6.00586 -109.73 -3.12695 -164.59
c2.61133 -49.7959 9.66699 -99.1846 24.3506 -147.041c6.48145 -21.1221 13.7119 -42.2598 30.0127 -62.2334c13.7285 13.6084 18.9766 28.0352 24.4805 42.0645c16.4277 41.8662 26.4727 85.4365 31.1504 130.062c4.02441 38.3965 6.29102 76.9775 9.39941 115.472
c0.572266 7.09277 1.1416 14.21 2.25 21.2305c5.54297 35.1201 34.7637 60.8838 69.2822 61.2949c34.1094 0.404297 65.1719 -25.0723 70.582 -59.8887c2.95508 -19.0117 3.50781 -38.4785 4.03125 -57.7695c1.21387 -44.7334 1.82129 -89.4844 2.53711 -134.231
c0.458008 -28.6416 4.86426 -56.6953 12.583 -84.2021c2.68359 -9.56055 4.99609 -19.7236 14.748 -26.4482c15.8643 16.3418 22.2207 36.7744 27.8545 57.2139c11.708 42.4668 15.5889 86.1152 14.6943 129.906c-1.36816 67.0928 -4.75293 134.143 -6.72168 201.228
c-0.381836 13.0352 -0.0703125 26.6309 3.16406 39.127c8.08691 31.2363 36.3008 53.1299 66.9961 52.3066c33.1533 -0.887695 60.9531 -21.7246 68.5762 -54.5889c2.28809 -9.86133 4.1084 -20.0146 4.51465 -30.1006c2.57324 -64.0166 5.24707 -128.038 6.79688 -192.084z
" />
    <glyph glyph-name="x" unicode="x" horiz-adv-x="459" 
d="M443.231 147.171c10.4355 -21.3467 10.7188 -43.1006 -0.414062 -64.5254c-20.5518 -39.5674 -72.585 -50.6904 -106.567 -21.7373c-9.79883 8.34863 -17.542 19.6846 -24.4424 30.7646c-20.9473 33.6465 -40.9746 67.8652 -61.4707 101.794
c-4.16992 6.90234 -8.81738 13.5166 -14.8838 22.7578c-5.5918 -9.44141 -10.4668 -16.8623 -14.5508 -24.6973c-23.4834 -45.0625 -46.6953 -90.2676 -70.21 -135.315c-4.68848 -8.98242 -9.45801 -18.1387 -15.6328 -26.0928
c-22.0293 -28.3818 -59.8242 -36.3691 -90.208 -19.3369c-34.541 19.3633 -43.8525 59.8408 -31.877 86.5146c4.57129 10.1807 9.02344 20.4424 14.1387 30.3516c34.9609 67.7295 70.0918 135.372 105.141 203.058c4.66602 9.01367 9.17871 18.1055 14.2324 28.0879
c-3.6123 6.9541 -7.10059 14.1494 -11.0059 21.1113c-35.3086 62.9355 -70.666 125.842 -106.062 188.727c-9.57617 17.0098 -17.2266 34.3555 -16.2402 54.6865c1.4873 30.6562 20.8213 56.5566 50.2402 65.8701c28.2031 8.93164 60.4082 -2.25098 77.8467 -27.6562
c5.14258 -7.49023 8.67969 -16.0693 13.1924 -24.0117c21.5928 -37.9941 43.2422 -75.9551 64.9736 -113.869c1.35449 -2.3623 3.58691 -4.21973 6.7373 -7.83496c4.79395 7.77441 9.35449 14.2822 13.0137 21.2617c17.9365 34.2012 35.5098 68.5947 53.4971 102.768
c4.71484 8.95605 9.55762 18.0986 15.8848 25.9033c22.5215 27.7842 60.3604 34.3984 90.6279 16.9336c29.7148 -17.1475 42.7148 -55.9961 30.498 -84.459c-4.40039 -10.2529 -8.80176 -20.5391 -13.9092 -30.4463c-29.3359 -56.9131 -58.8965 -113.71 -88.3506 -170.563
c-5.12598 -9.89355 -10.1064 -19.8623 -16.1885 -31.833c5.74707 -9.64648 10.2988 -17.5322 15.0811 -25.2754c31.5127 -51.0225 63.1797 -101.948 94.5469 -153.06c7.96777 -12.9834 15.6787 -26.2021 22.3623 -39.875z" />
    <glyph glyph-name="y" unicode="y" horiz-adv-x="503" 
d="M447.626 638.118c25.5713 -117.883 37.0117 -237.114 30.8047 -357.684c-3.08691 -60.0186 -11.3525 -119.431 -29.3926 -177.103c-9.14258 -29.2217 -20.6963 -57.3467 -36.6064 -83.5898c-11.6914 -19.2881 -25.5957 -36.8184 -42.9473 -51.2285
c-46.5195 -38.6318 -98.3271 -46.5312 -153.849 -23.2217c-16.6143 6.97559 -32.7256 16.9199 -46.4424 28.5918c-17.6953 15.0596 -34.207 32.0674 -48.6533 50.2793c-31.791 40.0752 -55.2305 85.2021 -74.6182 132.461
c-8.04883 19.6162 -9.7041 39.5547 -1.75293 59.3916c19.8945 49.6416 86.2754 59.4258 119.83 17.3623c7.45898 -9.35059 12.3574 -20.9248 17.5029 -31.9121c13.8223 -29.5107 28.1045 -58.7734 47.6221 -85.0127c12.0684 -16.2246 24.8379 -32.04 44.1709 -40.9102
c15.501 9.83594 21.8486 25.0039 28.4248 39.6611c12.1416 27.0713 19.2178 55.8115 24.0596 84.8994c8.86621 53.2725 12.7637 107.027 12.1172 161.063c-0.0566406 4.70605 -0.90918 9.39941 -1.73047 17.3975c-9.38574 -5.52246 -16.1396 -9.25977 -22.6553 -13.373
c-25.3105 -15.9775 -52.292 -26.4287 -82.5811 -28.5547c-43.6074 -3.05957 -82.3721 8.94629 -117.031 34.9834c-20.5146 15.4121 -38.0293 33.8818 -51.7139 55.5752c-47.1738 74.793 -61.127 156.38 -46.8418 242.868c6.16895 37.3516 34.25 60.0654 69.7002 60.0898
c37.6826 0.0263672 68.1738 -28.2832 70.3242 -66.165c0.628906 -11.0986 -0.933594 -22.3262 -1.55664 -33.4912c-1.95312 -34.9277 1.04004 -69.1357 14.9736 -101.702c6.87305 -16.0645 15.6455 -30.916 29.5244 -42.0137
c13.7109 -10.9629 24.3848 -11.1855 38.8135 -0.875c16.293 11.6426 26.4814 28.1807 34.0176 46.0977c16.084 38.2422 22.4238 78.2012 16.0791 119.407c-3.62891 23.5723 1.93359 44.0674 14.7598 63.6123c15.8584 24.1602 37.9814 37.5771 66.5557 35.1455
c31.0146 -2.63965 53.0137 -19.9863 62.6416 -50.2178c6.4668 -20.3027 11.9326 -41.0068 16.4502 -61.833z" />
    <glyph glyph-name="y" unicode="&#xff;" horiz-adv-x="503" 
d="M447.626 638.118c25.5713 -117.883 37.0117 -237.114 30.8047 -357.684c-3.08691 -60.0186 -11.3525 -119.431 -29.3926 -177.103c-9.14258 -29.2217 -20.6963 -57.3467 -36.6064 -83.5898c-11.6914 -19.2881 -25.5957 -36.8184 -42.9473 -51.2285
c-46.5195 -38.6318 -98.3271 -46.5312 -153.849 -23.2217c-16.6143 6.97559 -32.7256 16.9199 -46.4424 28.5918c-17.6953 15.0596 -34.207 32.0674 -48.6533 50.2793c-31.791 40.0752 -55.2305 85.2021 -74.6182 132.461
c-8.04883 19.6162 -9.7041 39.5547 -1.75293 59.3916c19.8945 49.6416 86.2754 59.4258 119.83 17.3623c7.45898 -9.35059 12.3574 -20.9248 17.5029 -31.9121c13.8223 -29.5107 28.1045 -58.7734 47.6221 -85.0127c12.0684 -16.2246 24.8379 -32.04 44.1709 -40.9102
c15.501 9.83594 21.8486 25.0039 28.4248 39.6611c12.1416 27.0713 19.2178 55.8115 24.0596 84.8994c8.86621 53.2725 12.7637 107.027 12.1172 161.063c-0.0566406 4.70605 -0.90918 9.39941 -1.73047 17.3975c-9.38574 -5.52246 -16.1396 -9.25977 -22.6553 -13.373
c-25.3105 -15.9775 -52.292 -26.4287 -82.5811 -28.5547c-43.6074 -3.05957 -82.3721 8.94629 -117.031 34.9834c-20.5146 15.4121 -38.0293 33.8818 -51.7139 55.5752c-47.1738 74.793 -61.127 156.38 -46.8418 242.868c6.16895 37.3516 34.25 60.0654 69.7002 60.0898
c37.6826 0.0263672 68.1738 -28.2832 70.3242 -66.165c0.628906 -11.0986 -0.933594 -22.3262 -1.55664 -33.4912c-1.95312 -34.9277 1.04004 -69.1357 14.9736 -101.702c6.87305 -16.0645 15.6455 -30.916 29.5244 -42.0137
c13.7109 -10.9629 24.3848 -11.1855 38.8135 -0.875c16.293 11.6426 26.4814 28.1807 34.0176 46.0977c16.084 38.2422 22.4238 78.2012 16.0791 119.407c-3.62891 23.5723 1.93359 44.0674 14.7598 63.6123c15.8584 24.1602 37.9814 37.5771 66.5557 35.1455
c31.0146 -2.63965 53.0137 -19.9863 62.6416 -50.2178c6.4668 -20.3027 11.9326 -41.0068 16.4502 -61.833z" />
    <glyph glyph-name="y" unicode="&#xfd;" horiz-adv-x="503" 
d="M447.626 638.118c25.5713 -117.883 37.0117 -237.114 30.8047 -357.684c-3.08691 -60.0186 -11.3525 -119.431 -29.3926 -177.103c-9.14258 -29.2217 -20.6963 -57.3467 -36.6064 -83.5898c-11.6914 -19.2881 -25.5957 -36.8184 -42.9473 -51.2285
c-46.5195 -38.6318 -98.3271 -46.5312 -153.849 -23.2217c-16.6143 6.97559 -32.7256 16.9199 -46.4424 28.5918c-17.6953 15.0596 -34.207 32.0674 -48.6533 50.2793c-31.791 40.0752 -55.2305 85.2021 -74.6182 132.461
c-8.04883 19.6162 -9.7041 39.5547 -1.75293 59.3916c19.8945 49.6416 86.2754 59.4258 119.83 17.3623c7.45898 -9.35059 12.3574 -20.9248 17.5029 -31.9121c13.8223 -29.5107 28.1045 -58.7734 47.6221 -85.0127c12.0684 -16.2246 24.8379 -32.04 44.1709 -40.9102
c15.501 9.83594 21.8486 25.0039 28.4248 39.6611c12.1416 27.0713 19.2178 55.8115 24.0596 84.8994c8.86621 53.2725 12.7637 107.027 12.1172 161.063c-0.0566406 4.70605 -0.90918 9.39941 -1.73047 17.3975c-9.38574 -5.52246 -16.1396 -9.25977 -22.6553 -13.373
c-25.3105 -15.9775 -52.292 -26.4287 -82.5811 -28.5547c-43.6074 -3.05957 -82.3721 8.94629 -117.031 34.9834c-20.5146 15.4121 -38.0293 33.8818 -51.7139 55.5752c-47.1738 74.793 -61.127 156.38 -46.8418 242.868c6.16895 37.3516 34.25 60.0654 69.7002 60.0898
c37.6826 0.0263672 68.1738 -28.2832 70.3242 -66.165c0.628906 -11.0986 -0.933594 -22.3262 -1.55664 -33.4912c-1.95312 -34.9277 1.04004 -69.1357 14.9736 -101.702c6.87305 -16.0645 15.6455 -30.916 29.5244 -42.0137
c13.7109 -10.9629 24.3848 -11.1855 38.8135 -0.875c16.293 11.6426 26.4814 28.1807 34.0176 46.0977c16.084 38.2422 22.4238 78.2012 16.0791 119.407c-3.62891 23.5723 1.93359 44.0674 14.7598 63.6123c15.8584 24.1602 37.9814 37.5771 66.5557 35.1455
c31.0146 -2.63965 53.0137 -19.9863 62.6416 -50.2178c6.4668 -20.3027 11.9326 -41.0068 16.4502 -61.833z" />
    <glyph glyph-name="z" unicode="z" horiz-adv-x="571" 
d="M568.877 166.312c1.63867 -30.1992 -12.2441 -53.166 -39.3535 -66.6143c-10.7354 -5.32129 -22.8623 -8.43555 -34.7051 -10.8271c-109.413 -22.0967 -218.9 -43.8184 -328.368 -65.6436c-3.9834 -0.793945 -7.9541 -1.69238 -11.9727 -2.24219
c-42.2959 -5.7959 -71.1836 5.98438 -93.5557 55.2461c-7.85938 17.3076 -6.70605 35.7959 0.508789 53.4639c3.4502 8.44727 7.71289 16.5723 11.8184 24.7383c23.7324 47.21 47.5908 94.3564 71.2461 141.604c3.97559 7.94238 7.1748 16.2754 11.7031 26.6475
c-8.32031 0.969727 -14.0215 2.31055 -19.6904 2.17871c-31.3232 -0.726562 -66.8096 28.9502 -67.375 69.4453c-0.428711 30.752 23.6553 68.4199 69.0469 71.5391c27.3672 1.88184 54.7256 3.91797 82.083 5.95117c3.99805 0.295898 7.96875 0.967773 13.9072 1.70996
c25.7549 50.9385 51.7988 102.446 79.46 157.155c-10.3232 -0.631836 -17.1611 -0.108398 -23.5371 -1.58496c-61.2754 -14.1943 -122.43 -28.9111 -183.728 -43c-11.7773 -2.70605 -23.9971 -4.25293 -36.0752 -4.7373
c-33.1406 -1.32715 -59.9385 23.9268 -67.0391 51.9209c-7.86719 31.0146 5.33594 62.5 33.3066 78.3076c8.67969 4.9043 18.5264 8.35254 28.2656 10.6797c109.514 26.1777 219.068 52.1865 328.729 77.7363c16.748 3.90234 34.0244 6.6709 51.1748 7.49414
c38.2314 1.83594 68.585 -25.0947 73.0918 -63.0371c1.6084 -13.5566 -1.62988 -26.2959 -6.77344 -38.5674c-3.5293 -8.41992 -7.8623 -16.5098 -11.9814 -24.6729c-28.3848 -56.249 -56.8535 -112.455 -85.167 -168.739
c-4.03223 -8.01172 -7.37109 -16.3721 -11.9854 -26.707c10.1768 -0.670898 17.9629 -1.3584 25.7627 -1.66797c38.0088 -1.51074 67.541 -33.3594 68.2725 -68.877c0.741211 -36.0576 -24.8975 -66.3213 -61.9922 -71.2529
c-22.126 -2.94141 -44.5059 -4.0498 -66.7969 -5.6582c-13.1025 -0.945312 -26.248 -1.25879 -40.4033 -1.90332c-15.6152 -23.249 -26.1416 -48.6191 -38.3887 -72.9688c-12.1816 -24.2168 -26.5166 -47.5098 -36.2803 -75.7773
c12.2959 1.64941 22.2432 2.43164 31.957 4.37695c63.6621 12.748 127.311 25.5791 190.881 38.7793c16.3057 3.38574 32.0273 4.16504 47.8213 -2.22363c28.1768 -11.3984 44.4961 -32.1113 46.1318 -62.2725z" />
    <glyph glyph-name="braceleft" unicode="{" horiz-adv-x="628" 
d="M511.917 93.1621c53.9854 -3.70508 83.623 -62.0781 54.9766 -108.056c-9.38867 -15.0635 -22.3633 -26.7285 -38.2578 -34.0508c-48.3242 -22.2588 -98.4023 -38.1504 -152.406 -37.4619c-38.4326 0.492188 -71.334 14.5127 -98.0918 42.085
c-29.4922 30.3906 -50.459 66.1631 -64.2168 106.102c-18.9893 55.123 -30.5586 111.679 -31.2275 170.182c-0.27832 24.4062 -0.232422 48.8184 -0.307617 73.2275c-0.0351562 11.1357 -0.00585938 22.2715 -0.00585938 34.3555
c-6.35059 2.7627 -11.4824 6.01855 -17.0557 7.21094c-12.8936 2.75781 -26.0039 4.49121 -39.0176 6.69238c-15.1494 2.56152 -29.627 7 -42.5371 15.6494c-38.6133 25.8633 -45.4385 77.4834 -13.5801 111.265c9.5498 10.1279 21.9209 18.0703 34.0869 25.1367
c19.2979 11.209 39.6357 20.6094 59.3047 31.2012c20.832 11.2178 38.5107 26.3408 53.3193 44.8408c9.77734 12.2158 16.5098 25.667 16.8213 41.6055c0.379883 19.2939 0.739258 38.5986 0.541016 57.8926c-0.344727 33.5527 -1.6875 67.1025 -1.5625 100.651
c0.124023 32.8477 6.31543 64.8525 19.5537 94.9678c23.8779 54.3164 63.8584 91.4082 121.682 106.528c52.501 13.7285 100.815 1.92578 143.613 -30.668c21.043 -16.0264 34.0957 -37.7031 34.2197 -65.1777c0.124023 -27.8076 -12.0986 -49.2871 -36.5107 -62.4141
c-23.1172 -12.4287 -46.9336 -11.7471 -69.7119 1.70508c-6.94336 4.10059 -12.8848 9.86621 -19.457 14.6328c-8.50293 6.16699 -17.2334 5.20215 -25.6045 -0.210938c-12.8398 -8.30371 -18.7051 -21.1895 -21.6104 -35.4717
c-4.89453 -24.0645 -5.33398 -48.3789 -4.01562 -72.8906c1.69043 -31.4619 2.49023 -62.9775 3.27637 -94.4795c0.225586 -9.11328 -0.655273 -18.2852 -1.48438 -27.3877c-4.90527 -53.8555 -27.7295 -99.2793 -65.0947 -137.816
c-5.64941 -5.82812 -11.1875 -11.7676 -16.7227 -17.7061c-0.670898 -0.717773 -0.999023 -1.75293 -3.18652 -5.74219c27.5938 -29.4375 33.0947 -64.9072 32.5205 -102.445c-0.481445 -31.5234 -0.0830078 -63.0596 0.00292969 -94.5908
c0.116211 -42.9902 6.42578 -85.1699 18.8242 -126.229c4.95117 -16.4033 11.7754 -32.5518 20.0156 -47.5713c10.9229 -19.9111 20.585 -23.7109 42.7676 -19.2588c21.877 4.39062 43.5703 9.61523 62.6924 22.2217c13.0859 8.62793 27.8291 12.5488 43.4473 11.4766z" />
    <glyph glyph-name="verticalbar" unicode="|" horiz-adv-x="221" 
d="M185.007 182.711c1.2002 -63.0117 3.16309 -126.013 4.03809 -189.027c0.181641 -12.9854 -1.04785 -26.623 -4.93164 -38.9131c-9.78418 -30.96 -37.5684 -48.7881 -70.1914 -47.29c-31.2529 1.43555 -57.8447 23.7402 -64.3086 55.2393
c-2.43262 11.8516 -3.18262 24.1875 -3.43457 36.3291c-1.45898 70.1279 -2.28809 140.271 -3.79883 210.396c-3 139.233 -6.45215 278.456 -9.41309 417.689c-1.29688 60.9805 -1.80664 121.978 -2.77344 182.966c-0.241211 15.2441 -1.16797 30.4824 -1.19434 45.7236
c-0.0166016 10.124 0.145508 20.3887 1.72754 30.3516c5.04199 31.7314 30.6182 55.9072 61.1885 58.7373c33.6064 3.11133 62.9033 -14.7549 73.8311 -46.4551c3.57129 -10.3555 5.33398 -21.7783 5.58398 -32.7676c2.44043 -106.708 4.41699 -213.427 6.4502 -320.146
c0.754883 -39.6377 1.3125 -79.2783 1.96191 -118.919c0.392578 0.0078125 0.785156 0.0136719 1.17969 0.0214844c1.3457 -81.3135 2.53516 -162.628 4.08496 -243.937z" />
    <glyph glyph-name="braceright" unicode="}" horiz-adv-x="542" 
d="M496.477 453.154c10.6182 -12.5254 19.2949 -26.2461 23.251 -42.3574c9.68164 -39.4268 -6.05273 -74.2539 -42.8027 -95.1064c-9.68652 -5.49707 -19.625 -10.5508 -29.3174 -16.041c-1.61914 -0.917969 -2.55664 -3.03613 -4.85059 -5.89941
c-0.0732422 -15.3906 7.5293 -30.0723 11.9307 -45.4629c8.36523 -29.2559 18.3701 -58.1084 25.2998 -87.6895c7.65625 -32.6748 11.3887 -66.1104 9.67969 -99.8604c-2.3125 -45.6973 -15.6826 -87.7881 -41.6631 -125.624
c-30.6318 -44.6074 -73.9473 -68.3916 -126.633 -76.166c-52.4922 -7.74512 -105.361 -7.33105 -158.204 -5.92871c-26.7217 0.707031 -52.4639 6.49707 -75.7051 20.2568c-20.249 11.9873 -33.3154 29.4824 -36.7598 53.2793
c-6.31543 43.6514 30.6738 92.5342 86.2441 76.8477c54.1533 -15.2852 106.92 -5.71191 160.328 -3.97656c20.0293 0.649414 33.6348 12.1436 41.166 31.1445c6.48145 16.3574 10.124 33.0938 8.63184 50.5752c-2.94629 34.5 -8.46875 68.4395 -20.3818 101.276
c-8.64648 23.835 -15.874 48.2246 -22.7588 72.6426c-5.86328 20.7861 -5.90723 42.2373 -3.39453 63.583c2.93555 24.9668 13.9141 46.5059 29.5693 65.8076c5.68945 7.01465 11.7773 13.7061 18.1035 21.0312c-5.58984 8.04102 -11.3672 15.1875 -15.8789 23.0605
c-13.6094 23.7588 -28.3525 47.0566 -39.7061 71.8848c-24.4795 53.5322 -20.8555 107.046 7.22559 158.223c11.6719 21.2676 26.6641 40.748 40.6055 60.7207c10.4619 14.9902 21.9316 29.2764 32.4316 44.2422c6.5166 9.29395 11.251 19.4531 6.61133 33.0098
c-4.79102 1.25977 -10.3887 3.62402 -16.1436 4.09473c-30.3486 2.48145 -60.7432 4.40234 -91.1094 6.70117c-11.751 0.888672 -21.8008 -3.88574 -31.8691 -8.76855c-33.5361 -16.2646 -85.0488 1.40332 -96.9805 51.0283
c-7.65332 31.8262 8.14844 64.3955 38.9316 82.3428c20.6719 12.0537 43.6455 16.1602 67.0098 18.249c10.0908 0.902344 20.377 1.2002 30.457 0.355469c42.4756 -3.56152 85.1221 -6.10254 127.295 -11.9717c46.4951 -6.4707 80.1748 -33.1836 100.717 -75.1982
c23.7354 -48.5449 24.7393 -98.2646 1.18262 -146.985c-10.0889 -20.8672 -23.8213 -40.0811 -36.9092 -59.3574c-11.9756 -17.6377 -25.0156 -34.583 -38.1279 -51.4111c-16.4521 -21.1152 -17.2158 -42.7891 -3.08691 -64.9727
c10.8896 -17.0996 21.9336 -34.166 34.0146 -50.4258c9.67578 -13.0205 21.0801 -24.749 31.5967 -37.1533z" />
    <glyph glyph-name="asciitilde" unicode="~" horiz-adv-x="597" 
d="M535.381 576.458c36.2275 -10.7266 57.1221 -51.7861 44.5371 -87.9629c-5.25098 -15.0957 -13.5117 -29.6631 -22.8555 -42.7158c-27.4131 -38.2891 -63.0039 -65.9512 -109.764 -76.6025c-13.7168 -3.12305 -28.0264 -3.65723 -42.0635 -5.37695
c-40.5957 1.12988 -78.2422 11.8916 -113.838 30.5342c-13.4727 7.05566 -26.5527 14.9121 -40.2666 21.4473c-38.8984 18.54 -74.5469 5.35059 -92.7295 -34.0947c-4.23828 -9.18848 -6.44824 -19.4277 -11.4072 -28.1484
c-14.8916 -26.1836 -37.7705 -39.2256 -68.083 -36.7803c-29.1055 2.34863 -48.8135 18.498 -59.7002 45.084c-6.78125 16.5654 -6.67285 34.4512 -1.24023 50.9248c26.9658 81.7578 82.2832 134.41 166.703 152.132c39.1416 8.21582 78.9648 2.63379 115.899 -14.9697
c16.458 -7.8457 32.1729 -17.2812 48.7451 -24.8584c13.7178 -6.27246 28.0869 -11.207 42.373 -16.1387c18.9355 -6.53711 33.8906 0.832031 45.7441 15.2861c6.40137 7.80469 11.1172 16.9688 17.1484 25.1064c22.8945 30.8838 53.0918 35.3369 80.7969 27.1338z" />
    <glyph glyph-name="nonbreakingspace" unicode="&#xa0;" horiz-adv-x="296" 
 />
    <glyph glyph-name="exclamdown" unicode="&#xa1;" horiz-adv-x="208" 
d="M116.869 640.543c29.6465 -2.86816 54.0156 -25.3672 60.0312 -56.0732c1.54883 -7.90234 2.2666 -16.1221 2.13867 -24.1758c-1.16504 -73.0752 -2.37012 -146.152 -4.03027 -219.219c-1.43066 -62.9229 -3.18066 -125.842 -5.52539 -188.736
c-0.40625 -10.9023 -2.9248 -22.3174 -7.14453 -32.3701c-12.1787 -29.0098 -42.9961 -45.416 -74.3086 -41.0996c-30.6406 4.22461 -55.3184 29.3164 -59.0889 60.9609c-1.19434 10.0254 -0.982422 20.2676 -0.797852 30.3994
c1.15137 62.9385 2.47852 125.872 3.74902 188.809l-0.84375 0.0234375c1.5918 65.9688 2.91016 131.945 5.00977 197.897c0.414062 13.0049 2.00293 26.5537 6.23828 38.7412c10.9219 31.4336 40.1055 48.1758 74.5723 44.8428zM107.254 713.074
c-32.3438 -2.13672 -71.1436 27.543 -70.7646 72.5078c0.333008 39.3604 33.6143 72.3838 72.8691 70.9355c48.9014 -1.80371 71.4961 -39.6562 71.1006 -72.5879c-0.470703 -39.2441 -34.085 -71.1201 -73.2051 -70.8555z" />
    <glyph glyph-name="cent" unicode="&#xa2;" horiz-adv-x="465" 
d="M388.492 235.099c42.1777 3.70703 83.2354 -36.5479 71.1289 -87.1123c-5.31934 -22.2188 -18.9414 -38.1709 -39.6943 -47.1191c-12.0225 -5.18359 -24.9805 -8.2168 -37.5488 -12.1191c-6.66211 -2.06836 -13.3916 -3.92383 -22.0547 -6.44727
c0.963867 -24.6074 2.27246 -45.8525 2.49805 -67.1084c0.246094 -23.0352 -10.332 -41.0801 -28.5684 -54.5127c-34.5938 -25.4814 -84.9854 -13.4434 -103.848 25.5625c-5.15625 10.6621 -7.22754 23.1904 -8.83887 35.1152
c-3.39551 25.1299 -5.54883 50.4277 -8.29688 76.4668c-122.499 54.665 -192.562 148.461 -197.947 282.896c-5.30762 132.488 55.7549 231.911 169.833 301.533c1.49414 23.3691 -1.02734 47.5205 -2.37793 71.6943c-0.679688 12.1543 -2.50195 24.5312 -1.03125 36.4639
c3.80859 30.8984 19.9521 52.7266 50.8096 61.8018c35.7812 10.5234 73.7715 -8.53418 85.6367 -44c3.80469 -11.374 4.9375 -23.8125 6.04785 -35.8799c1.57617 -17.1211 2.00098 -34.3477 2.90625 -51.3369c11.3369 -8.91309 24.2559 -6.71973 35.7627 -9.39844
c25.7461 -5.99316 43.9443 -20.6982 53.1875 -45.3584c16.4492 -43.8789 -14.0322 -90.1572 -61.9834 -94.4521c-9.07227 -0.814453 -18.2803 -0.289062 -27.4229 -0.131836c-55.0039 0.945312 -98.1992 -22.6572 -131.239 -65.167
c-57.9766 -74.5918 -49.9014 -182.677 18.543 -243.386c37.8525 -33.5762 82.2432 -47.0381 132.789 -35.9502c13.8281 3.0332 27.6797 6.71289 41.709 7.94531z" />
    <glyph glyph-name="sterling" unicode="&#xa3;" horiz-adv-x="572" 
d="M499.211 147.111c41.2891 -6.7793 67.5107 -44.0752 60.5352 -84.248c-7.31836 -42.1562 -45.3203 -69.415 -87.1592 -59.9062c-18.4785 4.2002 -36.0195 3.66602 -54.21 1.55957c-46.3721 -5.36816 -92.7832 -10.3945 -139.17 -15.6348
c-9.06934 -1.02441 -18.0771 -2.61328 -27.1543 -3.55566c-11.0986 -1.15332 -22.2344 -2.62891 -33.3604 -2.69434c-46.3701 -0.275391 -79.4473 30.2568 -80.7197 76.9326c-0.882812 32.4434 1.21094 65.0117 2.93848 97.4727
c3.125 58.7275 6.96777 117.417 10.6191 177.918c-5.56738 0.869141 -11.3135 1.78809 -17.0664 2.65723c-11.0137 1.66309 -22.3174 2.24609 -32.9961 5.13867c-31.6289 8.57129 -51.4287 35.0283 -51.4658 67.2559c-0.0371094 32.5225 19.415 58.0693 51.0977 67.6729
c12.8779 3.90332 25.834 4.77734 39.1582 3.58301c9.94922 -0.891602 20.1191 -2.68457 30.8516 2.06543c5.03125 23.8027 9.62402 47.5859 15.1357 71.1553c8.57617 36.667 19.4521 72.7461 36.7002 106.29c9.69238 18.8486 20.7588 37.5156 34.1699 53.8223
c35.7588 43.4775 82.5967 64.1357 139.169 62.2588c22.8594 -0.757812 44.1787 -6.84277 63.6318 -18.4629c34.708 -20.7305 62.1885 -48.7598 81.7168 -84.3408c6.41797 -11.6934 10.8594 -23.9482 11.499 -37.5117c1.50879 -32.0215 -14.6377 -58.2637 -43.4824 -70.0518
c-28.7969 -11.7676 -62.2725 -2.82031 -82.2188 22.3555c-4.38672 5.53516 -7.59277 11.9922 -11.4863 17.9307c-7.29785 11.1328 -15.6748 21.1807 -27.8447 27.2656c-12.7393 -0.511719 -20.9365 -7.7207 -26.8262 -17.6904
c-5.66797 -9.59473 -11.4492 -19.3164 -15.4863 -29.6436c-13.6494 -34.9268 -24.5469 -70.6445 -28.6992 -109.878c6.72461 -1.8125 12.209 -4.19043 17.8447 -4.63184c13.1562 -1.03223 26.4609 -0.407227 39.5693 -1.75293
c37.791 -3.88086 66.2061 -35.5098 65.2822 -71.8672c-0.942383 -37.1152 -29.9141 -66.3906 -68.3623 -68.4004c-12.1436 -0.635742 -24.3662 0.385742 -36.5527 0.405273c-11.9873 0.0195312 -23.9746 -0.269531 -37.6855 -0.445312
c-8.54785 -64.959 -13.1484 -128.264 -13.9102 -196.181c13.958 0.887695 24.04 1.25684 34.0654 2.21094c45.4678 4.32812 90.877 9.34082 136.398 12.959c15.0312 1.19434 30.582 0.432617 45.4736 -2.0127z" />
    <glyph glyph-name="yen" unicode="&#xa5;" horiz-adv-x="457" 
d="M435.062 738.845c-42.873 -67.876 -85.624 -135.829 -129.096 -203.325c-10.4912 -16.292 -16.0303 -32.4863 -9.69531 -53.4912c4.63672 -0.983398 10.2461 -3.13965 15.873 -3.18262c15.2285 -0.116211 30.5273 1.76562 45.6826 0.879883
c41.417 -2.42383 70.5215 -33.9775 69.3057 -73.8984c-0.923828 -30.3477 -21.1221 -57.0693 -50.9092 -64.7227c-13.6309 -3.50195 -28.0596 -4.0957 -42.1797 -5.44434c-10.9355 -1.04492 -21.957 -1.20996 -34.2656 -1.83301v-28.7725
c11.4717 -0.421875 21.4277 -0.953125 31.3887 -1.11621c15.2393 -0.25 30.5703 0.763672 45.7061 -0.555664c36.4111 -3.17383 63.667 -33.2861 63.9912 -69.3926c0.324219 -36.2002 -26.3955 -66.6055 -62.8037 -70.3027
c-14.1045 -1.43262 -28.4229 -0.707031 -42.6387 -1.13965c-9.93555 -0.303711 -19.8604 -0.904297 -31.8281 -1.46777c-0.636719 -10.7236 -1.63379 -19.5713 -1.58496 -28.4131c0.0898438 -16.2656 1.54102 -32.5508 0.983398 -48.7783
c-0.379883 -11.0332 -2.20508 -22.2617 -5.16211 -32.9082c-6.51855 -23.4697 -32.6494 -47.7754 -67.4629 -47.291c-34.0176 0.473633 -60.1514 25.2354 -65.6973 49.6387c-3.79102 16.6826 -4.47363 34.1621 -5.55469 51.3486
c-1.07227 17.042 -0.904297 34.1611 -1.29492 51.9238c-13.5518 4.8125 -25.7354 2.49902 -37.5996 3.25c-14.1426 0.894531 -28.5996 0.671875 -42.3145 3.69141c-29.9502 6.59375 -51.3047 32.7637 -53.4434 62.8428c-2.10742 29.6436 15.9502 59.4473 44.1914 69.8574
c11.1846 4.12207 23.6475 5.59766 35.6582 6.44531c15.1338 1.06738 30.4004 0.256836 44.4756 0.256836c7.94922 8.40625 6.80957 15.6865 1.39551 25.29c-11.084 0 -23.0752 0.0488281 -35.0645 -0.015625c-10.1582 -0.0537109 -20.3145 -0.386719 -30.4707 -0.339844
c-31.042 0.148438 -64.7744 27 -66.6914 66.8184c-1.78516 37.0977 25.6436 69.2324 62.9795 73.5684c10.0635 1.16992 20.3105 0.650391 30.4443 1.33496c12.0898 0.81543 24.1475 2.0918 37.5254 3.28613c6.28223 24.3174 0.575195 41.5332 -11.6543 59.8564
c-23.0879 34.5947 -42.7637 71.4688 -63.8545 107.396c-22.6328 38.5596 -45.2373 77.1357 -67.9082 115.673c-7.29004 12.3926 -12.9121 25.1807 -13.4346 39.957c-1.08105 30.6514 14.3145 56.6689 41.2207 68.7041c28.1631 12.5967 59.4541 6.55176 80.7832 -16.7959
c7.44531 -8.14941 13.2646 -17.9502 18.9443 -27.5205c25.4062 -42.8174 50.4619 -85.8428 75.7383 -128.738c3.57422 -6.06641 7.66699 -11.8271 12.7334 -19.5859c5.66602 7.52148 10.7441 13.4033 14.875 19.8896c27.2988 42.8545 54.2559 85.9277 81.6631 128.71
c5.99316 9.35742 12.541 18.6279 20.2383 26.5771c30.3672 31.3633 93.0156 27.5068 113.998 -22.8389c7.79688 -18.7109 7.72852 -37.7764 -0.714844 -56.2021c-4.63086 -10.1064 -10.5186 -19.6992 -16.4717 -29.124z" />
    <glyph glyph-name="section" unicode="&#xa7;" horiz-adv-x="428" 
d="M409.064 144.871c2.45703 -79.0088 -62.1406 -177.126 -173.725 -181.047c-22.6484 -0.793945 -44.8115 3.47754 -65.251 12.9268c-37.9199 17.5303 -73.6494 38.998 -106.04 65.5635c-13.3848 10.9785 -25.585 23.2217 -33.4141 39.1436
c-18.2969 37.2061 -2.62402 81.71 35.5752 96.6973c27.7393 10.8818 54.5918 6.9502 76.2715 -14.3584c19.1465 -18.8193 41.4863 -32.5234 64.2764 -45.8916c3.50098 -2.05273 7.12988 -3.89453 10.7559 -5.72754c11.8398 -5.98535 23.458 -6.58398 34.0254 2.53418
c11.7314 10.1211 16.959 22.793 12.3281 38.1514c-5.22363 17.3213 -16.9482 30.2334 -31.4316 39.9551c-11.7158 7.8623 -24.751 13.9268 -37.6396 19.8271c-18.4512 8.44629 -37.625 15.3438 -55.9209 24.0986c-39.9053 19.0947 -70.7725 47.9404 -87.8232 89.2539
c-29.1992 70.7441 -16.4238 135.256 31.666 193.59c7.00684 8.49902 14.8721 16.291 22.709 24.8105c-7.03906 8.07812 -13.2061 14.7803 -18.9629 21.8193c-57.7715 70.6328 -59.1357 167.616 -2.96191 239.446c26.8564 34.3398 60.8359 59.6592 101.342 75.8594
c35.293 14.1172 71.5186 13.0615 107.843 4.93359c7.81934 -1.75 15.5859 -4.82324 22.6631 -8.61816c30.9307 -16.5898 45.2598 -50.957 34.9844 -82.6162c-10.8945 -33.5703 -43.3408 -54.2314 -78.1445 -49.7256c-2.00879 0.259766 -3.99707 0.745117 -5.95996 1.26172
c-11.9297 3.14355 -23.6855 5.47266 -35.5449 -0.844727c-15.5234 -8.26855 -29.3672 -18.4941 -38.5322 -33.7148c-12.7285 -21.1396 -7.84766 -46.9971 12.5312 -62.54c8.73438 -6.66016 19.1582 -11.3867 29.3174 -15.8467
c34.8086 -15.2803 66.001 -36.21 93.8799 -61.6855c63.4414 -57.9717 69.8594 -147.283 25.1035 -213.493c-7.32324 -10.833 -17.0996 -20.041 -26.0312 -29.7344c-4.74512 -5.15039 -10.1123 -9.72754 -13.876 -13.3047c19.4668 -20.707 39.5137 -39.542 56.584 -60.7734
c25.5322 -31.7539 38.125 -68.8311 39.4033 -109.95zM232.165 436.4c5.29785 4.79102 8.63086 11.2168 2.5127 18.4023c-11.3311 -1.31055 -20.4854 -7.1416 -28.5537 -14.6318c-2.46094 -2.2832 -3.38477 -6.22168 -5.06738 -9.50977
c13.3945 -7.46582 22.8076 -1.76562 31.1084 5.73926z" />
    <glyph glyph-name="softhyphen" unicode="&#xad;" 
 />
    <glyph glyph-name="paragraph" unicode="&#xb6;" horiz-adv-x="585" 
d="M377.349 455.819c5.16406 -121.815 10.5664 -243.622 15.4355 -365.452c0.519531 -13.0127 0.0566406 -26.6328 -3.20898 -39.1182c-8.77734 -33.5674 -35.5186 -52.5898 -69.7637 -51.8203c-33.2031 0.745117 -59.6143 22.4404 -66.4141 56.0957
c-2.79688 13.8467 -3.5957 28.1982 -4.21582 42.3682c-2.44336 55.832 -4.40723 111.686 -6.69531 167.525c-0.240234 5.87988 -1.43457 11.7217 -2.32324 18.6484c-6.10645 1.13672 -10.8867 2.36914 -15.7432 2.87793c-101.812 10.6436 -186.3 85.0488 -208.531 189.661
c-18.0928 85.1377 0.03125 163.486 47.8721 235.135c45.8828 68.7158 109.041 113.859 189.519 133.719c10.6865 2.63574 22.0957 3.5625 33.127 3.31836c24.1084 -0.53125 43.6865 -11.7139 55.3701 -32.3369c12.9238 -22.8145 23.2773 -46.4482 24.085 -74.3213
c2.76562 -95.4639 7.44336 -190.873 11.4873 -286.3zM555.787 85.9795c0.450195 -10.0342 -0.225586 -20.418 -2.3457 -30.2129c-6.47559 -29.9658 -31.9873 -51.9863 -61.9375 -54.6836c-30.9033 -2.78418 -61.4922 15.7295 -71.667 45.6934
c-4.47949 13.1924 -5.97363 27.7686 -6.6582 41.8232c-5.09473 104.574 -9.64648 209.176 -14.3672 313.769c-0.129883 -0.00585938 -0.260742 -0.0117188 -0.390625 -0.0175781c-3.68555 85.3027 -7.30176 170.607 -11.1045 255.905
c-0.951172 21.3193 -3.40137 42.6055 -3.57422 63.9209c-0.249023 30.8193 12.1631 55.5811 40.3096 69.9854c38.4219 19.6621 86.0459 -0.980469 98.0215 -42.5762c3.6123 -12.5449 4.98828 -25.9961 5.58203 -39.1123c5.10742 -112.716 9.61719 -225.46 14.6758 -338.18
c4.28418 -95.4473 9.17188 -190.867 13.4561 -286.314z" />
    <glyph glyph-name="questiondown" unicode="&#xbf;" horiz-adv-x="514" 
d="M463.805 265.754c1.62695 -127.502 -89.543 -247.497 -212.755 -280.206c-41.3271 -10.9717 -82.874 -10.5166 -122.81 4.38477c-71.6689 26.7432 -109.532 81.5811 -119.905 155.556c-8.39355 59.8584 5.9707 115.261 41.4541 164.387
c14.2432 19.7207 30.4551 38.0225 45.8564 56.8994c12.1943 14.9463 25.2432 29.2539 36.6045 44.8018c15.3877 21.0537 22.8242 44.9219 22.4609 71.3809c-0.712891 51.9561 -6.08789 103.409 -14.7383 154.583c-2.03027 12.0166 -4.55664 24.0244 -5.47461 36.1406
c-3.23926 42.749 25.0283 68.5117 53.1035 75.3984c36.4775 8.94824 72.375 -10.7168 83.6982 -48.2139c7.87891 -26.0908 12.5352 -53.4219 15.9287 -80.5371c4.79102 -38.2773 7.08496 -76.8672 10.4463 -115.324
c-0.457031 -0.0410156 -0.915039 -0.0839844 -1.37207 -0.125c0 -9.15039 -0.203125 -18.3047 0.0322266 -27.4482c1.41016 -54.9844 -16.082 -104.179 -47.6758 -148.197c-16.5371 -23.041 -36.3779 -43.6826 -54.1572 -65.8662
c-12.0322 -15.0137 -23.8184 -30.3359 -34.3398 -46.4199c-10.3184 -15.7725 -14.1172 -33.9492 -10.9346 -52.6064c4.96484 -29.0947 20.1309 -45.8604 52.0879 -42.9727c8.94824 0.807617 18.2637 2.69336 26.416 6.32227
c44.0869 19.6201 74.5166 51.7656 88.1328 98.8281c4.02637 13.915 4.90039 27.7061 2.41699 42.1191c-7.47949 43.4023 13.4824 77.0762 52.5488 85.54c41.0527 8.89648 79.3633 -15.8965 89.1963 -58.2686c2.28027 -9.8252 3.65039 -20.0781 3.77832 -30.1553z
M194.324 760.229c-39.7773 0.325195 -72.8262 34.6279 -72.4258 75.1855c0.351562 35.4346 27.0713 69.6328 73.1455 70.3105c39.6094 0.582031 71.9512 -32.0117 72.4609 -71.4453c0.523438 -40.5039 -32.9551 -74.3809 -73.1807 -74.0508z" />
    <glyph glyph-name="divide" unicode="&#xf7;" horiz-adv-x="542" 
d="M445.561 495.416c32.6982 -12.7129 46.9805 -43.3486 45.8369 -68.8525c-1.35156 -30.1348 -22.6426 -56.5605 -51.8018 -64.6553c-9.73242 -2.70215 -19.8691 -4.3291 -29.9326 -5.39551c-46.3828 -4.91504 -92.8223 -9.28418 -139.206 -14.1826
c-47.3887 -5.00195 -94.7314 -10.4434 -142.106 -15.5781c-13.1084 -1.42188 -26.2617 -2.43262 -37.8291 -3.48926c-8.69336 0 -15.7939 0.0683594 -22.8916 -0.0136719c-23.626 -0.275391 -53.6416 19.3018 -62.002 50.2588
c-8.11328 30.04 2.87988 61.4502 28.6113 77.3281c10.0693 6.21289 22.1064 11.0146 33.7627 12.5537c40.1953 5.30566 80.626 8.80762 120.951 13.1494c47.3818 5.10156 94.7432 10.3799 142.117 15.5469c25.2002 2.74805 50.3867 5.64355 75.6191 8.04492
c13.1973 1.25586 26.1152 0.246094 38.8711 -4.71484zM240.035 530.566c-37.7959 -1.64648 -72.4307 28.6064 -72.2334 70.207c0.194336 41.0322 35.168 76.5537 75.5518 76.4922c39.0146 -0.0576172 72.3438 -32.6406 72.9961 -71.3594
c0.68457 -40.5986 -33.4229 -73.4707 -76.3145 -75.3398zM265.412 319.203c40.1279 -0.148438 74.5293 -33.3252 74.1523 -73.0547c-0.394531 -41.3672 -34.0439 -70.6855 -69.7109 -69.4746c-41.2998 -0.28418 -74.3809 31.6338 -75.7812 71.3447
c-1.20703 34.1553 28.0732 71.3447 71.3398 71.1846z" />
    <glyph glyph-name="quotedblright" unicode="&#x201d;" horiz-adv-x="330" 
d="M147.507 799.026c5.3252 -44.3691 10.2666 -88.7842 14.9062 -129.483c0 -8.84961 0.219727 -13.9385 -0.0341797 -19.0049c-1.73535 -34.7617 -24.793 -60.834 -59.4639 -67.3789c-29.9141 -5.64648 -63.2959 13.668 -75.6289 44.1562
c-2.64355 6.53516 -4.89062 13.5039 -5.70801 20.4619c-4.97852 42.3662 -9.55078 84.7812 -14.0869 127.197c-0.644531 6.03711 -0.381836 12.1758 -0.484375 18.2686c-0.460938 27.3037 19.1982 59.9834 59.54 67.1572c31.1895 5.5459 63.2734 -13.3945 75.75 -43.9111
c2.29297 -5.6084 4.49512 -11.5127 5.20996 -17.4629zM318.411 716.843c2.18359 -33.5625 -17.4785 -63.9873 -47.001 -74.1533c-38.8926 -13.3926 -79.8057 7.01367 -91.583 47.165c-5.09961 17.3887 -7.06543 35.7441 -9.86621 53.751
c-3.89453 25.0215 -7.23633 50.127 -9.34668 64.9219c-2.19336 49.043 26.7627 78.8516 59.4619 83.1855c37.6338 4.98828 71.3027 -17.3242 79.7393 -54.7324c6.00684 -26.6387 8.9668 -53.9697 13.1611 -81.0117c2.01758 -13.0156 4.58203 -26.0205 5.43457 -39.126z" />
    <glyph glyph-name="perthousand" unicode="&#x2030;" horiz-adv-x="1180" 
d="M588.349 800.35c-1.71973 -6.85156 -4.81055 -13.3613 -7.3291 -20.0078c-95.1523 -250.871 -190.272 -501.753 -285.587 -752.562c-4.39062 -11.5537 -9.14551 -23.4014 -16.127 -33.4463c-13.0811 -18.8223 -32.25 -28.1201 -55.2344 -25.7256
c-23.7705 2.47852 -41.6465 14.8691 -50.9443 37.4834c-2.97656 7.24121 -3.95215 15.3066 -6.30371 24.8613c2.94336 10.7783 5.27832 23.0088 9.58203 34.5c26.1699 69.8877 52.7617 139.616 79.2617 209.379c68.7754 181.054 137.537 362.11 206.452 543.11
c4.72559 12.4121 9.32422 25.2051 16.3271 36.3438c12.8887 20.5029 32.6289 29.4648 56.8428 27.5234c24.4287 -1.95996 41.2607 -14.9209 51.1514 -37.0361c6.4707 -14.4697 5.64746 -29.5254 1.9082 -44.4238zM570.086 320.528
c88.0137 0.628906 185.302 -71.3369 183.941 -188.672c-1.44922 -124.961 -107.074 -189.89 -189.646 -185.604c-86.4004 -1.8877 -184.997 68.7227 -185.379 187.312c-0.308594 96.2188 72.1836 186.115 191.084 186.965zM628.636 131.972
c1.74219 33.2832 -23.5264 63.332 -62.7217 64.8076c-32.791 1.23242 -61.8311 -28.8633 -61.8467 -63.1875c-0.0166016 -34.5303 27.6699 -63.1338 61.6113 -63.6533c33.9873 -0.520508 62.4609 27.5342 62.957 62.0332zM951.594 277.926
c90.2188 1.55371 179.715 -75.9893 178.47 -183.543c-0.982422 -84.8457 -66.3223 -178.199 -181.51 -178.289c-109.536 -0.0859375 -182.952 87.8105 -181.126 184.017c1.86816 98.3057 77.292 177.299 184.166 177.815zM1005.23 95.3154
c1.4082 31.3682 -24.4023 58.1455 -56.3701 58.9336c-29.8633 0.737305 -55.499 -25.0039 -55.8809 -56.1133c-0.392578 -32.127 22.7227 -55.2871 54.4062 -56.8936c29.2949 -1.48633 56.4229 22.4082 57.8447 54.0732zM219.235 544.271
c-88.5605 -1.52441 -168.925 73.5498 -169.226 169.615c-0.246094 78.2314 59.3457 167.952 171.926 170.628c103.297 -7.40234 168.329 -80.2793 167.679 -172.001c-0.766602 -108.201 -91.8486 -170.894 -170.379 -168.242zM174.627 713.28
c0.183594 -24.583 22.4609 -45.9902 46.5117 -45.1074c23.6885 0.869141 42.8516 21.0664 43.8447 44.9229c0.977539 23.4336 -20.9912 48.0869 -44.8994 45.374c-25.4111 1.75488 -45.6338 -21.2617 -45.457 -45.1895z" />
    <glyph glyph-name="Euro" unicode="&#x20ac;" horiz-adv-x="603" 
d="M551.403 88.7197c5.22168 -38.1777 -19.084 -72.1465 -58.3604 -80.7021c-51.8047 -11.2822 -102.976 -8.62793 -153.221 8.72656c-64.9609 22.4375 -114.843 64.1328 -152.592 120.817c-10.6787 16.0371 -19.5371 33.2852 -30.3809 51.958
c-14.3779 0 -27.5098 0.0722656 -40.6416 -0.0244141c-9.14355 -0.0683594 -18.2861 -0.53125 -27.4297 -0.53418c-27.1416 -0.0107422 -59.5703 19.9922 -66.1641 60.8066c-5.05664 31.2988 14.3398 63.041 45.6631 74.6406
c9.33008 3.45508 19.6855 4.25586 29.6348 5.88867c7.84375 1.28711 15.7861 1.9834 24.4229 3.03223c0.527344 6.30957 1.29297 11.2578 1.23926 16.1973c-0.0410156 3.85938 -1.09766 7.70801 -1.98828 13.3789c-9.7959 0.110352 -18.6904 -0.192383 -27.5244 0.40918
c-11.0684 0.754883 -22.3262 1.19043 -33.083 3.625c-31.9805 7.23633 -51.2061 38.541 -51.9453 64.1084c-0.912109 31.499 18.127 60.3652 48.5645 69.9121c11.4531 3.5918 23.8594 4.67969 35.9316 5.62012c16.124 1.25879 32.3486 1.26172 46.876 1.74707
c10.5537 8.11426 11.3359 18.9736 14.9033 28.1982c21.1426 54.6709 50.54 104.285 90.2402 147.453c53.793 58.4922 118.492 98.335 197.278 113.637c16.2627 3.1582 32.0703 3.87012 47.9375 -2.33203c28.0293 -10.958 46.6611 -36.334 47.127 -65.2217
c0.47168 -29.2275 -19.582 -57.7314 -48.1396 -67.7891c-6.67285 -2.35059 -13.7305 -3.77539 -20.7168 -5.04004c-47.0225 -8.5166 -84.9697 -33.1719 -116.355 -67.8584c-14.9004 -16.4678 -26.8438 -35.6445 -39.7539 -53.8594
c-2.77344 -3.91309 -3.94336 -8.96387 -6.63281 -15.3438c10.2539 -2.08008 18.9932 -3.73242 27.6787 -5.63574c33.3008 -7.29883 55.9873 -33.3457 57.6504 -66.0713c1.53906 -30.3096 -18.7129 -59.2842 -49.7021 -69.1611
c-10.4727 -3.33887 -21.8125 -4.39551 -32.8545 -5.38867c-13.0078 -1.16992 -26.124 -1.13477 -36.1904 -1.50879c-3.69336 -2.75098 -5.14551 -3.28418 -5.22656 -3.97754c-0.798828 -6.92188 -1.37305 -13.8711 -2.00977 -20.8223
c13.4248 -8.73633 26.7051 -2.9873 39.4736 -3.30957c13.1162 -0.331055 26.5537 1.07422 39.2871 -1.30273c30.5723 -5.70703 52.6826 -31.2725 55.0518 -61.0898c2.55469 -32.1816 -14.9844 -61.0967 -44.7822 -72.3457
c-10.3643 -3.91113 -21.4326 -5.95605 -34.0547 -9.3584c3.83008 -5.2207 6.66504 -10.4443 10.7305 -14.4043c31.6992 -30.8867 69.5225 -44.8184 113.808 -40.2441c9.10254 0.94043 18.1943 2.01367 27.2998 2.93652c48.75 4.94531 75.0137 -30.9795 78.9512 -59.7676z
" />
    </font>
</defs>
</svg>
